%TF.GenerationSoftware,Altium Limited,Altium Designer,20.0.10 (225)*%
G04 Layer_Color=16711935*
%FSLAX26Y26*%
%MOIN*%
%TF.FileFunction,Soldermask,Bot*%
%TF.Part,Single*%
G01*
G75*
%TA.AperFunction,ComponentPad*%
%ADD53O,0.047370X0.070992*%
%ADD54O,0.047370X0.090677*%
%ADD55C,0.033591*%
%ADD56C,0.098000*%
%ADD57C,0.148000*%
%ADD58R,0.067370X0.067370*%
%ADD59C,0.067370*%
%TA.AperFunction,ViaPad*%
%ADD60C,0.031622*%
D53*
X835827Y246063D02*
D03*
X495669D02*
D03*
D54*
X835827Y410630D02*
D03*
X495669D02*
D03*
D55*
X779528Y389764D02*
D03*
X551968D02*
D03*
D56*
X1031756Y2095173D02*
D03*
X281756D02*
D03*
D57*
X306756Y295173D02*
D03*
X1006756D02*
D03*
D58*
X1056756Y445173D02*
D03*
D59*
Y545173D02*
D03*
Y645173D02*
D03*
Y745173D02*
D03*
Y845173D02*
D03*
Y945173D02*
D03*
Y1045173D02*
D03*
Y1145173D02*
D03*
Y1245173D02*
D03*
Y1345173D02*
D03*
Y1445173D02*
D03*
Y1545173D02*
D03*
Y1645173D02*
D03*
Y1745173D02*
D03*
Y1845173D02*
D03*
Y1945173D02*
D03*
X256756Y845173D02*
D03*
Y945173D02*
D03*
Y1045173D02*
D03*
Y1145173D02*
D03*
Y1245173D02*
D03*
Y1345173D02*
D03*
Y1445173D02*
D03*
Y1545173D02*
D03*
Y1645173D02*
D03*
Y1745173D02*
D03*
Y1845173D02*
D03*
Y1945173D02*
D03*
D60*
X649464Y375841D02*
D03*
X468491Y1948509D02*
D03*
X356496Y1908080D02*
D03*
X396851Y1937930D02*
D03*
X635000Y2077000D02*
D03*
X698408Y2077043D02*
D03*
X740705Y2011811D02*
D03*
X549987Y1768987D02*
D03*
X545685Y1807105D02*
D03*
X612953Y1869094D02*
D03*
X612952Y1835266D02*
D03*
X505899Y1828656D02*
D03*
X518701Y1886811D02*
D03*
X412599Y1745465D02*
D03*
X665355Y2076581D02*
D03*
X706504Y391961D02*
D03*
X621751Y393382D02*
D03*
X673000Y404000D02*
D03*
X516217Y891994D02*
D03*
X448819Y1724409D02*
D03*
X574207Y1864925D02*
D03*
X821662Y1724409D02*
D03*
X466541Y1313858D02*
D03*
X906056Y222737D02*
D03*
X427355Y221318D02*
D03*
X763442Y222737D02*
D03*
X697264D02*
D03*
X627058D02*
D03*
X563717D02*
D03*
X709832Y909216D02*
D03*
X488437Y1003940D02*
D03*
X703035Y1181259D02*
D03*
X914367Y722009D02*
D03*
X474877Y563201D02*
D03*
X475180Y627974D02*
D03*
X574803Y610587D02*
D03*
X781308Y605381D02*
D03*
X846890Y939967D02*
D03*
X773619D02*
D03*
X745705Y1140862D02*
D03*
X887893Y1121505D02*
D03*
X619729Y1338214D02*
D03*
X705168Y1404321D02*
D03*
X582677Y945173D02*
D03*
X534839Y844075D02*
D03*
X362598Y2000000D02*
D03*
X684451Y776971D02*
D03*
X637795D02*
D03*
X745811Y613838D02*
D03*
X582677Y1350173D02*
D03*
X665204Y1507429D02*
D03*
X740705Y1591088D02*
D03*
X837902Y1153662D02*
D03*
X899588Y1288846D02*
D03*
X337520Y565886D02*
D03*
Y629823D02*
D03*
X664134Y1606299D02*
D03*
X735792Y1701929D02*
D03*
X772329Y1291585D02*
D03*
X888977Y1369710D02*
D03*
X837902Y1631299D02*
D03*
X735792Y1732760D02*
D03*
X256756Y2021654D02*
D03*
X1056756Y2019685D02*
D03*
X895420Y1970473D02*
D03*
X821662Y1768618D02*
D03*
X422244Y1689961D02*
D03*
X812992Y1970473D02*
D03*
%TF.MD5,ebc865dac44397b888e0af83d25efe3c*%
M02*
