%TF.GenerationSoftware,Altium Limited,Altium Designer,20.0.10 (225)*%
G04 Layer_Color=32896*
%FSLAX26Y26*%
%MOIN*%
%TF.FileFunction,Legend,Bot*%
%TF.Part,Single*%
G01*
G75*
G36*
X515183Y1285234D02*
X515766Y1285161D01*
X516277Y1285015D01*
X516714Y1284797D01*
X517006Y1284578D01*
X517224Y1284432D01*
X517370Y1284359D01*
X517443Y1284286D01*
X518026Y1283557D01*
X518464Y1282828D01*
X518610Y1282610D01*
X518682Y1282391D01*
X518755Y1282245D01*
Y1282172D01*
X518974Y1281370D01*
X519120Y1280860D01*
X519193Y1280495D01*
Y1280350D01*
X519266Y1279912D01*
Y1279548D01*
Y1279256D01*
Y1279183D01*
Y1278746D01*
Y1278017D01*
Y1277507D01*
Y1277215D01*
Y1277069D01*
X519193Y1276705D01*
Y1276340D01*
Y1276121D01*
Y1276049D01*
Y1275684D01*
X519266Y1275247D01*
X519338Y1274809D01*
X519411Y1274736D01*
Y1274664D01*
X519557Y1273862D01*
X519776Y1273133D01*
X519849Y1272841D01*
X519922Y1272622D01*
X519995Y1272476D01*
Y1272404D01*
X520140Y1271966D01*
X520286Y1271383D01*
X520578Y1270362D01*
X520724Y1269852D01*
X520869Y1269488D01*
X520942Y1269196D01*
Y1269123D01*
X521307Y1267592D01*
X521525Y1266790D01*
X521671Y1266134D01*
X521817Y1265551D01*
X521963Y1265114D01*
X522036Y1264822D01*
Y1264676D01*
X522182Y1264093D01*
X522327Y1263728D01*
X522400Y1263437D01*
Y1263364D01*
X522546Y1263145D01*
X522619Y1263072D01*
X522692Y1262999D01*
X529034D01*
X529763Y1262927D01*
X530419Y1262708D01*
X530784Y1262416D01*
X530857Y1262343D01*
X530930D01*
X531440Y1261906D01*
X531804Y1261469D01*
X532023Y1261104D01*
X532096Y1261031D01*
Y1260958D01*
X532388Y1260448D01*
X532606Y1259938D01*
X532679Y1259573D01*
X532752Y1259500D01*
Y1259427D01*
X532898Y1258917D01*
X532971Y1258553D01*
Y1258261D01*
Y1258188D01*
X532898Y1257678D01*
X532825Y1257168D01*
X532533Y1256438D01*
X532388Y1256147D01*
X532315Y1255928D01*
X532169Y1255782D01*
Y1255709D01*
X531513Y1255053D01*
X530857Y1254470D01*
X530346Y1254179D01*
X530274Y1254033D01*
X530201D01*
X529326Y1253668D01*
X528451Y1253377D01*
X528159Y1253231D01*
X527868Y1253158D01*
X527722Y1253085D01*
X527649D01*
X527139Y1252939D01*
X526774Y1252866D01*
X526483Y1252793D01*
X526191D01*
X525899Y1252721D01*
X525827D01*
X526191Y1251700D01*
X526556Y1250534D01*
X526847Y1249367D01*
X527139Y1248274D01*
X527357Y1247253D01*
X527576Y1246451D01*
X527649Y1246160D01*
Y1245941D01*
X527722Y1245795D01*
Y1245722D01*
X528014Y1244118D01*
X528232Y1242588D01*
X528378Y1241202D01*
X528451Y1239890D01*
X528524Y1238870D01*
X528597Y1238432D01*
Y1238068D01*
Y1237776D01*
Y1237557D01*
Y1237412D01*
Y1237339D01*
X528524Y1236245D01*
X528451Y1235152D01*
X528305Y1234204D01*
X528159Y1233329D01*
X528014Y1232600D01*
X527868Y1232017D01*
X527722Y1231725D01*
Y1231580D01*
X527357Y1230632D01*
X526920Y1229757D01*
X526483Y1228955D01*
X526045Y1228226D01*
X525681Y1227643D01*
X525389Y1227206D01*
X525170Y1226914D01*
X525098Y1226841D01*
X524369Y1226112D01*
X523640Y1225456D01*
X522911Y1224946D01*
X522255Y1224508D01*
X521671Y1224144D01*
X521234Y1223852D01*
X520869Y1223706D01*
X520797Y1223633D01*
X519776Y1223269D01*
X518828Y1222977D01*
X517808Y1222759D01*
X516933Y1222613D01*
X516131Y1222540D01*
X515548Y1222467D01*
X514965D01*
X513361Y1222540D01*
X512632Y1222613D01*
X511976Y1222686D01*
X511392Y1222759D01*
X510955Y1222832D01*
X510663Y1222905D01*
X510591D01*
X509789Y1223123D01*
X508987Y1223342D01*
X508258Y1223633D01*
X507675Y1223925D01*
X507164Y1224144D01*
X506800Y1224362D01*
X506508Y1224508D01*
X506435Y1224581D01*
X505633Y1225164D01*
X504904Y1225602D01*
X504613Y1225821D01*
X504394Y1225966D01*
X504248Y1226112D01*
X504175D01*
X503300Y1226695D01*
X502572Y1227278D01*
X502353Y1227497D01*
X502134Y1227716D01*
X501988Y1227789D01*
X501915Y1227862D01*
X501113Y1228591D01*
X500457Y1229174D01*
X500166Y1229466D01*
X499947Y1229684D01*
X499874Y1229757D01*
X499801Y1229830D01*
X499145Y1230632D01*
X498635Y1231361D01*
X498416Y1231580D01*
X498270Y1231798D01*
X498197Y1231944D01*
Y1232017D01*
X497541Y1233256D01*
X496958Y1234350D01*
X496375Y1235370D01*
X495865Y1236245D01*
X495500Y1237047D01*
X495209Y1237557D01*
X494990Y1237922D01*
X494917Y1238068D01*
X494407Y1239161D01*
X493896Y1240400D01*
X493532Y1241567D01*
X493167Y1242660D01*
X492949Y1243681D01*
X492730Y1244410D01*
X492657Y1244702D01*
X492584Y1244920D01*
Y1244847D01*
X492511Y1244702D01*
X492584Y1245285D01*
X492730Y1245722D01*
X492876Y1246014D01*
X492949Y1246087D01*
X493240Y1246451D01*
X493532Y1246743D01*
X493824Y1246889D01*
X493896Y1246961D01*
X494261Y1247180D01*
X494625Y1247326D01*
X494917Y1247472D01*
X494990D01*
X495354Y1247545D01*
X495646Y1247618D01*
X495865D01*
X496375Y1247545D01*
X496812Y1247399D01*
X497541Y1246889D01*
X497833Y1246597D01*
X498052Y1246378D01*
X498125Y1246233D01*
X498197Y1246160D01*
X499364Y1244702D01*
X499947Y1243900D01*
X500457Y1243244D01*
X500895Y1242588D01*
X501259Y1242150D01*
X501551Y1241859D01*
X501624Y1241713D01*
X502353Y1240838D01*
X503082Y1239963D01*
X503811Y1239161D01*
X504394Y1238505D01*
X504904Y1237995D01*
X505342Y1237557D01*
X505633Y1237266D01*
X505706Y1237193D01*
X506508Y1236464D01*
X507237Y1235808D01*
X507966Y1235225D01*
X508622Y1234787D01*
X509205Y1234423D01*
X509643Y1234131D01*
X509934Y1233985D01*
X510007Y1233912D01*
X510809Y1233475D01*
X511611Y1233183D01*
X512340Y1232965D01*
X513069Y1232819D01*
X513652Y1232746D01*
X514090Y1232673D01*
X514454D01*
X515256Y1232746D01*
X515839Y1232892D01*
X516204Y1232965D01*
X516350Y1233038D01*
X516860Y1233329D01*
X517224Y1233694D01*
X517516Y1233985D01*
X517589Y1234058D01*
X517880Y1234641D01*
X518099Y1235152D01*
X518172Y1235589D01*
X518245Y1235662D01*
Y1235735D01*
X518318Y1236464D01*
X518391Y1237193D01*
Y1237485D01*
Y1237703D01*
Y1237849D01*
Y1237922D01*
X518318Y1238797D01*
X518245Y1239671D01*
Y1240036D01*
X518172Y1240328D01*
Y1240546D01*
Y1240619D01*
X517953Y1241931D01*
X517880Y1242588D01*
X517808Y1243171D01*
X517735Y1243681D01*
X517662Y1244045D01*
X517589Y1244337D01*
Y1244410D01*
X517224Y1246014D01*
X517079Y1246816D01*
X516860Y1247545D01*
X516714Y1248201D01*
X516568Y1248711D01*
X516495Y1249003D01*
Y1249149D01*
X516204Y1250096D01*
X515985Y1250971D01*
X515766Y1251773D01*
X515548Y1252429D01*
X515402Y1253012D01*
X515256Y1253377D01*
X515183Y1253668D01*
Y1253741D01*
X514965Y1253814D01*
X514600D01*
X513944Y1253960D01*
X513361Y1254033D01*
X512923Y1254106D01*
X512778D01*
X511976Y1254324D01*
X511320Y1254470D01*
X511028Y1254543D01*
X510809Y1254616D01*
X510663Y1254689D01*
X510591D01*
X510080Y1254835D01*
X509424Y1254980D01*
X508112Y1255272D01*
X507456Y1255418D01*
X506945Y1255564D01*
X506654Y1255637D01*
X506508D01*
X506144Y1255782D01*
X505779Y1255928D01*
X504831Y1256147D01*
X504394Y1256220D01*
X504029Y1256293D01*
X503811Y1256366D01*
X503738D01*
X503009Y1256511D01*
X502353Y1256657D01*
X501770Y1256803D01*
X501332Y1256876D01*
X500968Y1256949D01*
X500676Y1257022D01*
X500530Y1257095D01*
X500457D01*
X499510Y1257313D01*
X498708Y1257532D01*
X498343Y1257605D01*
X498125D01*
X497979Y1257678D01*
X497906D01*
X497031Y1257897D01*
X496448Y1258042D01*
X496083Y1258115D01*
X496010D01*
X495281Y1258334D01*
X494625Y1258553D01*
X494188Y1258698D01*
X494115Y1258771D01*
X494042D01*
X493313Y1259136D01*
X492730Y1259500D01*
X492365Y1259792D01*
X492220Y1259938D01*
X491637Y1260594D01*
X491199Y1261177D01*
X490908Y1261614D01*
X490835Y1261687D01*
Y1261760D01*
X490470Y1262562D01*
X490324Y1263364D01*
X490251Y1263656D01*
Y1263947D01*
Y1264093D01*
Y1264166D01*
X490324Y1264895D01*
X490543Y1265478D01*
X490762Y1265843D01*
X490835Y1265988D01*
X491272Y1266499D01*
X491709Y1266790D01*
X492001Y1267009D01*
X492074Y1267082D01*
X492147D01*
X492730Y1267373D01*
X493313Y1267519D01*
X493678Y1267592D01*
X493824D01*
X494480Y1267665D01*
X494990Y1267738D01*
X496010D01*
X496448Y1267665D01*
X496885Y1267592D01*
X496958Y1267519D01*
X497031D01*
X497760Y1267373D01*
X498343Y1267228D01*
X498854Y1267155D01*
X498926Y1267082D01*
X498999D01*
X499874Y1266936D01*
X500749Y1266717D01*
X501113Y1266645D01*
X501405Y1266572D01*
X501624Y1266499D01*
X501697D01*
X502936Y1266207D01*
X503519Y1266061D01*
X504102Y1265988D01*
X504540Y1265843D01*
X504904Y1265770D01*
X505196Y1265697D01*
X505269D01*
X506654Y1265405D01*
X507310Y1265332D01*
X507820Y1265187D01*
X508258Y1265114D01*
X508622Y1265041D01*
X508841Y1264968D01*
X508914D01*
X510153Y1264676D01*
X510809Y1264530D01*
X511320Y1264457D01*
X511830Y1264312D01*
X512194Y1264239D01*
X512413Y1264166D01*
X512486D01*
X509060Y1277142D01*
X508987Y1277215D01*
X508914Y1277361D01*
X508841Y1277798D01*
Y1278236D01*
Y1278381D01*
Y1278454D01*
X508914Y1279329D01*
X508987Y1280131D01*
X509060Y1280423D01*
X509132Y1280641D01*
X509205Y1280787D01*
Y1280860D01*
X509497Y1281735D01*
X509789Y1282391D01*
X509934Y1282682D01*
X510007Y1282901D01*
X510153Y1282974D01*
Y1283047D01*
X510736Y1283703D01*
X511320Y1284213D01*
X511757Y1284578D01*
X511903Y1284651D01*
X511976D01*
X512850Y1285015D01*
X513652Y1285234D01*
X514017Y1285307D01*
X514527D01*
X515183Y1285234D01*
D02*
G37*
G36*
X603392Y1265405D02*
X604559Y1265332D01*
X605579Y1265114D01*
X606527Y1264895D01*
X607329Y1264676D01*
X607985Y1264530D01*
X608349Y1264385D01*
X608495Y1264312D01*
X609589Y1263874D01*
X610609Y1263364D01*
X611557Y1262927D01*
X612359Y1262416D01*
X613088Y1262052D01*
X613598Y1261687D01*
X613890Y1261469D01*
X614036Y1261396D01*
X614910Y1260740D01*
X615785Y1260011D01*
X616587Y1259354D01*
X617243Y1258771D01*
X617826Y1258261D01*
X618264Y1257824D01*
X618555Y1257532D01*
X618628Y1257459D01*
X619357Y1256657D01*
X620086Y1255928D01*
X620742Y1255199D01*
X621253Y1254543D01*
X621690Y1254033D01*
X622055Y1253595D01*
X622273Y1253304D01*
X622346Y1253231D01*
X623440Y1251773D01*
X623950Y1251117D01*
X624314Y1250534D01*
X624679Y1250023D01*
X624898Y1249659D01*
X625043Y1249440D01*
X625116Y1249367D01*
X625481Y1248711D01*
X625773Y1248201D01*
X626064Y1247763D01*
X626210Y1247472D01*
X626356Y1247180D01*
X626429Y1247034D01*
X626501Y1246889D01*
X627085Y1246670D01*
X627668Y1246378D01*
X628178Y1246014D01*
X628616Y1245649D01*
X628980Y1245358D01*
X629272Y1245066D01*
X629418Y1244847D01*
X629490Y1244774D01*
X629928Y1244118D01*
X630219Y1243462D01*
X630438Y1242806D01*
X630584Y1242223D01*
X630657Y1241640D01*
X630730Y1241202D01*
Y1240911D01*
Y1240838D01*
X630657Y1240328D01*
X630584Y1239890D01*
X630292Y1239234D01*
X630074Y1238797D01*
X629928Y1238724D01*
Y1238651D01*
X629636Y1238359D01*
X629418Y1238214D01*
X629199Y1237922D01*
X629053Y1237849D01*
X629418Y1236464D01*
X629490Y1235808D01*
X629563Y1235152D01*
X629636Y1234569D01*
Y1234131D01*
Y1233840D01*
Y1233767D01*
X629563Y1232746D01*
X629490Y1231725D01*
X629345Y1230924D01*
X629199Y1230195D01*
X629053Y1229538D01*
X628980Y1229101D01*
X628834Y1228809D01*
Y1228736D01*
X628470Y1228007D01*
X628105Y1227351D01*
X627741Y1226768D01*
X627376Y1226258D01*
X627085Y1225821D01*
X626866Y1225529D01*
X626720Y1225310D01*
X626647Y1225237D01*
X625554Y1224290D01*
X624606Y1223561D01*
X624169Y1223269D01*
X623877Y1223050D01*
X623658Y1222977D01*
X623586Y1222905D01*
X622273Y1222394D01*
X621690Y1222176D01*
X621180Y1222030D01*
X620742Y1221884D01*
X620378Y1221811D01*
X620159Y1221738D01*
X620086D01*
X618847Y1221447D01*
X618264Y1221374D01*
X617754Y1221301D01*
X617389Y1221228D01*
X617097Y1221155D01*
X616806D01*
X615712Y1221082D01*
X615202D01*
X614837Y1221009D01*
X614036D01*
X611849Y1221082D01*
X609735Y1221228D01*
X607839Y1221519D01*
X606162Y1221811D01*
X605433Y1221957D01*
X604777Y1222103D01*
X604194Y1222248D01*
X603684Y1222394D01*
X603319Y1222467D01*
X603028Y1222540D01*
X602882Y1222613D01*
X602809D01*
X600841Y1223342D01*
X598945Y1224217D01*
X597196Y1225091D01*
X595665Y1226039D01*
X595009Y1226477D01*
X594353Y1226841D01*
X593842Y1227206D01*
X593405Y1227497D01*
X593040Y1227789D01*
X592749Y1228007D01*
X592603Y1228080D01*
X592530Y1228153D01*
X591655Y1229028D01*
X591072Y1229757D01*
X590780Y1230122D01*
X590635Y1230340D01*
X590489Y1230486D01*
Y1230559D01*
X589979Y1231580D01*
X589687Y1232454D01*
X589541Y1232819D01*
Y1233111D01*
X589468Y1233256D01*
Y1233329D01*
X589395Y1233840D01*
Y1233985D01*
Y1234058D01*
X589322Y1234423D01*
Y1234641D01*
Y1234714D01*
Y1234787D01*
X589395Y1235443D01*
X589541Y1236026D01*
X589760Y1236464D01*
X589833Y1236537D01*
Y1236610D01*
X590052Y1236901D01*
X590416Y1237193D01*
X591145Y1237412D01*
X591510Y1237485D01*
X591801Y1237557D01*
X592676D01*
X593186Y1237412D01*
X594207Y1237120D01*
X594644Y1236974D01*
X594936Y1236828D01*
X595154Y1236755D01*
X595227Y1236683D01*
X595738Y1236391D01*
X596248Y1236099D01*
X596540Y1235808D01*
X596831Y1235516D01*
X597050Y1235297D01*
X597196Y1235079D01*
X597269Y1235006D01*
Y1234933D01*
X598143Y1234569D01*
X599018Y1234204D01*
X599674Y1233840D01*
X600330Y1233548D01*
X600768Y1233329D01*
X601132Y1233111D01*
X601351Y1233038D01*
X601424Y1232965D01*
X602590Y1232381D01*
X603611Y1231871D01*
X604048Y1231652D01*
X604413Y1231507D01*
X604631Y1231361D01*
X604704D01*
X605944Y1230851D01*
X606600Y1230632D01*
X607183Y1230486D01*
X607620Y1230340D01*
X607985Y1230195D01*
X608277Y1230122D01*
X608349D01*
X609807Y1229903D01*
X610463Y1229757D01*
X611047D01*
X611557Y1229684D01*
X612359D01*
X613598Y1229757D01*
X614619Y1229903D01*
X615494Y1230049D01*
X616295Y1230340D01*
X616879Y1230559D01*
X617243Y1230705D01*
X617535Y1230851D01*
X617608Y1230924D01*
X618191Y1231434D01*
X618628Y1232017D01*
X618993Y1232600D01*
X619212Y1233183D01*
X619357Y1233694D01*
X619430Y1234058D01*
Y1234350D01*
Y1234423D01*
X619357Y1235297D01*
X619284Y1236026D01*
X619212Y1236318D01*
Y1236537D01*
X619139Y1236683D01*
Y1236755D01*
X619066Y1237120D01*
X618920Y1237485D01*
X618847Y1237922D01*
X618774Y1238141D01*
Y1238214D01*
X618191Y1238286D01*
X617462Y1238359D01*
X616150Y1238505D01*
X615567Y1238578D01*
X615129D01*
X614837Y1238651D01*
X614692D01*
X612723Y1238943D01*
X611776Y1239161D01*
X610974Y1239307D01*
X610245Y1239453D01*
X609735Y1239599D01*
X609370Y1239671D01*
X609224D01*
X607110Y1240182D01*
X606090Y1240473D01*
X605215Y1240765D01*
X604486Y1240984D01*
X603903Y1241202D01*
X603538Y1241275D01*
X603392Y1241348D01*
X602299Y1241786D01*
X601351Y1242150D01*
X600403Y1242588D01*
X599601Y1243025D01*
X598945Y1243389D01*
X598435Y1243681D01*
X598143Y1243827D01*
X597998Y1243900D01*
X597050Y1244483D01*
X596248Y1245139D01*
X595446Y1245722D01*
X594790Y1246305D01*
X594280Y1246816D01*
X593915Y1247180D01*
X593624Y1247472D01*
X593551Y1247545D01*
X592895Y1248347D01*
X592311Y1249221D01*
X591874Y1250096D01*
X591510Y1250898D01*
X591291Y1251627D01*
X591072Y1252137D01*
X590926Y1252502D01*
Y1252648D01*
X590635Y1253741D01*
X590562Y1254762D01*
X590489Y1255199D01*
Y1255491D01*
Y1255709D01*
Y1255782D01*
X590635Y1257240D01*
X590708Y1257897D01*
X590853Y1258480D01*
X590999Y1258917D01*
X591072Y1259282D01*
X591218Y1259500D01*
Y1259573D01*
X591874Y1260812D01*
X592239Y1261396D01*
X592603Y1261833D01*
X592895Y1262198D01*
X593186Y1262489D01*
X593332Y1262635D01*
X593405Y1262708D01*
X593988Y1263145D01*
X594571Y1263583D01*
X595811Y1264239D01*
X596321Y1264457D01*
X596758Y1264603D01*
X597050Y1264749D01*
X597123D01*
X598799Y1265187D01*
X599674Y1265332D01*
X600476Y1265405D01*
X601132Y1265478D01*
X602153D01*
X603392Y1265405D01*
D02*
G37*
G36*
X556007D02*
X557174Y1265332D01*
X558194Y1265114D01*
X559142Y1264895D01*
X559944Y1264676D01*
X560600Y1264530D01*
X560964Y1264385D01*
X561110Y1264312D01*
X562204Y1263874D01*
X563224Y1263364D01*
X564172Y1262927D01*
X564974Y1262416D01*
X565703Y1262052D01*
X566213Y1261687D01*
X566505Y1261469D01*
X566651Y1261396D01*
X567525Y1260740D01*
X568400Y1260011D01*
X569202Y1259354D01*
X569858Y1258771D01*
X570441Y1258261D01*
X570879Y1257824D01*
X571170Y1257532D01*
X571243Y1257459D01*
X571972Y1256657D01*
X572701Y1255928D01*
X573357Y1255199D01*
X573868Y1254543D01*
X574305Y1254033D01*
X574670Y1253595D01*
X574888Y1253304D01*
X574961Y1253231D01*
X576055Y1251773D01*
X576565Y1251117D01*
X576929Y1250534D01*
X577294Y1250023D01*
X577513Y1249659D01*
X577659Y1249440D01*
X577731Y1249367D01*
X578096Y1248711D01*
X578388Y1248201D01*
X578679Y1247763D01*
X578825Y1247472D01*
X578971Y1247180D01*
X579044Y1247034D01*
X579116Y1246889D01*
X579700Y1246670D01*
X580283Y1246378D01*
X580793Y1246014D01*
X581231Y1245649D01*
X581595Y1245358D01*
X581887Y1245066D01*
X582033Y1244847D01*
X582105Y1244774D01*
X582543Y1244118D01*
X582834Y1243462D01*
X583053Y1242806D01*
X583199Y1242223D01*
X583272Y1241640D01*
X583345Y1241202D01*
Y1240911D01*
Y1240838D01*
X583272Y1240328D01*
X583199Y1239890D01*
X582907Y1239234D01*
X582689Y1238797D01*
X582543Y1238724D01*
Y1238651D01*
X582251Y1238359D01*
X582033Y1238214D01*
X581814Y1237922D01*
X581668Y1237849D01*
X582033Y1236464D01*
X582105Y1235808D01*
X582178Y1235152D01*
X582251Y1234569D01*
Y1234131D01*
Y1233840D01*
Y1233767D01*
X582178Y1232746D01*
X582105Y1231725D01*
X581960Y1230924D01*
X581814Y1230195D01*
X581668Y1229538D01*
X581595Y1229101D01*
X581449Y1228809D01*
Y1228736D01*
X581085Y1228007D01*
X580720Y1227351D01*
X580356Y1226768D01*
X579991Y1226258D01*
X579700Y1225821D01*
X579481Y1225529D01*
X579335Y1225310D01*
X579262Y1225237D01*
X578169Y1224290D01*
X577221Y1223561D01*
X576784Y1223269D01*
X576492Y1223050D01*
X576273Y1222977D01*
X576201Y1222905D01*
X574888Y1222394D01*
X574305Y1222176D01*
X573795Y1222030D01*
X573357Y1221884D01*
X572993Y1221811D01*
X572774Y1221738D01*
X572701D01*
X571462Y1221447D01*
X570879Y1221374D01*
X570369Y1221301D01*
X570004Y1221228D01*
X569712Y1221155D01*
X569421D01*
X568327Y1221082D01*
X567817D01*
X567452Y1221009D01*
X566651D01*
X564464Y1221082D01*
X562350Y1221228D01*
X560454Y1221519D01*
X558777Y1221811D01*
X558048Y1221957D01*
X557392Y1222103D01*
X556809Y1222248D01*
X556299Y1222394D01*
X555934Y1222467D01*
X555643Y1222540D01*
X555497Y1222613D01*
X555424D01*
X553456Y1223342D01*
X551560Y1224217D01*
X549811Y1225091D01*
X548280Y1226039D01*
X547624Y1226477D01*
X546968Y1226841D01*
X546457Y1227206D01*
X546020Y1227497D01*
X545655Y1227789D01*
X545364Y1228007D01*
X545218Y1228080D01*
X545145Y1228153D01*
X544270Y1229028D01*
X543687Y1229757D01*
X543395Y1230122D01*
X543250Y1230340D01*
X543104Y1230486D01*
Y1230559D01*
X542594Y1231580D01*
X542302Y1232454D01*
X542156Y1232819D01*
Y1233111D01*
X542083Y1233256D01*
Y1233329D01*
X542010Y1233840D01*
Y1233985D01*
Y1234058D01*
X541938Y1234423D01*
Y1234641D01*
Y1234714D01*
Y1234787D01*
X542010Y1235443D01*
X542156Y1236026D01*
X542375Y1236464D01*
X542448Y1236537D01*
Y1236610D01*
X542667Y1236901D01*
X543031Y1237193D01*
X543760Y1237412D01*
X544125Y1237485D01*
X544416Y1237557D01*
X545291D01*
X545801Y1237412D01*
X546822Y1237120D01*
X547259Y1236974D01*
X547551Y1236828D01*
X547769Y1236755D01*
X547842Y1236683D01*
X548353Y1236391D01*
X548863Y1236099D01*
X549155Y1235808D01*
X549446Y1235516D01*
X549665Y1235297D01*
X549811Y1235079D01*
X549884Y1235006D01*
Y1234933D01*
X550758Y1234569D01*
X551633Y1234204D01*
X552289Y1233840D01*
X552945Y1233548D01*
X553383Y1233329D01*
X553747Y1233111D01*
X553966Y1233038D01*
X554039Y1232965D01*
X555205Y1232381D01*
X556226Y1231871D01*
X556663Y1231652D01*
X557028Y1231507D01*
X557246Y1231361D01*
X557319D01*
X558559Y1230851D01*
X559215Y1230632D01*
X559798Y1230486D01*
X560235Y1230340D01*
X560600Y1230195D01*
X560891Y1230122D01*
X560964D01*
X562422Y1229903D01*
X563078Y1229757D01*
X563662D01*
X564172Y1229684D01*
X564974D01*
X566213Y1229757D01*
X567234Y1229903D01*
X568109Y1230049D01*
X568910Y1230340D01*
X569494Y1230559D01*
X569858Y1230705D01*
X570150Y1230851D01*
X570223Y1230924D01*
X570806Y1231434D01*
X571243Y1232017D01*
X571608Y1232600D01*
X571827Y1233183D01*
X571972Y1233694D01*
X572045Y1234058D01*
Y1234350D01*
Y1234423D01*
X571972Y1235297D01*
X571899Y1236026D01*
X571827Y1236318D01*
Y1236537D01*
X571754Y1236683D01*
Y1236755D01*
X571681Y1237120D01*
X571535Y1237485D01*
X571462Y1237922D01*
X571389Y1238141D01*
Y1238214D01*
X570806Y1238286D01*
X570077Y1238359D01*
X568765Y1238505D01*
X568182Y1238578D01*
X567744D01*
X567452Y1238651D01*
X567307D01*
X565338Y1238943D01*
X564391Y1239161D01*
X563589Y1239307D01*
X562860Y1239453D01*
X562350Y1239599D01*
X561985Y1239671D01*
X561839D01*
X559725Y1240182D01*
X558705Y1240473D01*
X557830Y1240765D01*
X557101Y1240984D01*
X556518Y1241202D01*
X556153Y1241275D01*
X556007Y1241348D01*
X554914Y1241786D01*
X553966Y1242150D01*
X553018Y1242588D01*
X552216Y1243025D01*
X551560Y1243389D01*
X551050Y1243681D01*
X550758Y1243827D01*
X550613Y1243900D01*
X549665Y1244483D01*
X548863Y1245139D01*
X548061Y1245722D01*
X547405Y1246305D01*
X546895Y1246816D01*
X546530Y1247180D01*
X546239Y1247472D01*
X546166Y1247545D01*
X545510Y1248347D01*
X544926Y1249221D01*
X544489Y1250096D01*
X544125Y1250898D01*
X543906Y1251627D01*
X543687Y1252137D01*
X543541Y1252502D01*
Y1252648D01*
X543250Y1253741D01*
X543177Y1254762D01*
X543104Y1255199D01*
Y1255491D01*
Y1255709D01*
Y1255782D01*
X543250Y1257240D01*
X543323Y1257897D01*
X543468Y1258480D01*
X543614Y1258917D01*
X543687Y1259282D01*
X543833Y1259500D01*
Y1259573D01*
X544489Y1260812D01*
X544854Y1261396D01*
X545218Y1261833D01*
X545510Y1262198D01*
X545801Y1262489D01*
X545947Y1262635D01*
X546020Y1262708D01*
X546603Y1263145D01*
X547186Y1263583D01*
X548426Y1264239D01*
X548936Y1264457D01*
X549373Y1264603D01*
X549665Y1264749D01*
X549738D01*
X551414Y1265187D01*
X552289Y1265332D01*
X553091Y1265405D01*
X553747Y1265478D01*
X554768D01*
X556007Y1265405D01*
D02*
G37*
G36*
X630803Y1298866D02*
X631532Y1298720D01*
X631823Y1298575D01*
X632042Y1298502D01*
X632115Y1298429D01*
X632188D01*
X632844Y1298064D01*
X633354Y1297627D01*
X633719Y1297335D01*
X633864Y1297263D01*
Y1297190D01*
X634302Y1296606D01*
X634666Y1296096D01*
X634958Y1295732D01*
X635031Y1295659D01*
Y1295586D01*
X635322Y1294930D01*
X635541Y1294419D01*
X635687Y1294055D01*
Y1293982D01*
Y1293909D01*
X636926Y1288952D01*
X637364Y1287931D01*
X637801Y1286984D01*
X638020Y1286619D01*
X638165Y1286328D01*
X638238Y1286109D01*
X638311Y1286036D01*
X638894Y1284942D01*
X639405Y1283995D01*
X639624Y1283557D01*
X639769Y1283266D01*
X639842Y1283120D01*
X639915Y1283047D01*
X640571Y1281881D01*
X641227Y1280787D01*
X641519Y1280350D01*
X641738Y1279985D01*
X641883Y1279694D01*
X641956Y1279621D01*
X642831Y1278236D01*
X643269Y1277580D01*
X643633Y1276996D01*
X643925Y1276559D01*
X644216Y1276194D01*
X644362Y1275903D01*
X644435Y1275830D01*
X645820Y1273789D01*
X647205Y1271820D01*
X648590Y1269925D01*
X649830Y1268175D01*
X650340Y1267373D01*
X650850Y1266645D01*
X651360Y1266061D01*
X651725Y1265478D01*
X652016Y1265041D01*
X652235Y1264749D01*
X652381Y1264530D01*
X652454Y1264457D01*
X654058Y1262271D01*
X655516Y1260156D01*
X656901Y1258261D01*
X658140Y1256584D01*
X658650Y1255855D01*
X659161Y1255199D01*
X659598Y1254616D01*
X659963Y1254106D01*
X660254Y1253741D01*
X660473Y1253450D01*
X660546Y1253304D01*
X660619Y1253231D01*
X660910Y1252793D01*
X661056Y1252575D01*
X661129Y1252502D01*
X661275Y1252575D01*
X661494Y1252793D01*
X661712Y1253012D01*
X661785Y1253085D01*
X662150Y1253595D01*
X662587Y1254252D01*
X662806Y1254689D01*
X662952Y1254835D01*
Y1254908D01*
X663462Y1255928D01*
X663899Y1256876D01*
X664045Y1257313D01*
X664191Y1257605D01*
X664337Y1257824D01*
Y1257897D01*
X664847Y1259282D01*
X665066Y1260011D01*
X665211Y1260667D01*
X665430Y1261250D01*
X665503Y1261687D01*
X665649Y1261979D01*
Y1262052D01*
X665795Y1262635D01*
X666013Y1263364D01*
X666378Y1264749D01*
X666524Y1265405D01*
X666596Y1265916D01*
X666742Y1266207D01*
Y1266353D01*
X667253Y1268540D01*
X667471Y1269561D01*
X667690Y1270508D01*
X667836Y1271310D01*
X667982Y1271966D01*
X668127Y1272331D01*
Y1272476D01*
X668346Y1273643D01*
X668638Y1274736D01*
X668856Y1275757D01*
X669002Y1276705D01*
X669221Y1277434D01*
X669294Y1277944D01*
X669440Y1278309D01*
Y1278454D01*
X669658Y1279475D01*
X669877Y1280350D01*
X670096Y1281152D01*
X670241Y1281881D01*
X670387Y1282391D01*
X670460Y1282828D01*
X670533Y1283047D01*
Y1283120D01*
X670898Y1284432D01*
X671116Y1284942D01*
X671262Y1285526D01*
X671408Y1285890D01*
X671554Y1286255D01*
X671699Y1286473D01*
Y1286546D01*
X672210Y1287785D01*
X672501Y1288369D01*
X672793Y1288806D01*
X673012Y1289171D01*
X673230Y1289535D01*
X673303Y1289681D01*
X673376Y1289754D01*
X674105Y1290847D01*
X674907Y1291649D01*
X675199Y1291941D01*
X675490Y1292159D01*
X675636Y1292305D01*
X675709Y1292378D01*
X676219Y1292743D01*
X676803Y1293034D01*
X677313Y1293253D01*
X677750Y1293399D01*
X678188Y1293472D01*
X678479Y1293545D01*
X678771D01*
X679354Y1293472D01*
X679864Y1293399D01*
X680302Y1293253D01*
X680739Y1293107D01*
X681031Y1292889D01*
X681249Y1292743D01*
X681395Y1292670D01*
X681468Y1292597D01*
X682197Y1291868D01*
X682780Y1291212D01*
X682926Y1290920D01*
X683072Y1290701D01*
X683218Y1290556D01*
Y1290483D01*
X683582Y1289608D01*
X683801Y1288879D01*
X683947Y1288514D01*
Y1288296D01*
X684020Y1288150D01*
Y1288077D01*
X684165Y1287202D01*
X684238Y1286473D01*
Y1286182D01*
Y1285963D01*
Y1285890D01*
Y1285817D01*
Y1285015D01*
X684165Y1284213D01*
X684020Y1283557D01*
X683874Y1282901D01*
X683801Y1282464D01*
X683655Y1282026D01*
X683582Y1281808D01*
Y1281735D01*
X683072Y1280423D01*
X682780Y1279839D01*
X682562Y1279329D01*
X682343Y1278892D01*
X682124Y1278527D01*
X682051Y1278309D01*
X681978Y1278236D01*
X681614Y1277507D01*
X681249Y1276705D01*
X680958Y1275903D01*
X680666Y1275174D01*
X680520Y1274518D01*
X680375Y1274007D01*
X680229Y1273716D01*
Y1273570D01*
X679646Y1271456D01*
X679354Y1270362D01*
X679135Y1269415D01*
X678917Y1268613D01*
X678698Y1267957D01*
X678625Y1267519D01*
X678552Y1267446D01*
Y1267373D01*
X677969Y1265114D01*
X677677Y1264093D01*
X677386Y1263145D01*
X677167Y1262343D01*
X677021Y1261760D01*
X676948Y1261323D01*
X676875Y1261250D01*
Y1261177D01*
X676146Y1258844D01*
X675782Y1257751D01*
X675417Y1256803D01*
X675126Y1256001D01*
X674907Y1255345D01*
X674761Y1254908D01*
X674688Y1254835D01*
Y1254762D01*
X674178Y1253523D01*
X673741Y1252356D01*
X673230Y1251335D01*
X672866Y1250388D01*
X672501Y1249586D01*
X672210Y1248930D01*
X671991Y1248565D01*
X671918Y1248419D01*
X671335Y1247326D01*
X670679Y1246305D01*
X670096Y1245431D01*
X669585Y1244702D01*
X669148Y1244045D01*
X668784Y1243608D01*
X668565Y1243244D01*
X668492Y1243171D01*
X668565D01*
X668638Y1243025D01*
X668711Y1242952D01*
Y1242879D01*
X668784Y1242588D01*
X668929Y1242369D01*
X669002Y1242150D01*
X669075Y1242077D01*
X669294Y1241713D01*
X669658Y1241202D01*
X669877Y1240838D01*
X670023Y1240765D01*
Y1240692D01*
X670606Y1239963D01*
X671262Y1239161D01*
X671554Y1238797D01*
X671772Y1238578D01*
X671918Y1238359D01*
X671991Y1238286D01*
X672939Y1237193D01*
X673886Y1236099D01*
X674761Y1235079D01*
X675563Y1234204D01*
X676219Y1233475D01*
X676730Y1232892D01*
X677021Y1232527D01*
X677167Y1232381D01*
X678188Y1231288D01*
X679208Y1230195D01*
X680302Y1229247D01*
X681249Y1228299D01*
X682124Y1227497D01*
X682780Y1226914D01*
X683291Y1226550D01*
X683364Y1226477D01*
X683436Y1226404D01*
X684457Y1225310D01*
X685332Y1224362D01*
X685696Y1223998D01*
X685988Y1223706D01*
X686134Y1223561D01*
X686207Y1223488D01*
X687154Y1222467D01*
X687956Y1221665D01*
X688248Y1221301D01*
X688466Y1221082D01*
X688612Y1220936D01*
X688685Y1220863D01*
X689341Y1219916D01*
X689924Y1219114D01*
X690070Y1218749D01*
X690216Y1218531D01*
X690362Y1218385D01*
Y1218312D01*
X690726Y1217364D01*
X690872Y1216562D01*
X690945Y1216198D01*
Y1215906D01*
Y1215760D01*
Y1215687D01*
Y1215104D01*
X690872Y1214594D01*
X690799Y1214229D01*
Y1214157D01*
Y1214084D01*
X690581Y1213500D01*
X690435Y1212990D01*
X690289Y1212626D01*
X690216Y1212480D01*
X689852Y1211969D01*
X689487Y1211605D01*
X689196Y1211386D01*
X689050Y1211313D01*
X688394Y1211022D01*
X687810Y1210876D01*
X687300Y1210803D01*
X687154D01*
X686498Y1210876D01*
X685842Y1210949D01*
X685259Y1211168D01*
X684822Y1211386D01*
X684384Y1211532D01*
X684092Y1211751D01*
X683874Y1211824D01*
X683801Y1211897D01*
X683291Y1212261D01*
X682853Y1212626D01*
X682562Y1212917D01*
X682343Y1213209D01*
X682051Y1213573D01*
X681978Y1213719D01*
X679791Y1215833D01*
X677604Y1217947D01*
X675563Y1219988D01*
X673814Y1221884D01*
X673012Y1222759D01*
X672283Y1223561D01*
X671627Y1224217D01*
X671043Y1224800D01*
X670606Y1225310D01*
X670314Y1225675D01*
X670096Y1225893D01*
X670023Y1225966D01*
X667763Y1228591D01*
X665503Y1231142D01*
X663389Y1233694D01*
X662441Y1234860D01*
X661494Y1235954D01*
X660692Y1236974D01*
X659963Y1237922D01*
X659234Y1238724D01*
X658723Y1239453D01*
X658213Y1239963D01*
X657921Y1240400D01*
X657703Y1240692D01*
X657630Y1240765D01*
X655005Y1244118D01*
X652454Y1247472D01*
X651215Y1249076D01*
X650121Y1250679D01*
X649028Y1252137D01*
X648007Y1253523D01*
X647059Y1254835D01*
X646184Y1256001D01*
X645456Y1257022D01*
X644799Y1257897D01*
X644289Y1258626D01*
X643925Y1259136D01*
X643706Y1259427D01*
X643633Y1259573D01*
X641082Y1263218D01*
X638603Y1266790D01*
X637437Y1268467D01*
X636270Y1270071D01*
X635177Y1271529D01*
X634229Y1272987D01*
X633281Y1274226D01*
X632479Y1275392D01*
X631750Y1276486D01*
X631167Y1277288D01*
X630657Y1278017D01*
X630292Y1278527D01*
X630074Y1278892D01*
X630001Y1278965D01*
X629272Y1280058D01*
X628616Y1281079D01*
X628397Y1281516D01*
X628178Y1281808D01*
X628105Y1282026D01*
X628032Y1282099D01*
X627376Y1283339D01*
X627085Y1283922D01*
X626793Y1284432D01*
X626574Y1284870D01*
X626429Y1285234D01*
X626283Y1285453D01*
Y1285526D01*
X625700Y1286838D01*
X625481Y1287494D01*
X625262Y1288004D01*
X625116Y1288442D01*
X624971Y1288806D01*
X624898Y1289025D01*
Y1289098D01*
X624606Y1290337D01*
X624533Y1290847D01*
X624460Y1291358D01*
X624387Y1291722D01*
Y1292014D01*
Y1292159D01*
Y1292232D01*
X624460Y1293107D01*
X624533Y1293836D01*
X624606Y1294128D01*
X624679Y1294347D01*
X624752Y1294492D01*
Y1294565D01*
X625043Y1295440D01*
X625335Y1296096D01*
X625481Y1296388D01*
X625554Y1296606D01*
X625700Y1296679D01*
Y1296752D01*
X626283Y1297408D01*
X626793Y1297846D01*
X627231Y1298210D01*
X627376Y1298283D01*
X627449D01*
X628324Y1298648D01*
X629126Y1298866D01*
X629490Y1298939D01*
X630001D01*
X630803Y1298866D01*
D02*
G37*
%LPC*%
G36*
X603830Y1256220D02*
X603538D01*
X602882Y1256147D01*
X602444Y1256001D01*
X602080Y1255855D01*
X602007Y1255782D01*
X601643Y1255418D01*
X601424Y1255053D01*
X601351Y1254762D01*
Y1254689D01*
Y1254616D01*
Y1254397D01*
Y1254324D01*
Y1254179D01*
Y1254106D01*
X601497Y1253668D01*
X601716Y1253231D01*
X602226Y1252575D01*
X602517Y1252283D01*
X602663Y1252064D01*
X602809Y1251919D01*
X602882Y1251846D01*
X603319Y1251481D01*
X603830Y1251117D01*
X604850Y1250534D01*
X605288Y1250315D01*
X605652Y1250096D01*
X605871Y1250023D01*
X605944Y1249950D01*
X606746Y1249659D01*
X607548Y1249367D01*
X608277Y1249076D01*
X609078Y1248857D01*
X609735Y1248711D01*
X610245Y1248565D01*
X610536Y1248419D01*
X610682D01*
X611630Y1248201D01*
X612578Y1248055D01*
X613380Y1247909D01*
X614109Y1247763D01*
X614765Y1247690D01*
X615202Y1247618D01*
X615494Y1247545D01*
X615567D01*
X615275Y1247618D01*
X614983Y1247836D01*
X614692Y1248128D01*
X614400Y1248492D01*
X614109Y1248784D01*
X613890Y1249076D01*
X613744Y1249294D01*
X613671Y1249367D01*
X612650Y1250607D01*
X612140Y1251190D01*
X611703Y1251700D01*
X611265Y1252064D01*
X610974Y1252356D01*
X610755Y1252575D01*
X610682Y1252648D01*
X609443Y1253741D01*
X608860Y1254179D01*
X608277Y1254543D01*
X607839Y1254835D01*
X607475Y1255053D01*
X607256Y1255126D01*
X607183Y1255199D01*
X606454Y1255564D01*
X605798Y1255782D01*
X605215Y1256001D01*
X604631Y1256074D01*
X604194Y1256147D01*
X603830Y1256220D01*
D02*
G37*
G36*
X556445D02*
X556153D01*
X555497Y1256147D01*
X555059Y1256001D01*
X554695Y1255855D01*
X554622Y1255782D01*
X554258Y1255418D01*
X554039Y1255053D01*
X553966Y1254762D01*
Y1254689D01*
Y1254616D01*
Y1254397D01*
Y1254324D01*
Y1254179D01*
Y1254106D01*
X554112Y1253668D01*
X554331Y1253231D01*
X554841Y1252575D01*
X555132Y1252283D01*
X555278Y1252064D01*
X555424Y1251919D01*
X555497Y1251846D01*
X555934Y1251481D01*
X556445Y1251117D01*
X557465Y1250534D01*
X557903Y1250315D01*
X558267Y1250096D01*
X558486Y1250023D01*
X558559Y1249950D01*
X559361Y1249659D01*
X560163Y1249367D01*
X560891Y1249076D01*
X561693Y1248857D01*
X562350Y1248711D01*
X562860Y1248565D01*
X563151Y1248419D01*
X563297D01*
X564245Y1248201D01*
X565193Y1248055D01*
X565995Y1247909D01*
X566723Y1247763D01*
X567380Y1247690D01*
X567817Y1247618D01*
X568109Y1247545D01*
X568182D01*
X567890Y1247618D01*
X567598Y1247836D01*
X567307Y1248128D01*
X567015Y1248492D01*
X566723Y1248784D01*
X566505Y1249076D01*
X566359Y1249294D01*
X566286Y1249367D01*
X565265Y1250607D01*
X564755Y1251190D01*
X564318Y1251700D01*
X563880Y1252064D01*
X563589Y1252356D01*
X563370Y1252575D01*
X563297Y1252648D01*
X562058Y1253741D01*
X561475Y1254179D01*
X560891Y1254543D01*
X560454Y1254835D01*
X560090Y1255053D01*
X559871Y1255126D01*
X559798Y1255199D01*
X559069Y1255564D01*
X558413Y1255782D01*
X557830Y1256001D01*
X557246Y1256074D01*
X556809Y1256147D01*
X556445Y1256220D01*
D02*
G37*
%LPD*%
%TF.MD5,a0043c999202c4fd9d149c1284b65d97*%
M02*
