%TF.GenerationSoftware,Altium Limited,Altium Designer,20.0.10 (225)*%
G04 Layer_Color=255*
%FSLAX26Y26*%
%MOIN*%
%TF.FileFunction,Pads,Top*%
%TF.Part,Single*%
G01*
G75*
%TA.AperFunction,SMDPad,CuDef*%
%ADD10R,0.030000X0.032000*%
%ADD11R,0.023622X0.021654*%
%ADD12R,0.023622X0.019685*%
%ADD13C,0.039370*%
%ADD14R,0.029528X0.031496*%
%ADD15R,0.031496X0.039370*%
%ADD16R,0.019685X0.023622*%
%ADD17R,0.025591X0.019685*%
%ADD18R,0.027559X0.019685*%
%ADD19R,0.021654X0.023622*%
%ADD20R,0.033465X0.055118*%
%ADD21R,0.019685X0.025591*%
%TA.AperFunction,ConnectorPad*%
%ADD22R,0.023622X0.057087*%
%ADD23R,0.011811X0.057087*%
%TA.AperFunction,SMDPad,CuDef*%
G04:AMPARAMS|DCode=24|XSize=23.622mil|YSize=9.842mil|CornerRadius=1.968mil|HoleSize=0mil|Usage=FLASHONLY|Rotation=90.000|XOffset=0mil|YOffset=0mil|HoleType=Round|Shape=RoundedRectangle|*
%AMROUNDEDRECTD24*
21,1,0.023622,0.005906,0,0,90.0*
21,1,0.019685,0.009842,0,0,90.0*
1,1,0.003937,0.002953,0.009842*
1,1,0.003937,0.002953,-0.009842*
1,1,0.003937,-0.002953,-0.009842*
1,1,0.003937,-0.002953,0.009842*
%
%ADD24ROUNDEDRECTD24*%
%ADD25R,0.035433X0.031496*%
%ADD26R,0.024000X0.022000*%
%ADD27R,0.010236X0.031890*%
%ADD28R,0.031890X0.010236*%
%ADD29R,0.105512X0.105512*%
%ADD30R,0.022000X0.024000*%
%TA.AperFunction,ConnectorPad*%
%ADD31R,0.023622X0.011811*%
%TA.AperFunction,SMDPad,CuDef*%
%ADD32R,0.011811X0.011811*%
%TA.AperFunction,ConnectorPad*%
%ADD33R,0.011811X0.023622*%
%TA.AperFunction,SMDPad,CuDef*%
%ADD34R,0.045276X0.041339*%
%ADD35R,0.039370X0.070866*%
%ADD36R,0.019685X0.027559*%
%ADD37R,0.070866X0.047244*%
%ADD38R,0.061024X0.023622*%
%ADD39R,0.094488X0.029921*%
%TA.AperFunction,ComponentPad*%
%ADD45O,0.039370X0.062992*%
%ADD46O,0.039370X0.082677*%
%ADD47C,0.025591*%
%ADD48C,0.090000*%
%ADD49C,0.140000*%
%ADD50R,0.059370X0.059370*%
%ADD51C,0.059370*%
D10*
X419547Y866913D02*
D03*
X474547D02*
D03*
D11*
X427362Y914253D02*
D03*
X466732D02*
D03*
D12*
X464378Y722016D02*
D03*
X503748D02*
D03*
D13*
X834457Y815638D02*
D03*
X914367Y722009D02*
D03*
X778354Y1662596D02*
D03*
D14*
X865953Y545173D02*
D03*
X812804D02*
D03*
X834457Y1591088D02*
D03*
X781308D02*
D03*
X785245Y1350025D02*
D03*
X838394D02*
D03*
D15*
X635075Y1001968D02*
D03*
X678382D02*
D03*
X635075Y1061024D02*
D03*
X678382D02*
D03*
D16*
X401575Y2047244D02*
D03*
Y2007874D02*
D03*
D17*
X488284Y2049212D02*
D03*
X450882D02*
D03*
X802165Y1860236D02*
D03*
X764764D02*
D03*
D18*
X523622Y761386D02*
D03*
Y800756D02*
D03*
X440158Y1210803D02*
D03*
Y1250173D02*
D03*
X484063Y1210803D02*
D03*
Y1250173D02*
D03*
X527968Y1210803D02*
D03*
Y1250173D02*
D03*
D19*
X748028Y533465D02*
D03*
Y572835D02*
D03*
X602126Y531516D02*
D03*
Y570886D02*
D03*
D20*
X842331Y1530559D02*
D03*
X773433D02*
D03*
D21*
X836614Y1898622D02*
D03*
Y1861220D02*
D03*
D22*
X793701Y446654D02*
D03*
X762205D02*
D03*
X569291D02*
D03*
X537795D02*
D03*
D23*
X655905D02*
D03*
X636221D02*
D03*
X616535D02*
D03*
X596850D02*
D03*
X734646D02*
D03*
X714961D02*
D03*
X695276D02*
D03*
X675591D02*
D03*
D24*
X778354Y1455501D02*
D03*
X798040D02*
D03*
X817724D02*
D03*
X837410D02*
D03*
Y1404321D02*
D03*
X817724D02*
D03*
X798040D02*
D03*
X778354D02*
D03*
D25*
X888981Y1455501D02*
D03*
Y1404320D02*
D03*
D26*
X655905Y909216D02*
D03*
Y876216D02*
D03*
X488736Y1753544D02*
D03*
Y1720544D02*
D03*
X527559Y1703775D02*
D03*
Y1736775D02*
D03*
D27*
X615991Y674575D02*
D03*
X635676D02*
D03*
X655361D02*
D03*
X675046D02*
D03*
X694731D02*
D03*
X714416D02*
D03*
Y828512D02*
D03*
X694731D02*
D03*
X675046D02*
D03*
X655361D02*
D03*
X635676D02*
D03*
X615991D02*
D03*
D28*
X742172Y702331D02*
D03*
Y722016D02*
D03*
Y741701D02*
D03*
Y761386D02*
D03*
Y781071D02*
D03*
Y800756D02*
D03*
X588235D02*
D03*
Y781071D02*
D03*
Y761386D02*
D03*
Y741701D02*
D03*
Y722016D02*
D03*
Y702331D02*
D03*
D29*
X665204Y751543D02*
D03*
D30*
X778705Y645173D02*
D03*
X745705D02*
D03*
X721224Y1860236D02*
D03*
X688224D02*
D03*
X896418Y1187181D02*
D03*
X863418D02*
D03*
X592662Y1658071D02*
D03*
X625662D02*
D03*
X648855D02*
D03*
X681855D02*
D03*
D31*
X704725Y1970473D02*
D03*
X665355D02*
D03*
X625984D02*
D03*
X704725Y1996063D02*
D03*
X665355D02*
D03*
X625984D02*
D03*
X779528Y1919291D02*
D03*
Y1944882D02*
D03*
Y1970473D02*
D03*
Y1996063D02*
D03*
Y2021654D02*
D03*
X551181Y1919291D02*
D03*
Y1944882D02*
D03*
Y1970473D02*
D03*
Y1996063D02*
D03*
Y2021654D02*
D03*
X779528Y2047244D02*
D03*
Y2165354D02*
D03*
X551181Y2047244D02*
D03*
Y2165354D02*
D03*
D32*
X588583Y2007874D02*
D03*
Y1982284D02*
D03*
Y1956693D02*
D03*
D33*
X742126Y1920276D02*
D03*
X716536D02*
D03*
X690945D02*
D03*
X665355D02*
D03*
X639764D02*
D03*
X614173D02*
D03*
X588583D02*
D03*
X742126Y2047244D02*
D03*
X716536D02*
D03*
X690945D02*
D03*
X665355D02*
D03*
X639764D02*
D03*
X614173D02*
D03*
X588583D02*
D03*
D34*
X879918Y1061024D02*
D03*
Y1003940D02*
D03*
X748031Y1061024D02*
D03*
X748028Y1003937D02*
D03*
X433068D02*
D03*
X433071Y1061024D02*
D03*
X564957Y1003940D02*
D03*
Y1061024D02*
D03*
D35*
X686207Y1715390D02*
D03*
X587782D02*
D03*
D36*
X899603Y1222614D02*
D03*
X860233D02*
D03*
X860233Y1258047D02*
D03*
X899603D02*
D03*
D37*
X251197Y439882D02*
D03*
Y660354D02*
D03*
D38*
X403756Y609173D02*
D03*
Y569803D02*
D03*
Y530433D02*
D03*
Y491063D02*
D03*
D39*
X582677Y1606299D02*
D03*
Y1556299D02*
D03*
Y1506299D02*
D03*
Y1456299D02*
D03*
Y1406299D02*
D03*
X429134Y1606299D02*
D03*
Y1556299D02*
D03*
Y1506299D02*
D03*
Y1456299D02*
D03*
Y1406299D02*
D03*
D45*
X835827Y246063D02*
D03*
X495669D02*
D03*
D46*
X835827Y410630D02*
D03*
X495669D02*
D03*
D47*
X779528Y389764D02*
D03*
X551968D02*
D03*
D48*
X1031756Y2095173D02*
D03*
X281756D02*
D03*
D49*
X306756Y295173D02*
D03*
X1006756D02*
D03*
D50*
X1056756Y445173D02*
D03*
D51*
Y545173D02*
D03*
Y645173D02*
D03*
Y745173D02*
D03*
Y845173D02*
D03*
Y945173D02*
D03*
Y1045173D02*
D03*
Y1145173D02*
D03*
Y1245173D02*
D03*
Y1345173D02*
D03*
Y1445173D02*
D03*
Y1545173D02*
D03*
Y1645173D02*
D03*
Y1745173D02*
D03*
Y1845173D02*
D03*
Y1945173D02*
D03*
X256756Y845173D02*
D03*
Y945173D02*
D03*
Y1045173D02*
D03*
Y1145173D02*
D03*
Y1245173D02*
D03*
Y1345173D02*
D03*
Y1445173D02*
D03*
Y1545173D02*
D03*
Y1645173D02*
D03*
Y1745173D02*
D03*
Y1845173D02*
D03*
Y1945173D02*
D03*
%TF.MD5,f4a9cb98b0b2fb8c5a2a5a0d581e96c4*%
M02*
