%TF.GenerationSoftware,Altium Limited,Altium Designer,20.0.10 (225)*%
G04 Layer_Color=65535*
%FSLAX26Y26*%
%MOIN*%
%TF.FileFunction,Legend,Top*%
%TF.Part,Single*%
G01*
G75*
%TA.AperFunction,NonConductor*%
%ADD61C,0.005906*%
%ADD62C,0.007874*%
%ADD63C,0.010000*%
%ADD64C,0.005000*%
%ADD65C,0.006000*%
%ADD66C,0.011811*%
G36*
X1106469Y1505173D02*
X948989D01*
Y1682339D01*
X1106469D01*
Y1505173D01*
D02*
G37*
G36*
X1106583Y1110000D02*
X949103D01*
Y1293378D01*
X1106583D01*
Y1110000D01*
D02*
G37*
G36*
X341868Y807599D02*
X206693D01*
Y1295659D01*
X341868D01*
Y807599D01*
D02*
G37*
%LPC*%
G36*
X1007740Y1644684D02*
X968674D01*
X995537D01*
X993189Y1637286D01*
X993954Y1637095D01*
X994664Y1636876D01*
X995292Y1636631D01*
X995919Y1636385D01*
X996466Y1636139D01*
X996957Y1635866D01*
X997421Y1635593D01*
X997803Y1635348D01*
X998158Y1635102D01*
X998458Y1634883D01*
X998731Y1634665D01*
X998923Y1634474D01*
X999086Y1634338D01*
X999223Y1634228D01*
X999277Y1634146D01*
X999305Y1634119D01*
X999632Y1633710D01*
X999933Y1633273D01*
X1000178Y1632836D01*
X1000397Y1632372D01*
X1000588Y1631935D01*
X1000752Y1631498D01*
X1000888Y1631089D01*
X1000970Y1630707D01*
X1001052Y1630324D01*
X1001106Y1629969D01*
X1001161Y1629669D01*
X1001188Y1629424D01*
X1001216Y1629205D01*
Y1628905D01*
X1001188Y1628140D01*
X1001079Y1627431D01*
X1000943Y1626748D01*
X1000752Y1626120D01*
X1000506Y1625520D01*
X1000260Y1624974D01*
X999987Y1624482D01*
X999687Y1624018D01*
X999414Y1623609D01*
X999141Y1623254D01*
X998895Y1622926D01*
X998649Y1622680D01*
X998458Y1622489D01*
X998322Y1622325D01*
X998213Y1622244D01*
X998185Y1622216D01*
X997558Y1621752D01*
X996875Y1621370D01*
X996111Y1621015D01*
X995319Y1620742D01*
X994473Y1620496D01*
X993626Y1620278D01*
X992780Y1620114D01*
X991961Y1619978D01*
X991169Y1619869D01*
X990432Y1619787D01*
X989750Y1619732D01*
X989176Y1619705D01*
X988903Y1619677D01*
X988685D01*
X988494Y1619650D01*
X988303D01*
X988194D01*
X988084D01*
X988030D01*
X988003D01*
X986774Y1619677D01*
X985627Y1619759D01*
X984590Y1619896D01*
X983607Y1620060D01*
X982734Y1620251D01*
X981942Y1620469D01*
X981205Y1620715D01*
X980577Y1620960D01*
X980004Y1621179D01*
X979539Y1621425D01*
X979130Y1621643D01*
X978802Y1621834D01*
X978557Y1621998D01*
X978366Y1622134D01*
X978256Y1622216D01*
X978229Y1622244D01*
X977683Y1622762D01*
X977219Y1623281D01*
X976837Y1623854D01*
X976482Y1624400D01*
X976182Y1624974D01*
X975936Y1625547D01*
X975745Y1626093D01*
X975581Y1626639D01*
X975444Y1627130D01*
X975363Y1627594D01*
X975281Y1628004D01*
X975253Y1628359D01*
X975226Y1628632D01*
X975199Y1628850D01*
Y1629041D01*
X975226Y1629615D01*
X975281Y1630133D01*
X975363Y1630652D01*
X975472Y1631143D01*
X975608Y1631580D01*
X975745Y1632017D01*
X975909Y1632399D01*
X976045Y1632781D01*
X976209Y1633082D01*
X976373Y1633382D01*
X976509Y1633628D01*
X976646Y1633819D01*
X976755Y1633983D01*
X976837Y1634119D01*
X976891Y1634174D01*
X976919Y1634201D01*
X977246Y1634583D01*
X977601Y1634938D01*
X977983Y1635266D01*
X978366Y1635539D01*
X978748Y1635784D01*
X979130Y1636030D01*
X979867Y1636412D01*
X980195Y1636549D01*
X980522Y1636685D01*
X980795Y1636794D01*
X981041Y1636876D01*
X981259Y1636931D01*
X981396Y1636986D01*
X981505Y1637013D01*
X981532D01*
X979731Y1644575D01*
X978912Y1644329D01*
X978120Y1644029D01*
X977410Y1643729D01*
X976728Y1643428D01*
X976127Y1643101D01*
X975554Y1642773D01*
X975035Y1642446D01*
X974571Y1642145D01*
X974161Y1641845D01*
X973807Y1641572D01*
X973479Y1641326D01*
X973233Y1641108D01*
X973042Y1640944D01*
X972906Y1640808D01*
X972824Y1640726D01*
X972796Y1640698D01*
X972059Y1639852D01*
X971431Y1638978D01*
X970885Y1638050D01*
X970421Y1637122D01*
X970012Y1636167D01*
X969684Y1635238D01*
X969411Y1634310D01*
X969193Y1633437D01*
X969029Y1632618D01*
X968893Y1631853D01*
X968811Y1631198D01*
X968729Y1630597D01*
Y1630352D01*
X968701Y1630106D01*
Y1629915D01*
X968674Y1629751D01*
Y1611788D01*
Y1629451D01*
X968701Y1628714D01*
X968729Y1628004D01*
X968893Y1626612D01*
X969165Y1625329D01*
X969493Y1624100D01*
X969875Y1622953D01*
X970339Y1621916D01*
X970803Y1620933D01*
X971295Y1620060D01*
X971786Y1619295D01*
X972250Y1618613D01*
X972687Y1618012D01*
X973097Y1617521D01*
X973424Y1617139D01*
X973697Y1616866D01*
X973779Y1616784D01*
X973861Y1616702D01*
X973888Y1616674D01*
X973916Y1616647D01*
X974407Y1616210D01*
X974926Y1615801D01*
X976045Y1615036D01*
X977192Y1614409D01*
X978393Y1613835D01*
X979621Y1613371D01*
X980823Y1612962D01*
X982024Y1612661D01*
X983198Y1612388D01*
X984290Y1612197D01*
X985300Y1612033D01*
X985764Y1611979D01*
X986201Y1611924D01*
X986610Y1611897D01*
X986992Y1611870D01*
X987347Y1611842D01*
X987648Y1611815D01*
X987921D01*
X988139Y1611788D01*
X988548D01*
X989367Y1611815D01*
X990187Y1611842D01*
X991715Y1612006D01*
X993162Y1612225D01*
X994500Y1612552D01*
X995756Y1612907D01*
X996930Y1613316D01*
X997967Y1613753D01*
X998923Y1614217D01*
X999769Y1614654D01*
X1000506Y1615091D01*
X1000833Y1615309D01*
X1001134Y1615501D01*
X1001407Y1615692D01*
X1001653Y1615855D01*
X1001871Y1616019D01*
X1002062Y1616183D01*
X1002226Y1616292D01*
X1002362Y1616401D01*
X1002471Y1616511D01*
X1002553Y1616565D01*
X1002581Y1616620D01*
X1002608D01*
X1003072Y1617084D01*
X1003509Y1617548D01*
X1003918Y1618039D01*
X1004301Y1618531D01*
X1004983Y1619568D01*
X1005584Y1620578D01*
X1006075Y1621643D01*
X1006485Y1622653D01*
X1006840Y1623663D01*
X1007085Y1624619D01*
X1007304Y1625520D01*
X1007467Y1626339D01*
X1007577Y1627103D01*
X1007631Y1627431D01*
X1007659Y1627731D01*
X1007686Y1628004D01*
X1007713Y1628250D01*
Y1628468D01*
X1007740Y1628659D01*
Y1629205D01*
Y1628987D01*
X1007713Y1630106D01*
X1007604Y1631171D01*
X1007467Y1632181D01*
X1007276Y1633109D01*
X1007031Y1634010D01*
X1006785Y1634829D01*
X1006512Y1635593D01*
X1006239Y1636276D01*
X1005966Y1636904D01*
X1005693Y1637450D01*
X1005420Y1637914D01*
X1005202Y1638296D01*
X1005010Y1638596D01*
X1004874Y1638815D01*
X1004765Y1638951D01*
X1004737Y1639006D01*
X1004137Y1639716D01*
X1003482Y1640398D01*
X1002772Y1640999D01*
X1002035Y1641572D01*
X1001270Y1642091D01*
X1000506Y1642555D01*
X999741Y1642964D01*
X999004Y1643319D01*
X998322Y1643647D01*
X997667Y1643920D01*
X997066Y1644166D01*
X996547Y1644357D01*
X996138Y1644493D01*
X995947Y1644548D01*
X995810Y1644602D01*
X995701Y1644630D01*
X995619Y1644657D01*
X995565Y1644684D01*
X1007740D01*
D01*
D02*
G37*
G36*
X1007085Y1606819D02*
Y1588528D01*
X991033D01*
Y1604307D01*
X984645D01*
Y1588528D01*
X975690D01*
Y1606819D01*
X1007085D01*
X969302D01*
Y1580911D01*
X1007085D01*
Y1606819D01*
D02*
G37*
G36*
Y1572803D02*
X969302D01*
Y1542828D01*
X1007085D01*
Y1549899D01*
X982351D01*
X1007085Y1565159D01*
Y1572803D01*
D02*
G37*
%LPD*%
G36*
X969302Y1550226D02*
Y1565733D01*
X994609D01*
X969302Y1550226D01*
D02*
G37*
%LPC*%
G36*
X996498Y1273693D02*
X969416D01*
X996252D01*
X995651Y1273665D01*
X995078Y1273611D01*
X994505Y1273529D01*
X993986Y1273392D01*
X993467Y1273256D01*
X993003Y1273119D01*
X992567Y1272928D01*
X992157Y1272764D01*
X991802Y1272601D01*
X991475Y1272437D01*
X991202Y1272273D01*
X990983Y1272136D01*
X990792Y1272000D01*
X990655Y1271918D01*
X990574Y1271863D01*
X990546Y1271836D01*
X990110Y1271481D01*
X989700Y1271072D01*
X989318Y1270662D01*
X988990Y1270225D01*
X988690Y1269789D01*
X988390Y1269352D01*
X988144Y1268915D01*
X987926Y1268505D01*
X987734Y1268096D01*
X987571Y1267714D01*
X987434Y1267386D01*
X987325Y1267113D01*
X987243Y1266868D01*
X987188Y1266704D01*
X987134Y1266567D01*
Y1266540D01*
X986670Y1267414D01*
X986151Y1268178D01*
X985578Y1268833D01*
X985305Y1269106D01*
X985059Y1269379D01*
X984786Y1269598D01*
X984568Y1269816D01*
X984349Y1269980D01*
X984158Y1270143D01*
X984022Y1270253D01*
X983912Y1270335D01*
X983831Y1270362D01*
X983803Y1270389D01*
X983394Y1270635D01*
X982957Y1270881D01*
X982520Y1271072D01*
X982111Y1271236D01*
X981292Y1271481D01*
X980554Y1271645D01*
X980200Y1271727D01*
X979899Y1271754D01*
X979626Y1271782D01*
X979381Y1271809D01*
X979189Y1271836D01*
X979053D01*
X978971D01*
X978944D01*
X978480D01*
X978043Y1271782D01*
X977224Y1271645D01*
X976460Y1271454D01*
X976132Y1271372D01*
X975804Y1271263D01*
X975531Y1271154D01*
X975258Y1271044D01*
X975040Y1270935D01*
X974876Y1270853D01*
X974712Y1270771D01*
X974603Y1270717D01*
X974548Y1270689D01*
X974521Y1270662D01*
X973811Y1270198D01*
X973211Y1269734D01*
X972665Y1269243D01*
X972201Y1268778D01*
X971846Y1268369D01*
X971600Y1268069D01*
X971491Y1267932D01*
X971436Y1267850D01*
X971382Y1267796D01*
Y1267768D01*
X970972Y1267086D01*
X970617Y1266403D01*
X970344Y1265748D01*
X970126Y1265148D01*
X970044Y1264847D01*
X969989Y1264602D01*
X969935Y1264383D01*
X969880Y1264192D01*
X969853Y1264028D01*
X969826Y1263919D01*
X969798Y1263837D01*
Y1263810D01*
X969744Y1263373D01*
X969662Y1262909D01*
X969607Y1262390D01*
X969580Y1261844D01*
X969498Y1260752D01*
X969471Y1259660D01*
X969443Y1259142D01*
Y1258678D01*
X969416Y1258268D01*
Y1242052D01*
X1007199D01*
Y1257312D01*
Y1256794D01*
X1007172Y1257367D01*
Y1258459D01*
X1007145Y1258950D01*
Y1259415D01*
X1007117Y1260261D01*
Y1260998D01*
X1007090Y1261653D01*
X1007063Y1262226D01*
X1007035Y1262718D01*
Y1263100D01*
X1007008Y1263428D01*
X1006981Y1263673D01*
Y1263864D01*
X1006954Y1264001D01*
Y1264083D01*
X1006790Y1265175D01*
X1006681Y1265694D01*
X1006544Y1266185D01*
X1006408Y1266622D01*
X1006244Y1267059D01*
X1006107Y1267441D01*
X1005943Y1267796D01*
X1005807Y1268123D01*
X1005643Y1268396D01*
X1005534Y1268642D01*
X1005398Y1268833D01*
X1005316Y1268997D01*
X1005234Y1269133D01*
X1005206Y1269188D01*
X1005179Y1269215D01*
X1004578Y1269952D01*
X1003951Y1270608D01*
X1003295Y1271154D01*
X1002668Y1271645D01*
X1002121Y1272000D01*
X1001876Y1272164D01*
X1001685Y1272273D01*
X1001521Y1272355D01*
X1001384Y1272437D01*
X1001303Y1272491D01*
X1001275D01*
X1000811Y1272710D01*
X1000347Y1272901D01*
X999446Y1273174D01*
X998600Y1273392D01*
X998218Y1273474D01*
X997835Y1273556D01*
X997508Y1273583D01*
X997180Y1273638D01*
X996934Y1273665D01*
X996689D01*
X996498Y1273693D01*
D02*
G37*
G36*
X996552Y1235609D02*
X996225D01*
X995569Y1235582D01*
X994942Y1235554D01*
X994341Y1235473D01*
X993768Y1235363D01*
X993249Y1235254D01*
X992758Y1235118D01*
X992293Y1234981D01*
X991884Y1234845D01*
X991502Y1234708D01*
X991174Y1234572D01*
X990901Y1234435D01*
X990655Y1234326D01*
X990464Y1234217D01*
X990328Y1234135D01*
X990246Y1234108D01*
X990219Y1234080D01*
X989782Y1233780D01*
X989345Y1233480D01*
X988581Y1232797D01*
X988226Y1232442D01*
X987926Y1232087D01*
X987625Y1231760D01*
X987380Y1231432D01*
X987134Y1231104D01*
X986943Y1230832D01*
X986779Y1230559D01*
X986615Y1230340D01*
X986506Y1230149D01*
X986424Y1230013D01*
X986397Y1229931D01*
X986369Y1229903D01*
X986096Y1229385D01*
X985851Y1228784D01*
X985578Y1228156D01*
X985332Y1227501D01*
X984868Y1226136D01*
X984677Y1225453D01*
X984458Y1224798D01*
X984295Y1224170D01*
X984131Y1223597D01*
X983994Y1223051D01*
X983858Y1222587D01*
X983776Y1222205D01*
X983694Y1221932D01*
X983667Y1221822D01*
Y1221741D01*
X983639Y1221713D01*
Y1221686D01*
X983394Y1220703D01*
X983148Y1219775D01*
X982930Y1218983D01*
X982684Y1218246D01*
X982466Y1217591D01*
X982247Y1217018D01*
X982056Y1216526D01*
X981865Y1216090D01*
X981701Y1215735D01*
X981565Y1215434D01*
X981428Y1215189D01*
X981319Y1214997D01*
X981210Y1214834D01*
X981155Y1214752D01*
X981101Y1214697D01*
Y1214670D01*
X980718Y1214288D01*
X980336Y1214015D01*
X979954Y1213824D01*
X979599Y1213687D01*
X979271Y1213605D01*
X979026Y1213578D01*
X978862Y1213551D01*
X978835D01*
X978807D01*
X978534Y1213578D01*
X978289Y1213605D01*
X977824Y1213742D01*
X977442Y1213933D01*
X977115Y1214151D01*
X976842Y1214370D01*
X976651Y1214561D01*
X976514Y1214697D01*
X976487Y1214752D01*
X976241Y1215134D01*
X976023Y1215516D01*
X975832Y1215926D01*
X975668Y1216362D01*
X975422Y1217236D01*
X975258Y1218055D01*
X975204Y1218465D01*
X975176Y1218820D01*
X975149Y1219147D01*
X975122Y1219420D01*
X975095Y1219639D01*
Y1220539D01*
X975149Y1221113D01*
X975204Y1221604D01*
X975286Y1222068D01*
X975395Y1222505D01*
X975504Y1222915D01*
X975613Y1223269D01*
X975722Y1223597D01*
X975859Y1223870D01*
X975968Y1224116D01*
X976077Y1224334D01*
X976187Y1224498D01*
X976268Y1224634D01*
X976323Y1224716D01*
X976350Y1224771D01*
X976378Y1224798D01*
X976623Y1225099D01*
X976924Y1225344D01*
X977579Y1225808D01*
X978261Y1226163D01*
X978944Y1226464D01*
X979271Y1226573D01*
X979572Y1226655D01*
X979845Y1226736D01*
X980090Y1226791D01*
X980282Y1226846D01*
X980418Y1226873D01*
X980527Y1226900D01*
X980554D01*
X980227Y1234517D01*
X979271Y1234435D01*
X978370Y1234299D01*
X977524Y1234108D01*
X976732Y1233834D01*
X975995Y1233562D01*
X975313Y1233234D01*
X974685Y1232906D01*
X974139Y1232551D01*
X973620Y1232197D01*
X973183Y1231869D01*
X972801Y1231569D01*
X972501Y1231296D01*
X972255Y1231050D01*
X972064Y1230886D01*
X971955Y1230777D01*
X971928Y1230722D01*
X971382Y1230013D01*
X970890Y1229248D01*
X970481Y1228402D01*
X970099Y1227555D01*
X969798Y1226655D01*
X969553Y1225754D01*
X969334Y1224880D01*
X969170Y1224034D01*
X969061Y1223215D01*
X968952Y1222478D01*
X968870Y1221795D01*
X968843Y1221195D01*
X968816Y1220922D01*
Y1220703D01*
X968788Y1220512D01*
Y1220021D01*
X968816Y1219229D01*
X968843Y1218465D01*
X968897Y1217727D01*
X969007Y1217018D01*
X969088Y1216362D01*
X969198Y1215762D01*
X969334Y1215189D01*
X969443Y1214670D01*
X969580Y1214206D01*
X969689Y1213796D01*
X969826Y1213441D01*
X969908Y1213141D01*
X969989Y1212923D01*
X970071Y1212732D01*
X970099Y1212622D01*
X970126Y1212595D01*
X970372Y1212022D01*
X970672Y1211503D01*
X970972Y1211012D01*
X971273Y1210548D01*
X971600Y1210138D01*
X971900Y1209756D01*
X972228Y1209401D01*
X972528Y1209073D01*
X972829Y1208800D01*
X973074Y1208555D01*
X973320Y1208336D01*
X973538Y1208172D01*
X973702Y1208036D01*
X973839Y1207954D01*
X973921Y1207899D01*
X973948Y1207872D01*
X974412Y1207599D01*
X974903Y1207353D01*
X975367Y1207135D01*
X975859Y1206944D01*
X976323Y1206780D01*
X976760Y1206644D01*
X977197Y1206562D01*
X977579Y1206453D01*
X977961Y1206398D01*
X978316Y1206343D01*
X978616Y1206316D01*
X978862Y1206289D01*
X979080Y1206262D01*
X979217D01*
X979326D01*
X979353D01*
X980172Y1206289D01*
X980964Y1206398D01*
X981728Y1206589D01*
X982438Y1206807D01*
X983093Y1207053D01*
X983721Y1207353D01*
X984295Y1207681D01*
X984813Y1208009D01*
X985305Y1208309D01*
X985714Y1208637D01*
X986096Y1208937D01*
X986397Y1209183D01*
X986615Y1209401D01*
X986806Y1209592D01*
X986915Y1209701D01*
X986943Y1209729D01*
X987352Y1210247D01*
X987734Y1210821D01*
X988117Y1211448D01*
X988471Y1212131D01*
X988799Y1212813D01*
X989099Y1213551D01*
X989372Y1214260D01*
X989645Y1214970D01*
X989864Y1215625D01*
X990082Y1216253D01*
X990273Y1216827D01*
X990410Y1217345D01*
X990519Y1217755D01*
X990574Y1217919D01*
X990601Y1218055D01*
X990655Y1218164D01*
Y1218246D01*
X990683Y1218301D01*
Y1218328D01*
X990901Y1219174D01*
X991092Y1219966D01*
X991256Y1220676D01*
X991420Y1221304D01*
X991584Y1221877D01*
X991720Y1222369D01*
X991829Y1222805D01*
X991939Y1223188D01*
X992020Y1223488D01*
X992102Y1223761D01*
X992184Y1223979D01*
X992239Y1224170D01*
X992266Y1224280D01*
X992293Y1224389D01*
X992321Y1224416D01*
Y1224443D01*
X992457Y1224798D01*
X992594Y1225126D01*
X992867Y1225699D01*
X993167Y1226190D01*
X993413Y1226573D01*
X993659Y1226846D01*
X993822Y1227037D01*
X993932Y1227173D01*
X993986Y1227201D01*
X994341Y1227474D01*
X994723Y1227665D01*
X995105Y1227801D01*
X995460Y1227883D01*
X995788Y1227965D01*
X996034Y1227992D01*
X996197D01*
X996225D01*
X996252D01*
X996634Y1227965D01*
X997016Y1227910D01*
X997344Y1227829D01*
X997699Y1227692D01*
X998299Y1227392D01*
X998846Y1227064D01*
X999064Y1226873D01*
X999282Y1226709D01*
X999446Y1226545D01*
X999610Y1226409D01*
X999719Y1226272D01*
X999801Y1226190D01*
X999856Y1226136D01*
X999883Y1226109D01*
X1000156Y1225754D01*
X1000402Y1225344D01*
X1000593Y1224907D01*
X1000784Y1224471D01*
X1000920Y1224006D01*
X1001057Y1223542D01*
X1001248Y1222641D01*
X1001303Y1222232D01*
X1001357Y1221822D01*
X1001384Y1221468D01*
X1001412Y1221167D01*
X1001439Y1220922D01*
Y1220567D01*
X1001412Y1219939D01*
X1001357Y1219338D01*
X1001275Y1218765D01*
X1001166Y1218219D01*
X1001029Y1217727D01*
X1000893Y1217291D01*
X1000729Y1216854D01*
X1000565Y1216499D01*
X1000402Y1216144D01*
X1000238Y1215871D01*
X1000101Y1215598D01*
X999965Y1215407D01*
X999856Y1215243D01*
X999774Y1215134D01*
X999719Y1215052D01*
X999692Y1215025D01*
X999337Y1214670D01*
X998955Y1214315D01*
X998545Y1214015D01*
X998108Y1213742D01*
X997644Y1213496D01*
X997180Y1213278D01*
X996279Y1212895D01*
X995870Y1212759D01*
X995488Y1212650D01*
X995133Y1212541D01*
X994805Y1212459D01*
X994559Y1212404D01*
X994368Y1212349D01*
X994259Y1212322D01*
X994205D01*
X994914Y1204897D01*
D01*
X996061Y1205060D01*
X997153Y1205306D01*
X998163Y1205579D01*
X999119Y1205934D01*
X999965Y1206289D01*
X1000756Y1206671D01*
X1001494Y1207053D01*
X1002121Y1207463D01*
X1002695Y1207845D01*
X1003186Y1208200D01*
X1003623Y1208555D01*
X1003951Y1208855D01*
X1004224Y1209101D01*
X1004415Y1209292D01*
X1004551Y1209401D01*
X1004578Y1209456D01*
X1005152Y1210220D01*
X1005670Y1211039D01*
X1006107Y1211913D01*
X1006490Y1212813D01*
X1006817Y1213714D01*
X1007063Y1214643D01*
X1007281Y1215543D01*
X1007472Y1216417D01*
X1007609Y1217236D01*
X1007718Y1218001D01*
X1007773Y1218710D01*
X1007827Y1219311D01*
X1007855Y1219557D01*
Y1219802D01*
X1007882Y1219993D01*
Y1220485D01*
X1007855Y1221386D01*
X1007827Y1222259D01*
X1007745Y1223078D01*
X1007663Y1223843D01*
X1007554Y1224553D01*
X1007445Y1225235D01*
X1007336Y1225863D01*
X1007199Y1226436D01*
X1007063Y1226928D01*
X1006954Y1227392D01*
X1006844Y1227774D01*
X1006735Y1228074D01*
X1006653Y1228347D01*
X1006571Y1228538D01*
X1006544Y1228648D01*
X1006517Y1228675D01*
X1006244Y1229275D01*
X1005943Y1229849D01*
X1005616Y1230367D01*
X1005261Y1230859D01*
X1004933Y1231323D01*
X1004578Y1231732D01*
X1004224Y1232115D01*
X1003896Y1232469D01*
X1003568Y1232770D01*
X1003268Y1233043D01*
X1002995Y1233261D01*
X1002777Y1233452D01*
X1002586Y1233589D01*
X1002422Y1233698D01*
X1002340Y1233753D01*
X1002313Y1233780D01*
X1001767Y1234108D01*
X1001248Y1234380D01*
X1000702Y1234626D01*
X1000156Y1234845D01*
X999637Y1235008D01*
X999146Y1235172D01*
X998654Y1235281D01*
X998190Y1235391D01*
X997781Y1235445D01*
X997399Y1235500D01*
X997071Y1235554D01*
X996771Y1235582D01*
X996552Y1235609D01*
D02*
G37*
G36*
X990383Y1198781D02*
X969416D01*
Y1168669D01*
X1007855D01*
X990737D01*
X991829Y1168697D01*
X992840Y1168751D01*
X993768Y1168779D01*
X994614Y1168833D01*
X995406Y1168915D01*
X996115Y1168970D01*
X996743Y1169052D01*
X997317Y1169106D01*
X997808Y1169161D01*
X998218Y1169243D01*
X998572Y1169297D01*
X998818Y1169352D01*
X999009Y1169379D01*
X999146Y1169407D01*
X999173D01*
X999992Y1169652D01*
X1000756Y1169953D01*
X1001466Y1170307D01*
X1002094Y1170662D01*
X1002367Y1170826D01*
X1002640Y1170990D01*
X1002859Y1171154D01*
X1003022Y1171290D01*
X1003186Y1171372D01*
X1003295Y1171454D01*
X1003350Y1171509D01*
X1003377Y1171536D01*
X1004087Y1172191D01*
X1004715Y1172928D01*
X1005288Y1173665D01*
X1005752Y1174375D01*
X1005943Y1174703D01*
X1006135Y1175003D01*
X1006271Y1175276D01*
X1006408Y1175494D01*
X1006490Y1175686D01*
X1006571Y1175849D01*
X1006599Y1175931D01*
X1006626Y1175958D01*
X1006844Y1176505D01*
X1007035Y1177105D01*
X1007199Y1177760D01*
X1007336Y1178416D01*
X1007554Y1179781D01*
X1007636Y1180463D01*
X1007691Y1181118D01*
X1007745Y1181746D01*
X1007800Y1182319D01*
X1007827Y1182838D01*
Y1183275D01*
X1007855Y1183657D01*
Y1184176D01*
X1007827Y1184995D01*
X1007800Y1185786D01*
X1007745Y1186496D01*
X1007663Y1187206D01*
X1007582Y1187834D01*
X1007500Y1188435D01*
X1007390Y1188981D01*
X1007281Y1189499D01*
X1007172Y1189936D01*
X1007063Y1190318D01*
X1006981Y1190646D01*
X1006899Y1190946D01*
X1006817Y1191165D01*
X1006763Y1191301D01*
X1006708Y1191410D01*
Y1191438D01*
X1006490Y1191956D01*
X1006244Y1192420D01*
X1005998Y1192884D01*
X1005752Y1193294D01*
X1005479Y1193704D01*
X1005234Y1194058D01*
X1004988Y1194386D01*
X1004742Y1194686D01*
X1004524Y1194959D01*
X1004306Y1195205D01*
X1004114Y1195396D01*
X1003978Y1195560D01*
X1003841Y1195696D01*
X1003732Y1195778D01*
X1003678Y1195833D01*
X1003650Y1195860D01*
X1002886Y1196434D01*
X1002094Y1196925D01*
X1001303Y1197307D01*
X1000538Y1197635D01*
X1000211Y1197771D01*
X999883Y1197880D01*
X999610Y1197962D01*
X999364Y1198017D01*
X999173Y1198099D01*
X999037Y1198126D01*
X998927Y1198153D01*
X998900D01*
X998327Y1198263D01*
X997672Y1198372D01*
X996962Y1198454D01*
X996225Y1198508D01*
X995433Y1198590D01*
X994614Y1198618D01*
X993822Y1198672D01*
X993031Y1198699D01*
X992293Y1198727D01*
X991584Y1198754D01*
X990956D01*
X990383Y1198781D01*
D02*
G37*
G36*
X969416Y1164847D02*
Y1129685D01*
X1007199Y1143171D01*
Y1151389D01*
X969416Y1164847D01*
D02*
G37*
%LPD*%
G36*
X996580Y1265775D02*
X997235Y1265666D01*
X997781Y1265475D01*
X998245Y1265284D01*
X998600Y1265093D01*
X998873Y1264902D01*
X999037Y1264793D01*
X999064Y1264738D01*
X999091D01*
X999501Y1264301D01*
X999828Y1263864D01*
X1000101Y1263400D01*
X1000292Y1262964D01*
X1000429Y1262581D01*
X1000538Y1262254D01*
X1000565Y1262145D01*
Y1262063D01*
X1000593Y1262008D01*
Y1261981D01*
X1000620Y1261735D01*
X1000675Y1261435D01*
X1000702Y1261080D01*
X1000729Y1260698D01*
Y1260261D01*
X1000756Y1259824D01*
X1000784Y1258950D01*
Y1258514D01*
X1000811Y1258104D01*
Y1249668D01*
X990710D01*
Y1256766D01*
X990737Y1257640D01*
X990765Y1258405D01*
X990792Y1259087D01*
X990847Y1259715D01*
X990874Y1260261D01*
X990928Y1260752D01*
X990983Y1261189D01*
X991038Y1261544D01*
X991092Y1261844D01*
X991120Y1262090D01*
X991174Y1262281D01*
X991202Y1262445D01*
X991229Y1262527D01*
X991256Y1262581D01*
Y1262609D01*
X991475Y1263155D01*
X991747Y1263646D01*
X992048Y1264056D01*
X992321Y1264383D01*
X992594Y1264656D01*
X992812Y1264820D01*
X992949Y1264957D01*
X992976Y1264984D01*
X993003D01*
X993467Y1265257D01*
X993959Y1265475D01*
X994423Y1265612D01*
X994887Y1265721D01*
X995269Y1265775D01*
X995597Y1265830D01*
X995706D01*
X995788D01*
X995842D01*
X995870D01*
X996580Y1265775D01*
D02*
G37*
G36*
X980664Y1264356D02*
X981237Y1264219D01*
X981756Y1264056D01*
X982165Y1263837D01*
X982493Y1263619D01*
X982766Y1263455D01*
X982902Y1263319D01*
X982957Y1263264D01*
X983339Y1262800D01*
X983639Y1262308D01*
X983885Y1261817D01*
X984049Y1261326D01*
X984185Y1260889D01*
X984240Y1260698D01*
X984267Y1260534D01*
X984295Y1260397D01*
X984322Y1260288D01*
Y1260206D01*
X984349Y1259961D01*
Y1259660D01*
X984376Y1259278D01*
Y1258869D01*
X984404Y1258432D01*
Y1257040D01*
X984431Y1256575D01*
Y1249668D01*
X975695D01*
Y1256630D01*
X975722Y1257312D01*
Y1257940D01*
X975750Y1258459D01*
Y1259305D01*
X975777Y1259633D01*
Y1259906D01*
X975804Y1260124D01*
Y1260288D01*
X975832Y1260425D01*
Y1260561D01*
X975968Y1261244D01*
X976132Y1261817D01*
X976350Y1262308D01*
X976596Y1262718D01*
X976814Y1263018D01*
X977005Y1263237D01*
X977115Y1263373D01*
X977169Y1263428D01*
X977606Y1263755D01*
X978070Y1264001D01*
X978534Y1264165D01*
X978998Y1264301D01*
X979408Y1264356D01*
X979708Y1264383D01*
X979845Y1264410D01*
X979927D01*
X979981D01*
X980009D01*
X980664Y1264356D01*
D02*
G37*
G36*
X991884Y1191137D02*
X992594D01*
X993222Y1191110D01*
X993822Y1191083D01*
X994341Y1191055D01*
X994805Y1191028D01*
X995242Y1191001D01*
X995597Y1190946D01*
X995924Y1190919D01*
X996170Y1190892D01*
X996389Y1190864D01*
X996552Y1190837D01*
X996689D01*
X996743Y1190810D01*
X996771D01*
X997126Y1190728D01*
X997453Y1190619D01*
X998081Y1190373D01*
X998627Y1190045D01*
X999119Y1189690D01*
X999501Y1189363D01*
X999774Y1189090D01*
X999883Y1188981D01*
X999965Y1188899D01*
X999992Y1188844D01*
X1000019Y1188817D01*
X1000238Y1188489D01*
X1000456Y1188134D01*
X1000784Y1187370D01*
X1001002Y1186551D01*
X1001166Y1185759D01*
X1001221Y1185377D01*
X1001248Y1185049D01*
X1001303Y1184722D01*
Y1184476D01*
X1001330Y1184230D01*
Y1183930D01*
X1001303Y1183357D01*
X1001275Y1182784D01*
X1001193Y1182292D01*
X1001111Y1181801D01*
X1001002Y1181337D01*
X1000893Y1180927D01*
X1000756Y1180545D01*
X1000620Y1180217D01*
X1000511Y1179890D01*
X1000374Y1179644D01*
X1000265Y1179398D01*
X1000156Y1179207D01*
X1000074Y1179071D01*
X999992Y1178961D01*
X999965Y1178907D01*
X999938Y1178880D01*
X999664Y1178552D01*
X999364Y1178252D01*
X999064Y1177979D01*
X998764Y1177733D01*
X998163Y1177351D01*
X997562Y1177023D01*
X997044Y1176805D01*
X996798Y1176723D01*
X996607Y1176668D01*
X996443Y1176614D01*
X996334Y1176586D01*
X996252Y1176559D01*
X996225D01*
X995924Y1176505D01*
X995542Y1176477D01*
X995105Y1176423D01*
X994614Y1176395D01*
X994123Y1176368D01*
X993577Y1176341D01*
X992512Y1176313D01*
X991993D01*
X991502D01*
X991065Y1176286D01*
X990683D01*
X990355D01*
X990110D01*
X989946D01*
X989891D01*
X969416D01*
Y1191165D01*
X990328D01*
X991147D01*
X991884Y1191137D01*
D02*
G37*
G36*
X997371Y1147512D02*
X969416Y1137930D01*
Y1156739D01*
X997371Y1147512D01*
D02*
G37*
%LPC*%
G36*
X331868Y1089618D02*
X305394D01*
X318714D01*
X318030Y1089600D01*
X317364Y1089544D01*
X316716Y1089470D01*
X316087Y1089378D01*
X315495Y1089267D01*
X314940Y1089137D01*
X314404Y1089008D01*
X313923Y1088860D01*
X313479Y1088730D01*
X313072Y1088601D01*
X312739Y1088471D01*
X312443Y1088360D01*
X312202Y1088249D01*
X312036Y1088175D01*
X311925Y1088138D01*
X311888Y1088120D01*
X311314Y1087824D01*
X310778Y1087491D01*
X310278Y1087158D01*
X309816Y1086788D01*
X309390Y1086418D01*
X308983Y1086048D01*
X308632Y1085678D01*
X308317Y1085326D01*
X308021Y1084975D01*
X307781Y1084660D01*
X307559Y1084383D01*
X307392Y1084124D01*
X307263Y1083920D01*
X307152Y1083772D01*
X307096Y1083680D01*
X307078Y1083643D01*
X306782Y1083069D01*
X306523Y1082477D01*
X306301Y1081885D01*
X306097Y1081275D01*
X305949Y1080683D01*
X305801Y1080109D01*
X305690Y1079554D01*
X305598Y1079018D01*
X305542Y1078518D01*
X305487Y1078056D01*
X305450Y1077649D01*
X305413Y1077297D01*
Y1077020D01*
X305394Y1076909D01*
Y1076631D01*
X305413Y1076039D01*
X305450Y1075447D01*
X305505Y1074874D01*
X305579Y1074319D01*
X305672Y1073782D01*
X305764Y1073264D01*
X305875Y1072783D01*
X305986Y1072321D01*
X306097Y1071914D01*
X306208Y1071544D01*
X306301Y1071211D01*
X306393Y1070933D01*
X306467Y1070693D01*
X306523Y1070526D01*
X306560Y1070434D01*
X306578Y1070397D01*
X306800Y1069842D01*
X307041Y1069305D01*
X307281Y1068806D01*
X307522Y1068362D01*
X307762Y1067936D01*
X307984Y1067548D01*
X308206Y1067196D01*
X308410Y1066882D01*
X308613Y1066604D01*
X308798Y1066364D01*
X308946Y1066142D01*
X309094Y1065975D01*
X309205Y1065846D01*
X309279Y1065753D01*
X309335Y1065698D01*
X309353Y1065679D01*
X305394D01*
X319565D01*
Y1076816D01*
X315236D01*
Y1070896D01*
X311980D01*
X311647Y1071359D01*
X311351Y1071840D01*
X311092Y1072302D01*
X310870Y1072746D01*
X310778Y1072950D01*
X310685Y1073135D01*
X310611Y1073301D01*
X310556Y1073431D01*
X310500Y1073542D01*
X310482Y1073634D01*
X310445Y1073690D01*
Y1073708D01*
X310241Y1074319D01*
X310075Y1074911D01*
X309964Y1075447D01*
X309927Y1075706D01*
X309890Y1075947D01*
X309871Y1076169D01*
X309853Y1076354D01*
X309834Y1076539D01*
Y1076687D01*
X309816Y1076798D01*
Y1076964D01*
X309834Y1077556D01*
X309908Y1078130D01*
X310019Y1078666D01*
X310167Y1079166D01*
X310352Y1079647D01*
X310537Y1080091D01*
X310741Y1080479D01*
X310963Y1080849D01*
X311166Y1081164D01*
X311370Y1081460D01*
X311573Y1081700D01*
X311740Y1081904D01*
X311888Y1082070D01*
X311999Y1082181D01*
X312073Y1082255D01*
X312091Y1082274D01*
X312535Y1082625D01*
X313035Y1082940D01*
X313571Y1083217D01*
X314126Y1083439D01*
X314681Y1083643D01*
X315255Y1083791D01*
X315810Y1083939D01*
X316365Y1084031D01*
X316883Y1084124D01*
X317364Y1084179D01*
X317789Y1084235D01*
X318178Y1084253D01*
X318344Y1084272D01*
X318492D01*
X318603Y1084290D01*
X318714D01*
X318807D01*
X318862D01*
X318899D01*
X318918D01*
X319676Y1084272D01*
X320398Y1084198D01*
X321064Y1084105D01*
X321693Y1083976D01*
X322266Y1083828D01*
X322784Y1083661D01*
X323265Y1083476D01*
X323691Y1083291D01*
X324061Y1083106D01*
X324375Y1082921D01*
X324653Y1082755D01*
X324875Y1082607D01*
X325060Y1082477D01*
X325189Y1082385D01*
X325263Y1082311D01*
X325282Y1082292D01*
X325670Y1081904D01*
X326003Y1081478D01*
X326281Y1081053D01*
X326540Y1080609D01*
X326743Y1080165D01*
X326910Y1079702D01*
X327058Y1079277D01*
X327169Y1078851D01*
X327261Y1078444D01*
X327335Y1078093D01*
X327372Y1077760D01*
X327409Y1077464D01*
X327428Y1077242D01*
X327446Y1077057D01*
Y1076909D01*
X327428Y1076502D01*
X327391Y1076113D01*
X327335Y1075725D01*
X327280Y1075392D01*
X327187Y1075059D01*
X327095Y1074744D01*
X327002Y1074467D01*
X326891Y1074208D01*
X326780Y1073986D01*
X326688Y1073782D01*
X326595Y1073597D01*
X326503Y1073449D01*
X326447Y1073338D01*
X326392Y1073264D01*
X326355Y1073209D01*
X326336Y1073190D01*
X326133Y1072913D01*
X325892Y1072672D01*
X325652Y1072450D01*
X325411Y1072228D01*
X325171Y1072043D01*
X324912Y1071877D01*
X324671Y1071729D01*
X324449Y1071599D01*
X324227Y1071488D01*
X324024Y1071396D01*
X323839Y1071303D01*
X323691Y1071248D01*
X323561Y1071192D01*
X323450Y1071155D01*
X323395Y1071137D01*
X323376D01*
X324338Y1066012D01*
X324986Y1066179D01*
X325578Y1066382D01*
X326151Y1066623D01*
X326688Y1066882D01*
X327169Y1067159D01*
X327631Y1067455D01*
X328038Y1067733D01*
X328408Y1068029D01*
X328741Y1068306D01*
X329037Y1068584D01*
X329278Y1068824D01*
X329481Y1069046D01*
X329648Y1069213D01*
X329759Y1069361D01*
X329833Y1069435D01*
X329851Y1069472D01*
X330203Y1069990D01*
X330517Y1070563D01*
X330795Y1071155D01*
X331017Y1071766D01*
X331220Y1072376D01*
X331368Y1073005D01*
X331516Y1073616D01*
X331609Y1074189D01*
X331701Y1074744D01*
X331757Y1075262D01*
X331812Y1075725D01*
X331831Y1076132D01*
X331849Y1076298D01*
Y1076446D01*
X331868Y1076594D01*
Y1065679D01*
D01*
Y1089618D01*
D02*
G37*
G36*
X331442Y1060869D02*
X305838D01*
Y1056078D01*
X322599D01*
X305838Y1045736D01*
Y1040556D01*
X331442D01*
Y1060869D01*
D02*
G37*
G36*
Y1035099D02*
X305838D01*
Y1024868D01*
X305857Y1024369D01*
X305894Y1023906D01*
X305931Y1023462D01*
X305968Y1023055D01*
X306005Y1022667D01*
X306060Y1022334D01*
X306116Y1022019D01*
X306153Y1021742D01*
X306208Y1021501D01*
X306245Y1021279D01*
X306301Y1021113D01*
X306319Y1020983D01*
X306356Y1020872D01*
X306375Y1020817D01*
Y1020798D01*
X306523Y1020373D01*
X306671Y1019984D01*
X306837Y1019614D01*
X307004Y1019263D01*
X307170Y1018948D01*
X307337Y1018652D01*
X307503Y1018375D01*
X307670Y1018134D01*
X307818Y1017912D01*
X307966Y1017727D01*
X308077Y1017561D01*
X308188Y1017413D01*
X308280Y1017320D01*
X308354Y1017228D01*
X308391Y1017191D01*
X308410Y1017172D01*
X308743Y1016839D01*
X309113Y1016543D01*
X309483Y1016266D01*
X309853Y1015988D01*
X310241Y1015748D01*
X310611Y1015526D01*
X310981Y1015322D01*
X311333Y1015137D01*
X311666Y1014971D01*
X311962Y1014823D01*
X312239Y1014712D01*
X312480Y1014619D01*
X312665Y1014527D01*
X312813Y1014471D01*
X312905Y1014453D01*
X312942Y1014434D01*
X313386Y1014286D01*
X313830Y1014175D01*
X314755Y1013972D01*
X315662Y1013824D01*
X316106Y1013787D01*
X316513Y1013731D01*
X316901Y1013713D01*
X317253Y1013676D01*
X317586Y1013657D01*
X317845D01*
X318067Y1013639D01*
X319047D01*
X319676Y1013676D01*
X320287Y1013713D01*
X320842Y1013768D01*
X321378Y1013842D01*
X321878Y1013916D01*
X322340Y1013990D01*
X322766Y1014064D01*
X323136Y1014138D01*
X323469Y1014212D01*
X323746Y1014286D01*
X323987Y1014360D01*
X324190Y1014416D01*
X324320Y1014453D01*
X324412Y1014471D01*
X324431Y1014490D01*
X324875Y1014656D01*
X325319Y1014841D01*
X325726Y1015026D01*
X326114Y1015230D01*
X326484Y1015433D01*
X326817Y1015637D01*
X327132Y1015822D01*
X327428Y1016025D01*
X327687Y1016210D01*
X327909Y1016377D01*
X328112Y1016525D01*
X328279Y1016673D01*
X328408Y1016784D01*
X328501Y1016858D01*
X328556Y1016913D01*
X328575Y1016932D01*
X328889Y1017246D01*
X329167Y1017561D01*
X329426Y1017894D01*
X329666Y1018208D01*
X329870Y1018541D01*
X330073Y1018856D01*
X330240Y1019170D01*
X330406Y1019466D01*
X330536Y1019744D01*
X330647Y1020003D01*
X330739Y1020225D01*
X330813Y1020428D01*
X330869Y1020576D01*
X330906Y1020706D01*
X330943Y1020780D01*
Y1020798D01*
X331035Y1021131D01*
X331109Y1021483D01*
X331183Y1021871D01*
X331239Y1022260D01*
X331313Y1023074D01*
X331350Y1023462D01*
X331387Y1023851D01*
X331405Y1024221D01*
X331424Y1024554D01*
Y1024868D01*
X331442Y1025146D01*
Y1013639D01*
D01*
Y1035099D01*
D02*
G37*
%LPD*%
G36*
X331868Y1076909D02*
X331849Y1077575D01*
X331812Y1078222D01*
X331757Y1078851D01*
X331664Y1079425D01*
X331572Y1079961D01*
X331461Y1080461D01*
X331350Y1080942D01*
X331239Y1081367D01*
X331109Y1081737D01*
X330998Y1082070D01*
X330887Y1082366D01*
X330795Y1082607D01*
X330702Y1082792D01*
X330647Y1082940D01*
X330610Y1083014D01*
X330591Y1083051D01*
X330258Y1083643D01*
X329907Y1084179D01*
X329537Y1084697D01*
X329148Y1085178D01*
X328741Y1085622D01*
X328353Y1086011D01*
X327964Y1086381D01*
X327576Y1086714D01*
X327224Y1086991D01*
X326891Y1087250D01*
X326595Y1087472D01*
X326336Y1087639D01*
X326114Y1087768D01*
X325948Y1087879D01*
X325855Y1087935D01*
X325818Y1087953D01*
X325226Y1088249D01*
X324616Y1088508D01*
X324005Y1088730D01*
X323395Y1088915D01*
X322803Y1089082D01*
X322211Y1089211D01*
X321637Y1089322D01*
X321101Y1089415D01*
X320601Y1089470D01*
X320139Y1089526D01*
X319732Y1089563D01*
X319380Y1089600D01*
X319103D01*
X318992Y1089618D01*
X331868D01*
Y1076909D01*
D02*
G37*
G36*
X331442Y1045348D02*
X314293D01*
X331442Y1055856D01*
Y1045348D01*
D02*
G37*
G36*
X327113Y1027051D02*
X327095Y1026533D01*
Y1026052D01*
X327076Y1025627D01*
X327058Y1025238D01*
X327039Y1024887D01*
X327002Y1024572D01*
X326984Y1024313D01*
X326965Y1024073D01*
X326928Y1023888D01*
X326910Y1023721D01*
X326891Y1023592D01*
X326873Y1023499D01*
Y1023425D01*
X326854Y1023388D01*
Y1023370D01*
X326706Y1022852D01*
X326540Y1022371D01*
X326336Y1021964D01*
X326133Y1021612D01*
X325948Y1021335D01*
X325874Y1021224D01*
X325800Y1021131D01*
X325744Y1021057D01*
X325689Y1021002D01*
X325670Y1020983D01*
X325652Y1020965D01*
X325282Y1020632D01*
X324893Y1020336D01*
X324486Y1020095D01*
X324079Y1019873D01*
X323728Y1019725D01*
X323561Y1019651D01*
X323432Y1019596D01*
X323321Y1019559D01*
X323247Y1019522D01*
X323191Y1019503D01*
X323173D01*
X322858Y1019411D01*
X322525Y1019318D01*
X322155Y1019263D01*
X321785Y1019189D01*
X321027Y1019096D01*
X320657Y1019059D01*
X320305Y1019041D01*
X319954Y1019004D01*
X319639Y1018985D01*
X319362D01*
X319103Y1018967D01*
X318899D01*
X318751D01*
X318659D01*
X318622D01*
X318085D01*
X317567Y1018985D01*
X317086Y1019022D01*
X316642Y1019041D01*
X316217Y1019096D01*
X315847Y1019133D01*
X315495Y1019189D01*
X315181Y1019226D01*
X314885Y1019281D01*
X314644Y1019337D01*
X314422Y1019374D01*
X314256Y1019411D01*
X314126Y1019448D01*
X314015Y1019485D01*
X313960Y1019503D01*
X313941D01*
X313627Y1019596D01*
X313349Y1019707D01*
X313072Y1019818D01*
X312831Y1019929D01*
X312609Y1020040D01*
X312406Y1020151D01*
X312221Y1020262D01*
X312054Y1020373D01*
X311906Y1020465D01*
X311795Y1020558D01*
X311684Y1020650D01*
X311610Y1020706D01*
X311536Y1020780D01*
X311499Y1020817D01*
X311481Y1020835D01*
X311462Y1020854D01*
X311203Y1021187D01*
X310981Y1021538D01*
X310796Y1021871D01*
X310667Y1022204D01*
X310556Y1022500D01*
X310500Y1022630D01*
X310463Y1022741D01*
X310445Y1022815D01*
X310426Y1022889D01*
X310408Y1022926D01*
Y1022944D01*
X310371Y1023129D01*
X310334Y1023351D01*
X310278Y1023832D01*
X310223Y1024350D01*
X310204Y1024868D01*
X310186Y1025109D01*
Y1025331D01*
X310167Y1025534D01*
Y1029937D01*
X327113D01*
Y1027051D01*
D02*
G37*
D61*
X864457Y815638D02*
G03*
X864457Y815638I-30000J0D01*
G01*
X944367Y722009D02*
G03*
X944367Y722009I-30000J0D01*
G01*
X808354Y1662596D02*
G03*
X808354Y1662596I-30000J0D01*
G01*
X618944Y633591D02*
G03*
X618944Y633591I-2953J0D01*
G01*
X835441Y556984D02*
X843315D01*
X835441Y533362D02*
X843315D01*
X803945Y1602899D02*
X811819D01*
X803945Y1579277D02*
X811819D01*
X807882Y1338214D02*
X815756D01*
X807882Y1361836D02*
X815756D01*
X613372Y1685863D02*
X660616D01*
X613372Y1744918D02*
X660616D01*
D62*
X590551Y1880906D02*
G03*
X590551Y1880906I-3937J0D01*
G01*
D63*
X306751Y2195597D02*
G03*
X206359Y2097193I-1968J-98404D01*
G01*
X1107140Y2093166D02*
G03*
X1006756Y2195577I-100384J2008D01*
G01*
X1004748Y194789D02*
G03*
X1107160Y295173I2008J100384D01*
G01*
X206372Y297181D02*
G03*
X306756Y194769I100384J-2008D01*
G01*
X607516Y971457D02*
X635075D01*
X607516D02*
Y998031D01*
X753622Y1386977D02*
X772670D01*
X751850Y1388749D02*
Y1408080D01*
X306770Y2195577D02*
X1006756D01*
X1106299Y2095202D02*
X1106819Y295173D01*
X306756Y195173D02*
X1005756D01*
X206693Y2097193D02*
X206693Y298236D01*
D64*
X389547Y876913D02*
X399547Y886913D01*
X434547D01*
X389547Y856913D02*
X399547Y846913D01*
X434547D01*
X399547D02*
Y886913D01*
X389547Y856913D02*
Y876913D01*
X494547Y846913D02*
Y886913D01*
X459547D02*
X494547D01*
X459547Y846913D02*
X494547D01*
X586464Y830284D02*
X601976D01*
X586464Y815638D02*
Y830284D01*
Y672803D02*
Y687370D01*
Y672803D02*
X601306D01*
X729731D02*
X743944D01*
Y687567D01*
Y815008D02*
Y830284D01*
X729889D02*
X743944D01*
X803740Y1896063D02*
Y2187992D01*
X526969Y1896063D02*
X803740D01*
X526969D02*
Y2187992D01*
X803740D01*
X832824Y2088335D02*
Y2101664D01*
X839488Y2108328D01*
X846153Y2101664D01*
Y2088335D01*
Y2098331D01*
X832824D01*
X852817Y2088335D02*
Y2108328D01*
X866146Y2088335D01*
Y2108328D01*
X872811D02*
X886140D01*
X879475D01*
Y2088335D01*
X906133Y2108328D02*
X892804D01*
Y2088335D01*
X906133D01*
X892804Y2098331D02*
X899469D01*
X912798Y2088335D02*
Y2108328D01*
X926127Y2088335D01*
Y2108328D01*
X932791Y2088335D02*
Y2108328D01*
X946120Y2088335D01*
Y2108328D01*
X952785Y2088335D02*
Y2101664D01*
X959449Y2108328D01*
X966114Y2101664D01*
Y2088335D01*
Y2098331D01*
X952785D01*
X987619Y1931036D02*
X1001756Y1945173D01*
X994687Y1952242D01*
X989975Y1952242D01*
X980550Y1942817D01*
Y1938105D01*
X987619Y1931036D01*
X964056Y1954598D02*
X973481Y1945173D01*
X980550Y1952242D01*
X975837Y1956955D01*
X980550Y1952242D01*
X987619Y1959311D01*
X959343D02*
X971125Y1971092D01*
Y1975805D01*
X966412Y1980517D01*
X961700Y1980517D01*
X949918Y1968736D01*
X987619Y1831036D02*
X978193Y1840461D01*
X982906Y1835748D01*
X997043Y1849886D01*
X973481Y1845173D02*
X978193Y1868736D01*
X964056Y1854598D02*
X987619Y1859311D01*
X959343D02*
X973481Y1873448D01*
X966412Y1880517D01*
X961700Y1880517D01*
X952275Y1871092D01*
Y1866380D01*
X959343Y1859311D01*
X1001756Y1745173D02*
X987619Y1731036D01*
X980550Y1738105D01*
Y1742817D01*
X985262Y1747530D01*
X989975Y1747530D01*
X997043Y1740461D01*
X992331Y1745173D02*
Y1754598D01*
X973481Y1745173D02*
X978193Y1768736D01*
X964056Y1754598D02*
X987619Y1759311D01*
X959343D02*
X973481Y1773448D01*
X966412Y1780517D01*
X961700Y1780517D01*
X952275Y1771092D01*
Y1766380D01*
X959343Y1759311D01*
X989975Y1416731D02*
X985262Y1416731D01*
X980550Y1421443D01*
Y1426156D01*
X982906Y1428512D01*
X987618D01*
X989975Y1426156D01*
X987618Y1428512D01*
X987619Y1433225D01*
X989975Y1435581D01*
X994687Y1435581D01*
X999400Y1430868D01*
Y1426156D01*
X973481Y1428512D02*
X982906Y1437937D01*
Y1447362D01*
X973481D01*
X964056Y1437937D01*
X961700Y1445006D02*
X956987D01*
X952275Y1449718D01*
Y1454431D01*
X954631Y1456787D01*
X959343D01*
X961700Y1454431D01*
X959343Y1456787D01*
X959343Y1461500D01*
X961700Y1463856D01*
X966412Y1463856D01*
X971125Y1459143D01*
Y1454431D01*
X1001756Y1345173D02*
X992331Y1335748D01*
X982906D01*
Y1345173D01*
X992331Y1354598D01*
X985262Y1347530D01*
X994687Y1338104D01*
X964056Y1354598D02*
X973481Y1345173D01*
X980550Y1352242D01*
X973481Y1354598D01*
X971125Y1356955D01*
Y1361667D01*
X975837Y1366380D01*
X980550D01*
X985262Y1361667D01*
Y1356955D01*
X980550Y542817D02*
Y538105D01*
X985262Y533392D01*
X989975Y533392D01*
X999400Y542817D01*
Y547530D01*
X994687Y552242D01*
X989975Y552242D01*
X985262Y547529D01*
X989975Y542817D01*
X987619Y559311D02*
X973481Y545173D01*
X978193Y568736D01*
X964056Y554598D01*
X959343Y559311D02*
X973481Y573448D01*
X966412Y580517D01*
X961700Y580517D01*
X952275Y571092D01*
Y566380D01*
X959343Y559311D01*
X980550Y642817D02*
Y638105D01*
X985262Y633392D01*
X989975Y633392D01*
X999400Y642817D01*
Y647530D01*
X994687Y652242D01*
X989975Y652242D01*
X985262Y647529D01*
X989975Y642817D01*
X987619Y659311D02*
X973481Y645173D01*
X978193Y668736D01*
X964056Y654598D01*
X959343Y659311D02*
X973481Y673448D01*
X966412Y680517D01*
X961700Y680517D01*
X952275Y671092D01*
Y666380D01*
X959343Y659311D01*
X1001756Y1045173D02*
X992331Y1035748D01*
X982906D01*
Y1045173D01*
X992331Y1054598D01*
X985262Y1047530D01*
X994687Y1038104D01*
X978193Y1068736D02*
X987619Y1059311D01*
X968768D01*
X966412Y1056955D01*
Y1052242D01*
X971125Y1047530D01*
X975837Y1047530D01*
X1001756Y945173D02*
X992331Y935748D01*
X982906D01*
Y945173D01*
X992331Y954598D01*
X985262Y947529D01*
X994687Y938105D01*
X987619Y959311D02*
X982906Y964023D01*
X985262Y961667D01*
X971125Y947530D01*
X975837Y947529D01*
X1001756Y845173D02*
X992331Y835748D01*
X982906D01*
Y845173D01*
X992331Y854598D01*
X985262Y847529D01*
X994687Y838105D01*
X975837Y847529D02*
X971125Y847530D01*
X966412Y852242D01*
Y856955D01*
X975837Y866380D01*
X980550D01*
X985262Y861667D01*
Y856955D01*
X975837Y847529D01*
X985550Y742817D02*
Y738105D01*
X990262Y733392D01*
X994975Y733392D01*
X1004400Y742817D01*
Y747530D01*
X999687Y752242D01*
X994975Y752242D01*
X990262Y747529D01*
X994975Y742817D01*
X992619Y759311D02*
X978481Y745173D01*
X983193Y768736D01*
X969056Y754598D01*
X964343Y759311D02*
X978481Y773448D01*
X971412Y780517D01*
X966700Y780517D01*
X957275Y771092D01*
Y766380D01*
X964343Y759311D01*
X984550Y437526D02*
Y432813D01*
X989262Y428101D01*
X993975Y428101D01*
X1003400Y437526D01*
Y442238D01*
X998687Y446951D01*
X993975Y446951D01*
X989262Y442238D01*
X993975Y437526D01*
X991619Y454019D02*
X977481Y439882D01*
X982193Y463445D01*
X968056Y449307D01*
X963343Y454019D02*
X977481Y468157D01*
X970412Y475226D01*
X965700Y475226D01*
X956275Y465801D01*
Y461088D01*
X963343Y454019D01*
X332962Y1952530D02*
Y1957242D01*
X328250Y1961955D01*
X323537Y1961955D01*
X321181Y1959598D01*
X321181Y1954886D01*
X325894Y1950173D01*
X325894Y1945461D01*
X323537Y1943105D01*
X318825Y1943104D01*
X314112Y1947817D01*
Y1952530D01*
X340031Y1950173D02*
X325894Y1936036D01*
X332962Y1928967D01*
X337675D01*
X347100Y1938392D01*
Y1943104D01*
X340031Y1950173D01*
Y1921898D02*
X349456Y1931323D01*
X358881D01*
Y1921898D01*
X349456Y1912473D01*
X356525Y1919542D01*
X347100Y1928967D01*
X332962Y1852530D02*
Y1857242D01*
X328250Y1861955D01*
X323537Y1861955D01*
X321181Y1859598D01*
X321181Y1854886D01*
X325894Y1850173D01*
X325894Y1845461D01*
X323537Y1843105D01*
X318825Y1843104D01*
X314112Y1847817D01*
Y1852530D01*
X347100Y1838392D02*
Y1843104D01*
X342387Y1847817D01*
X337675Y1847817D01*
X328250Y1838392D01*
Y1833679D01*
X332962Y1828967D01*
X337675D01*
X354169Y1836036D02*
X340031Y1821898D01*
X349456Y1812473D01*
X311756Y1750173D02*
X316469Y1745461D01*
X314112Y1747817D01*
X328250Y1761955D01*
X323537Y1761955D01*
X347100Y1743104D02*
X337675Y1752530D01*
X330606Y1745461D01*
X337675Y1743104D01*
X340031Y1740748D01*
Y1736036D01*
X335319Y1731323D01*
X330606D01*
X325894Y1736036D01*
Y1740748D01*
X332962Y1652530D02*
Y1657242D01*
X328250Y1661955D01*
X323537Y1661955D01*
X314112Y1652530D01*
Y1647817D01*
X318825Y1643104D01*
X323537Y1643105D01*
X328250Y1647817D01*
X323537Y1652530D01*
X325894Y1636036D02*
X340031Y1650173D01*
X335319Y1626611D01*
X349456Y1640748D01*
X354169Y1636036D02*
X340031Y1621898D01*
X347100Y1614829D01*
X351812Y1614830D01*
X361237Y1624255D01*
Y1628967D01*
X354169Y1636036D01*
X311756Y1550173D02*
X316469Y1545461D01*
X314112Y1547817D01*
X328250Y1561955D01*
X323537Y1561955D01*
X330606Y1531323D02*
X344744Y1545461D01*
X330606Y1545461D01*
X340031Y1536036D01*
X311756Y1450173D02*
X316469Y1445461D01*
X314112Y1447817D01*
X328250Y1461955D01*
X323537Y1461955D01*
X347100Y1443104D02*
X340031Y1445461D01*
X330606D01*
X325894Y1440748D01*
Y1436036D01*
X330606Y1431323D01*
X335319D01*
X337675Y1433679D01*
Y1438392D01*
X330606Y1445461D01*
X311756Y1350173D02*
X316469Y1345461D01*
X314112Y1347817D01*
X328250Y1361955D01*
X323537Y1361955D01*
X335319Y1350173D02*
X340031Y1350173D01*
X344744Y1345461D01*
Y1340748D01*
X342387Y1338392D01*
X337675D01*
X335319Y1340748D01*
X337675Y1338392D01*
Y1333679D01*
X335319Y1331323D01*
X330606D01*
X325894Y1336036D01*
Y1340748D01*
X295000Y1228000D02*
X299712Y1223287D01*
X297356Y1225644D01*
X311494Y1239781D01*
X306781Y1239781D01*
X320919Y1230356D02*
X330344Y1220931D01*
X327988Y1218575D01*
X309138D01*
X306781Y1216219D01*
X291181Y1100575D02*
X281756Y1110000D01*
X300606D01*
X302962Y1112356D01*
Y1117069D01*
X298250Y1121781D01*
X293537Y1121781D01*
X307675Y1107644D02*
X312387Y1107644D01*
X317100Y1102931D01*
Y1098219D01*
X307675Y1088794D01*
X302962D01*
X298250Y1093506D01*
Y1098219D01*
X307675Y1107644D01*
X241777Y1000388D02*
Y1005100D01*
X237065Y1009813D01*
X232352Y1009813D01*
X222927Y1000388D01*
Y995675D01*
X227640Y990963D01*
X232352Y990963D01*
X237065Y995675D01*
X232352Y1000388D01*
X234708Y983894D02*
X248846Y998031D01*
X244133Y974469D01*
X258271Y988606D01*
X262983Y983894D02*
X248846Y969756D01*
X255915Y962688D01*
X260627Y962688D01*
X270052Y972113D01*
Y976825D01*
X262983Y983894D01*
X288923Y883262D02*
Y887974D01*
X284210Y892687D01*
X279498Y892687D01*
X270073Y883262D01*
Y878549D01*
X274785Y873837D01*
X279498Y873837D01*
X284210Y878549D01*
X279498Y883262D01*
X281854Y866768D02*
X295992Y880905D01*
X291279Y857343D01*
X305417Y871481D01*
X310129Y866768D02*
X295992Y852630D01*
X303060Y845562D01*
X307773Y845562D01*
X317198Y854987D01*
Y859699D01*
X310129Y866768D01*
X359072Y904556D02*
Y924550D01*
X369069D01*
X372401Y921218D01*
Y914553D01*
X369069Y911221D01*
X359072D01*
X365736D02*
X372401Y904556D01*
X379065Y907889D02*
X382398Y904556D01*
X389062D01*
X392394Y907889D01*
Y921218D01*
X389062Y924550D01*
X382398D01*
X379065Y921218D01*
Y917885D01*
X382398Y914553D01*
X392394D01*
X362404Y838509D02*
Y818515D01*
X372401D01*
X375733Y821848D01*
Y835177D01*
X372401Y838509D01*
X362404D01*
X382397Y818515D02*
X389062D01*
X385730D01*
Y838509D01*
X382397Y835177D01*
X394062Y728681D02*
X390729Y732013D01*
X384065D01*
X380733Y728681D01*
Y715351D01*
X384065Y712019D01*
X390729D01*
X394062Y715351D01*
X400726Y712019D02*
X407391D01*
X404058D01*
Y732013D01*
X400726Y728681D01*
X430716Y732013D02*
X417387D01*
Y722016D01*
X424052Y725348D01*
X427384D01*
X430716Y722016D01*
Y715351D01*
X427384Y712019D01*
X420720D01*
X417387Y715351D01*
X536799Y554862D02*
Y574855D01*
X546795D01*
X550128Y571523D01*
Y564859D01*
X546795Y561526D01*
X536799D01*
X543463D02*
X550128Y554862D01*
X570121Y574855D02*
X563457Y571523D01*
X556792Y564859D01*
Y558194D01*
X560125Y554862D01*
X566789D01*
X570121Y558194D01*
Y561526D01*
X566789Y564859D01*
X556792D01*
X799172Y887489D02*
Y874160D01*
X805837Y867496D01*
X812501Y874160D01*
Y887489D01*
X819166D02*
Y870828D01*
X822498Y867496D01*
X829162D01*
X832495Y870828D01*
Y887489D01*
X852488Y884157D02*
X849156Y887489D01*
X842491D01*
X839159Y884157D01*
Y880825D01*
X842491Y877492D01*
X849156D01*
X852488Y874160D01*
Y870828D01*
X849156Y867496D01*
X842491D01*
X839159Y870828D01*
X859153Y887489D02*
Y867496D01*
X869149D01*
X872482Y870828D01*
Y874160D01*
X869149Y877492D01*
X859153D01*
X869149D01*
X872482Y880825D01*
Y884157D01*
X869149Y887489D01*
X859153D01*
X454827Y2100063D02*
Y2080070D01*
X468156D01*
X484817D02*
Y2100063D01*
X474821Y2090066D01*
X488150D01*
X900105Y796442D02*
X896773Y799775D01*
X890109D01*
X886776Y796442D01*
Y783113D01*
X890109Y779781D01*
X896773D01*
X900105Y783113D01*
Y789778D01*
X893441D01*
X906770Y779781D02*
Y799775D01*
X920099Y779781D01*
Y799775D01*
X926763D02*
Y779781D01*
X936760D01*
X940092Y783113D01*
Y796442D01*
X936760Y799775D01*
X926763D01*
X376136Y2097216D02*
X372803Y2100548D01*
X366139D01*
X362807Y2097216D01*
Y2083887D01*
X366139Y2080554D01*
X372803D01*
X376136Y2083887D01*
X382800Y2080554D02*
X389465D01*
X386132D01*
Y2100548D01*
X382800Y2097216D01*
X412790Y2100548D02*
X399461D01*
Y2090551D01*
X406126Y2093883D01*
X409458D01*
X412790Y2090551D01*
Y2083887D01*
X409458Y2080554D01*
X402794D01*
X399461Y2083887D01*
X869892Y605841D02*
X866560Y609173D01*
X859895D01*
X856563Y605841D01*
Y592512D01*
X859895Y589180D01*
X866560D01*
X869892Y592512D01*
X876557Y609173D02*
X889886D01*
Y605841D01*
X876557Y592512D01*
Y589180D01*
X682683Y546988D02*
Y566981D01*
X692679D01*
X696012Y563649D01*
Y556985D01*
X692679Y553652D01*
X682683D01*
X689347D02*
X696012Y546988D01*
X716005Y566981D02*
X702676D01*
Y556985D01*
X709341Y560317D01*
X712673D01*
X716005Y556985D01*
Y550320D01*
X712673Y546988D01*
X706009D01*
X702676Y550320D01*
X643455Y325112D02*
X636791D01*
X640123D01*
Y308450D01*
X636791Y305118D01*
X633458D01*
X630126Y308450D01*
X663449Y305118D02*
X650120D01*
X663449Y318447D01*
Y321779D01*
X660116Y325112D01*
X653452D01*
X650120Y321779D01*
X827484Y1669260D02*
X830816Y1672592D01*
X837481D01*
X840813Y1669260D01*
Y1665928D01*
X837481Y1662596D01*
X834149D01*
X837481D01*
X840813Y1659264D01*
Y1655931D01*
X837481Y1652599D01*
X830816D01*
X827484Y1655931D01*
X847478Y1672592D02*
Y1659264D01*
X854142Y1652599D01*
X860807Y1659264D01*
Y1672592D01*
X867471Y1669260D02*
X870803Y1672592D01*
X877468D01*
X880800Y1669260D01*
Y1665928D01*
X877468Y1662596D01*
X874136D01*
X877468D01*
X880800Y1659264D01*
Y1655931D01*
X877468Y1652599D01*
X870803D01*
X867471Y1655931D01*
X882317Y1599566D02*
X878985Y1596234D01*
Y1589570D01*
X882317Y1586237D01*
X895646D01*
X898978Y1589570D01*
Y1596234D01*
X895646Y1599566D01*
X878985Y1619560D02*
Y1606231D01*
X888981D01*
X885649Y1612896D01*
Y1616228D01*
X888981Y1619560D01*
X895646D01*
X898978Y1616228D01*
Y1609563D01*
X895646Y1606231D01*
X732176Y1428512D02*
X748837D01*
X752169Y1431844D01*
Y1438509D01*
X748837Y1441841D01*
X732176D01*
X752169Y1461835D02*
Y1448506D01*
X738840Y1461835D01*
X735508D01*
X732176Y1458502D01*
Y1451838D01*
X735508Y1448506D01*
X801218Y1292326D02*
X797885Y1288994D01*
Y1282330D01*
X801218Y1278997D01*
X814547D01*
X817879Y1282330D01*
Y1288994D01*
X814547Y1292326D01*
X817879Y1308988D02*
X797885D01*
X807882Y1298991D01*
Y1312320D01*
X885423Y1514144D02*
X905417D01*
Y1527473D01*
X888755Y1534137D02*
X885423Y1537469D01*
Y1544134D01*
X888755Y1547466D01*
X892088D01*
X895420Y1544134D01*
Y1540802D01*
Y1544134D01*
X898752Y1547466D01*
X902084D01*
X905417Y1544134D01*
Y1537469D01*
X902084Y1534137D01*
X898978Y1324273D02*
X878985D01*
Y1334270D01*
X882317Y1337602D01*
X888981D01*
X892314Y1334270D01*
Y1324273D01*
Y1330938D02*
X898978Y1337602D01*
Y1354263D02*
X878985D01*
X888981Y1344267D01*
Y1357596D01*
X537795Y673392D02*
Y656731D01*
X541128Y653398D01*
X547792D01*
X551124Y656731D01*
Y673392D01*
X567786Y653398D02*
Y673392D01*
X557789Y663395D01*
X571118D01*
X452658Y776971D02*
Y796965D01*
X462654D01*
X465987Y793632D01*
Y786968D01*
X462654Y783635D01*
X452658D01*
X459322D02*
X465987Y776971D01*
X472651D02*
X479316D01*
X475983D01*
Y796965D01*
X472651Y793632D01*
X502641Y776971D02*
X489312D01*
X502641Y790300D01*
Y793632D01*
X499309Y796965D01*
X492645D01*
X489312Y793632D01*
X613259Y884545D02*
X609927Y881213D01*
Y874549D01*
X613259Y871216D01*
X626588D01*
X629920Y874549D01*
Y881213D01*
X626588Y884545D01*
X629920Y891210D02*
Y897875D01*
Y894542D01*
X609927D01*
X613259Y891210D01*
X629920Y917868D02*
X609927D01*
X619923Y907871D01*
Y921200D01*
X798602Y689465D02*
X795270Y692797D01*
X788605D01*
X785273Y689465D01*
Y676136D01*
X788605Y672803D01*
X795270D01*
X798602Y676136D01*
X805266Y672803D02*
X811931D01*
X808599D01*
Y692797D01*
X805266Y689465D01*
X821928D02*
X825260Y692797D01*
X831925D01*
X835257Y689465D01*
Y686132D01*
X831925Y682800D01*
X828592D01*
X831925D01*
X835257Y679468D01*
Y676136D01*
X831925Y672803D01*
X825260D01*
X821928Y676136D01*
X800068Y1212624D02*
Y1232618D01*
X810065D01*
X813397Y1229286D01*
Y1222621D01*
X810065Y1219289D01*
X800068D01*
X806733D02*
X813397Y1212624D01*
X820062Y1229286D02*
X823394Y1232618D01*
X830059D01*
X833391Y1229286D01*
Y1225953D01*
X830059Y1222621D01*
X833391Y1219289D01*
Y1215957D01*
X830059Y1212624D01*
X823394D01*
X820062Y1215957D01*
Y1219289D01*
X823394Y1222621D01*
X820062Y1225953D01*
Y1229286D01*
X823394Y1222621D02*
X830059D01*
X800068Y1248417D02*
Y1268411D01*
X810065D01*
X813397Y1265078D01*
Y1258414D01*
X810065Y1255082D01*
X800068D01*
X806733D02*
X813397Y1248417D01*
X820062Y1268411D02*
X833391D01*
Y1265078D01*
X820062Y1251749D01*
Y1248417D01*
X432284Y1187181D02*
X452277D01*
Y1177184D01*
X448945Y1173852D01*
X442280D01*
X438948Y1177184D01*
Y1187181D01*
Y1180517D02*
X432284Y1173852D01*
X448945Y1167188D02*
X452277Y1163855D01*
Y1157191D01*
X448945Y1153859D01*
X445613D01*
X442280Y1157191D01*
Y1160523D01*
Y1157191D01*
X438948Y1153859D01*
X435616D01*
X432284Y1157191D01*
Y1163855D01*
X435616Y1167188D01*
X473433Y1187181D02*
X493427D01*
Y1177184D01*
X490094Y1173852D01*
X483430D01*
X480098Y1177184D01*
Y1187181D01*
Y1180517D02*
X473433Y1173852D01*
Y1153859D02*
Y1167188D01*
X486762Y1153859D01*
X490094D01*
X493427Y1157191D01*
Y1163855D01*
X490094Y1167188D01*
X518126Y1187181D02*
X538119D01*
Y1177184D01*
X534787Y1173852D01*
X528122D01*
X524790Y1177184D01*
Y1187181D01*
Y1180517D02*
X518126Y1173852D01*
Y1167188D02*
Y1160523D01*
Y1163855D01*
X538119D01*
X534787Y1167188D01*
X804971Y1191842D02*
X801639Y1195175D01*
X794974D01*
X791642Y1191842D01*
Y1178514D01*
X794974Y1175181D01*
X801639D01*
X804971Y1178514D01*
X811635Y1175181D02*
X818300D01*
X814968D01*
Y1195175D01*
X811635Y1191842D01*
X828297D02*
X831629Y1195175D01*
X838294D01*
X841626Y1191842D01*
Y1178514D01*
X838294Y1175181D01*
X831629D01*
X828297Y1178514D01*
Y1191842D01*
X514065Y1791983D02*
X510733Y1795315D01*
X504068D01*
X500736Y1791983D01*
Y1778654D01*
X504068Y1775322D01*
X510733D01*
X514065Y1778654D01*
X534059Y1795315D02*
X527394Y1791983D01*
X520730Y1785318D01*
Y1778654D01*
X524062Y1775322D01*
X530726D01*
X534059Y1778654D01*
Y1781986D01*
X530726Y1785318D01*
X520730D01*
X462148Y1803079D02*
X458816Y1806411D01*
X452151D01*
X448819Y1803079D01*
Y1789750D01*
X452151Y1786417D01*
X458816D01*
X462148Y1789750D01*
X468812Y1803079D02*
X472145Y1806411D01*
X478809D01*
X482141Y1803079D01*
Y1799746D01*
X478809Y1796414D01*
X482141Y1793082D01*
Y1789750D01*
X478809Y1786417D01*
X472145D01*
X468812Y1789750D01*
Y1793082D01*
X472145Y1796414D01*
X468812Y1799746D01*
Y1803079D01*
X472145Y1796414D02*
X478809D01*
X448368Y1128866D02*
X445036Y1132198D01*
X438372D01*
X435039Y1128866D01*
Y1125534D01*
X438372Y1122201D01*
X445036D01*
X448368Y1118869D01*
Y1115537D01*
X445036Y1112205D01*
X438372D01*
X435039Y1115537D01*
X455033Y1132198D02*
Y1112205D01*
X461697Y1118869D01*
X468362Y1112205D01*
Y1132198D01*
X485023D02*
X478359D01*
X475026Y1128866D01*
Y1115537D01*
X478359Y1112205D01*
X485023D01*
X488355Y1115537D01*
Y1128866D01*
X485023Y1132198D01*
X495020D02*
X508349D01*
X501684D01*
Y1112205D01*
X528342Y1128866D02*
X525010Y1132198D01*
X518346D01*
X515013Y1128866D01*
Y1115537D01*
X518346Y1112205D01*
X525010D01*
X528342Y1115537D01*
X535007Y1132198D02*
Y1112205D01*
Y1122201D01*
X548336D01*
Y1132198D01*
Y1112205D01*
X555000Y1132198D02*
X561665D01*
X558333D01*
Y1112205D01*
X555000D01*
X561665D01*
X769685D02*
Y1132198D01*
X779682D01*
X783014Y1128866D01*
Y1122201D01*
X779682Y1118869D01*
X769685D01*
X776350D02*
X783014Y1112205D01*
X803008Y1132198D02*
X789678D01*
Y1112205D01*
X803008D01*
X789678Y1122201D02*
X796343D01*
X823001Y1128866D02*
X819669Y1132198D01*
X813004D01*
X809672Y1128866D01*
Y1125534D01*
X813004Y1122201D01*
X819669D01*
X823001Y1118869D01*
Y1115537D01*
X819669Y1112205D01*
X813004D01*
X809672Y1115537D01*
X842995Y1132198D02*
X829665D01*
Y1112205D01*
X842995D01*
X829665Y1122201D02*
X836330D01*
X849659Y1132198D02*
X862988D01*
X856323D01*
Y1112205D01*
X259392Y561332D02*
X252727D01*
X256060D01*
Y544671D01*
X252727Y541339D01*
X249395D01*
X246063Y544671D01*
X266057Y541339D02*
X272721D01*
X269389D01*
Y561332D01*
X266057Y558000D01*
X711737Y1669260D02*
X708405Y1672592D01*
X701740D01*
X698408Y1669260D01*
Y1655931D01*
X701740Y1652599D01*
X708405D01*
X711737Y1655931D01*
X718402Y1669260D02*
X721734Y1672592D01*
X728398D01*
X731731Y1669260D01*
Y1665928D01*
X728398Y1662596D01*
X725066D01*
X728398D01*
X731731Y1659264D01*
Y1655931D01*
X728398Y1652599D01*
X721734D01*
X718402Y1655931D01*
X619729Y1783380D02*
X633058Y1763386D01*
Y1783380D02*
X619729Y1763386D01*
X639722D02*
X646386D01*
X643054D01*
Y1783380D01*
X639722Y1780048D01*
X655061Y1867055D02*
X651729Y1870387D01*
X645065D01*
X641732Y1867055D01*
Y1853726D01*
X645065Y1850394D01*
X651729D01*
X655061Y1853726D01*
X661726Y1850394D02*
X668390D01*
X665058D01*
Y1870387D01*
X661726Y1867055D01*
X553304Y1666835D02*
X549972Y1670167D01*
X543307D01*
X539975Y1666835D01*
Y1653506D01*
X543307Y1650173D01*
X549972D01*
X553304Y1653506D01*
X573297Y1650173D02*
X559968D01*
X573297Y1663502D01*
Y1666835D01*
X569965Y1670167D01*
X563301D01*
X559968Y1666835D01*
X608000Y1129994D02*
Y1110000D01*
X617997D01*
X621329Y1113332D01*
Y1126661D01*
X617997Y1129994D01*
X608000D01*
X627994Y1110000D02*
X634658D01*
X631326D01*
Y1123329D01*
X627994D01*
X647987Y1110000D02*
X654652D01*
X657984Y1113332D01*
Y1119997D01*
X654652Y1123329D01*
X647987D01*
X644655Y1119997D01*
Y1113332D01*
X647987Y1110000D01*
X677977Y1129994D02*
Y1110000D01*
X667981D01*
X664648Y1113332D01*
Y1119997D01*
X667981Y1123329D01*
X677977D01*
X401124Y1670167D02*
X394460D01*
X397792D01*
Y1653506D01*
X394460Y1650173D01*
X391128D01*
X387795Y1653506D01*
X407789Y1670167D02*
X421118D01*
X414453D01*
Y1650173D01*
X427782D02*
Y1663502D01*
X434447Y1670167D01*
X441111Y1663502D01*
Y1650173D01*
Y1660170D01*
X427782D01*
X461105Y1666835D02*
X457773Y1670167D01*
X451108D01*
X447776Y1666835D01*
Y1653506D01*
X451108Y1650173D01*
X457773D01*
X461105Y1653506D01*
Y1660170D01*
X454440D01*
X639764Y2126293D02*
Y2109631D01*
X643096Y2106299D01*
X649761D01*
X653093Y2109631D01*
Y2126293D01*
X659757Y2106299D02*
X666422D01*
X663090D01*
Y2126293D01*
X659757Y2122961D01*
X865833Y1870079D02*
X885827D01*
Y1883408D01*
Y1903401D02*
Y1890072D01*
X872498Y1903401D01*
X869165D01*
X865833Y1900069D01*
Y1893405D01*
X869165Y1890072D01*
X787402Y1831017D02*
Y1811024D01*
X800731D01*
X807395D02*
X814060D01*
X810727D01*
Y1831017D01*
X807395Y1827685D01*
D65*
X412599Y899489D02*
Y929016D01*
X481496Y899489D02*
Y929016D01*
X456890Y899489D02*
X481496D01*
X412599D02*
X437205D01*
X456890Y929016D02*
X481496D01*
X412599D02*
X437205D01*
X448633Y735798D02*
X474224D01*
X493909D02*
X519499D01*
X448633Y708240D02*
X474224D01*
X493909D02*
X519499D01*
X519499Y735798D02*
X519499Y708240D01*
X448633Y735798D02*
X448633Y708240D01*
X793119Y564858D02*
X829536D01*
X849221D02*
X885638D01*
X793119Y525488D02*
X829536D01*
X849221D02*
X885638D01*
Y564858D01*
X793119Y525488D02*
Y564858D01*
X415357Y2037398D02*
Y2062989D01*
Y1992123D02*
Y2017713D01*
X387798Y2037398D02*
Y2062989D01*
Y1992123D02*
Y2017713D01*
Y1992123D02*
X415357Y1992123D01*
X387798Y2062989D02*
X415357Y2062989D01*
X479422Y2035429D02*
X505012D01*
X434146D02*
X459737D01*
X479422Y2062988D02*
X505012D01*
X434146D02*
X459737D01*
X434146Y2035429D02*
Y2062988D01*
X505012Y2035429D02*
Y2062988D01*
X733264Y518701D02*
X762792D01*
X733264Y587598D02*
X762792D01*
Y562992D02*
Y587598D01*
Y518701D02*
Y543307D01*
X733264Y562992D02*
Y587598D01*
Y518701D02*
Y543307D01*
X587362Y516752D02*
X616890D01*
X587362Y585650D02*
X616890D01*
Y561043D02*
Y585650D01*
Y516752D02*
Y541358D01*
X587362Y561043D02*
Y585650D01*
Y516752D02*
Y541358D01*
X866937Y1489220D02*
Y1571898D01*
X748827Y1489220D02*
Y1571898D01*
X835441D02*
X866937D01*
X837410Y1489220D02*
X866937D01*
X748827D02*
X780323D01*
X748827Y1571898D02*
X780323D01*
X850397Y1889761D02*
Y1915351D01*
Y1844485D02*
Y1870075D01*
X822838Y1889761D02*
Y1915351D01*
Y1844485D02*
Y1870075D01*
Y1844485D02*
X850397D01*
X822838Y1915351D02*
X850397D01*
X793304Y1846454D02*
X818894D01*
X748028D02*
X773619D01*
X793304Y1874013D02*
X818894D01*
X748028D02*
X773619D01*
X748028Y1846454D02*
Y1874013D01*
X818894Y1846454D02*
Y1874013D01*
X761622Y1610773D02*
X798040D01*
X817725D02*
X854142D01*
X761622Y1571403D02*
X798040D01*
X817725D02*
X854142D01*
Y1610773D01*
X761622Y1571403D02*
Y1610773D01*
X821662Y1330340D02*
X858079D01*
X765559D02*
X801977D01*
X821662Y1369710D02*
X858079D01*
X765559D02*
X801977D01*
X765559Y1330340D02*
Y1369710D01*
X858079Y1330340D02*
Y1369710D01*
X657811Y1389911D02*
X664476D01*
X661143D01*
Y1409904D01*
X657811Y1406572D01*
D66*
X523622Y1381299D02*
Y1431496D01*
X629921D01*
X381890Y1381299D02*
Y1631299D01*
X629921Y1381299D02*
Y1631299D01*
X381890Y1381299D02*
X629921D01*
X381890Y1631299D02*
X629921D01*
%TF.MD5,a347568661b0181158dea9b55716eb04*%
M02*
