%TF.GenerationSoftware,Altium Limited,Altium Designer,20.0.10 (225)*%
G04 Layer_Color=2752767*
%FSLAX26Y26*%
%MOIN*%
%TF.FileFunction,Drawing*%
%TF.Part,Single*%
G01*
G75*
%TA.AperFunction,NonConductor*%
%ADD64C,0.005000*%
%ADD107C,0.006667*%
D64*
X815827Y226063D02*
Y266063D01*
X855827D01*
Y226063D01*
X815827D01*
X475669D02*
Y266063D01*
X515669D01*
Y226063D01*
X475669D01*
X779528Y369764D02*
X759528Y409764D01*
X799528D01*
X779528Y369764D01*
X551968D02*
X531968Y409764D01*
X571968D01*
X551968Y369764D01*
X1031756Y2075173D02*
X1041756Y2085173D01*
X1051756D01*
X1041756Y2095173D01*
X1051756Y2105173D01*
X1041756D01*
X1031756Y2115173D01*
X1021756Y2105173D01*
X1011756D01*
X1021756Y2095173D01*
X1011756Y2085173D01*
X1021756D01*
X1031756Y2075173D01*
X281756D02*
X291756Y2085173D01*
X301756D01*
X291756Y2095173D01*
X301756Y2105173D01*
X291756D01*
X281756Y2115173D01*
X271756Y2105173D01*
X261756D01*
X271756Y2095173D01*
X261756Y2085173D01*
X271756D01*
X281756Y2075173D01*
X286756Y275173D02*
X296756Y295173D01*
X286756Y315173D01*
X306756Y305173D01*
X326756Y315173D01*
X316756Y295173D01*
X326756Y275173D01*
X306756Y285173D01*
X286756Y275173D01*
X986756D02*
X996756Y295173D01*
X986756Y315173D01*
X1006756Y305173D01*
X1026756Y315173D01*
X1016756Y295173D01*
X1026756Y275173D01*
X1006756Y285173D01*
X986756Y275173D01*
X1046756Y435173D02*
Y425173D01*
X1066756D01*
Y435173D01*
X1076756D01*
Y455173D01*
X1066756D01*
Y465173D01*
X1046756D01*
Y455173D01*
X1036756D01*
Y435173D01*
X1046756D01*
Y535173D02*
Y525173D01*
X1066756D01*
Y535173D01*
X1076756D01*
Y555173D01*
X1066756D01*
Y565173D01*
X1046756D01*
Y555173D01*
X1036756D01*
Y535173D01*
X1046756D01*
Y635173D02*
Y625173D01*
X1066756D01*
Y635173D01*
X1076756D01*
Y655173D01*
X1066756D01*
Y665173D01*
X1046756D01*
Y655173D01*
X1036756D01*
Y635173D01*
X1046756D01*
Y735173D02*
Y725173D01*
X1066756D01*
Y735173D01*
X1076756D01*
Y755173D01*
X1066756D01*
Y765173D01*
X1046756D01*
Y755173D01*
X1036756D01*
Y735173D01*
X1046756D01*
Y835173D02*
Y825173D01*
X1066756D01*
Y835173D01*
X1076756D01*
Y855173D01*
X1066756D01*
Y865173D01*
X1046756D01*
Y855173D01*
X1036756D01*
Y835173D01*
X1046756D01*
Y935173D02*
Y925173D01*
X1066756D01*
Y935173D01*
X1076756D01*
Y955173D01*
X1066756D01*
Y965173D01*
X1046756D01*
Y955173D01*
X1036756D01*
Y935173D01*
X1046756D01*
Y1035173D02*
Y1025173D01*
X1066756D01*
Y1035173D01*
X1076756D01*
Y1055173D01*
X1066756D01*
Y1065173D01*
X1046756D01*
Y1055173D01*
X1036756D01*
Y1035173D01*
X1046756D01*
Y1135173D02*
Y1125173D01*
X1066756D01*
Y1135173D01*
X1076756D01*
Y1155173D01*
X1066756D01*
Y1165173D01*
X1046756D01*
Y1155173D01*
X1036756D01*
Y1135173D01*
X1046756D01*
Y1235173D02*
Y1225173D01*
X1066756D01*
Y1235173D01*
X1076756D01*
Y1255173D01*
X1066756D01*
Y1265173D01*
X1046756D01*
Y1255173D01*
X1036756D01*
Y1235173D01*
X1046756D01*
Y1335173D02*
Y1325173D01*
X1066756D01*
Y1335173D01*
X1076756D01*
Y1355173D01*
X1066756D01*
Y1365173D01*
X1046756D01*
Y1355173D01*
X1036756D01*
Y1335173D01*
X1046756D01*
Y1435173D02*
Y1425173D01*
X1066756D01*
Y1435173D01*
X1076756D01*
Y1455173D01*
X1066756D01*
Y1465173D01*
X1046756D01*
Y1455173D01*
X1036756D01*
Y1435173D01*
X1046756D01*
Y1535173D02*
Y1525173D01*
X1066756D01*
Y1535173D01*
X1076756D01*
Y1555173D01*
X1066756D01*
Y1565173D01*
X1046756D01*
Y1555173D01*
X1036756D01*
Y1535173D01*
X1046756D01*
Y1635173D02*
Y1625173D01*
X1066756D01*
Y1635173D01*
X1076756D01*
Y1655173D01*
X1066756D01*
Y1665173D01*
X1046756D01*
Y1655173D01*
X1036756D01*
Y1635173D01*
X1046756D01*
Y1735173D02*
Y1725173D01*
X1066756D01*
Y1735173D01*
X1076756D01*
Y1755173D01*
X1066756D01*
Y1765173D01*
X1046756D01*
Y1755173D01*
X1036756D01*
Y1735173D01*
X1046756D01*
Y1835173D02*
Y1825173D01*
X1066756D01*
Y1835173D01*
X1076756D01*
Y1855173D01*
X1066756D01*
Y1865173D01*
X1046756D01*
Y1855173D01*
X1036756D01*
Y1835173D01*
X1046756D01*
Y1935173D02*
Y1925173D01*
X1066756D01*
Y1935173D01*
X1076756D01*
Y1955173D01*
X1066756D01*
Y1965173D01*
X1046756D01*
Y1955173D01*
X1036756D01*
Y1935173D01*
X1046756D01*
X246756Y835173D02*
Y825173D01*
X266756D01*
Y835173D01*
X276756D01*
Y855173D01*
X266756D01*
Y865173D01*
X246756D01*
Y855173D01*
X236756D01*
Y835173D01*
X246756D01*
Y935173D02*
Y925173D01*
X266756D01*
Y935173D01*
X276756D01*
Y955173D01*
X266756D01*
Y965173D01*
X246756D01*
Y955173D01*
X236756D01*
Y935173D01*
X246756D01*
Y1035173D02*
Y1025173D01*
X266756D01*
Y1035173D01*
X276756D01*
Y1055173D01*
X266756D01*
Y1065173D01*
X246756D01*
Y1055173D01*
X236756D01*
Y1035173D01*
X246756D01*
Y1135173D02*
Y1125173D01*
X266756D01*
Y1135173D01*
X276756D01*
Y1155173D01*
X266756D01*
Y1165173D01*
X246756D01*
Y1155173D01*
X236756D01*
Y1135173D01*
X246756D01*
Y1235173D02*
Y1225173D01*
X266756D01*
Y1235173D01*
X276756D01*
Y1255173D01*
X266756D01*
Y1265173D01*
X246756D01*
Y1255173D01*
X236756D01*
Y1235173D01*
X246756D01*
Y1335173D02*
Y1325173D01*
X266756D01*
Y1335173D01*
X276756D01*
Y1355173D01*
X266756D01*
Y1365173D01*
X246756D01*
Y1355173D01*
X236756D01*
Y1335173D01*
X246756D01*
Y1435173D02*
Y1425173D01*
X266756D01*
Y1435173D01*
X276756D01*
Y1455173D01*
X266756D01*
Y1465173D01*
X246756D01*
Y1455173D01*
X236756D01*
Y1435173D01*
X246756D01*
Y1535173D02*
Y1525173D01*
X266756D01*
Y1535173D01*
X276756D01*
Y1555173D01*
X266756D01*
Y1565173D01*
X246756D01*
Y1555173D01*
X236756D01*
Y1535173D01*
X246756D01*
Y1635173D02*
Y1625173D01*
X266756D01*
Y1635173D01*
X276756D01*
Y1655173D01*
X266756D01*
Y1665173D01*
X246756D01*
Y1655173D01*
X236756D01*
Y1635173D01*
X246756D01*
Y1735173D02*
Y1725173D01*
X266756D01*
Y1735173D01*
X276756D01*
Y1755173D01*
X266756D01*
Y1765173D01*
X246756D01*
Y1755173D01*
X236756D01*
Y1735173D01*
X246756D01*
Y1835173D02*
Y1825173D01*
X266756D01*
Y1835173D01*
X276756D01*
Y1855173D01*
X266756D01*
Y1865173D01*
X246756D01*
Y1855173D01*
X236756D01*
Y1835173D01*
X246756D01*
Y1935173D02*
Y1925173D01*
X266756D01*
Y1935173D01*
X276756D01*
Y1955173D01*
X266756D01*
Y1965173D01*
X246756D01*
Y1955173D01*
X236756D01*
Y1935173D01*
X246756D01*
X629464Y355841D02*
X639464D01*
X649464Y365841D01*
X659464Y355841D01*
X669464D01*
Y365841D01*
X659464Y375841D01*
X669464Y385841D01*
Y395841D01*
X659464D01*
X649464Y385841D01*
X639464Y395841D01*
X629464D01*
Y385841D01*
X639464Y375841D01*
X629464Y365841D01*
Y355841D01*
X448491Y1928509D02*
X458491D01*
X468491Y1938509D01*
X478491Y1928509D01*
X488491D01*
Y1938509D01*
X478491Y1948509D01*
X488491Y1958509D01*
Y1968509D01*
X478491D01*
X468491Y1958509D01*
X458491Y1968509D01*
X448491D01*
Y1958509D01*
X458491Y1948509D01*
X448491Y1938509D01*
Y1928509D01*
X336496Y1888080D02*
X346496D01*
X356496Y1898080D01*
X366496Y1888080D01*
X376496D01*
Y1898080D01*
X366496Y1908080D01*
X376496Y1918080D01*
Y1928080D01*
X366496D01*
X356496Y1918080D01*
X346496Y1928080D01*
X336496D01*
Y1918080D01*
X346496Y1908080D01*
X336496Y1898080D01*
Y1888080D01*
X376851Y1917930D02*
X386851D01*
X396851Y1927930D01*
X406851Y1917930D01*
X416851D01*
Y1927930D01*
X406851Y1937930D01*
X416851Y1947930D01*
Y1957930D01*
X406851D01*
X396851Y1947930D01*
X386851Y1957930D01*
X376851D01*
Y1947930D01*
X386851Y1937930D01*
X376851Y1927930D01*
Y1917930D01*
X615000Y2057000D02*
X625000D01*
X635000Y2067000D01*
X645000Y2057000D01*
X655000D01*
Y2067000D01*
X645000Y2077000D01*
X655000Y2087000D01*
Y2097000D01*
X645000D01*
X635000Y2087000D01*
X625000Y2097000D01*
X615000D01*
Y2087000D01*
X625000Y2077000D01*
X615000Y2067000D01*
Y2057000D01*
X678408Y2057043D02*
X688408D01*
X698408Y2067043D01*
X708408Y2057043D01*
X718408D01*
Y2067043D01*
X708408Y2077043D01*
X718408Y2087043D01*
Y2097043D01*
X708408D01*
X698408Y2087043D01*
X688408Y2097043D01*
X678408D01*
Y2087043D01*
X688408Y2077043D01*
X678408Y2067043D01*
Y2057043D01*
X720705Y1991811D02*
X730705D01*
X740705Y2001811D01*
X750705Y1991811D01*
X760705D01*
Y2001811D01*
X750705Y2011811D01*
X760705Y2021811D01*
Y2031811D01*
X750705D01*
X740705Y2021811D01*
X730705Y2031811D01*
X720705D01*
Y2021811D01*
X730705Y2011811D01*
X720705Y2001811D01*
Y1991811D01*
X529987Y1748987D02*
X539987D01*
X549987Y1758987D01*
X559987Y1748987D01*
X569987D01*
Y1758987D01*
X559987Y1768987D01*
X569987Y1778987D01*
Y1788987D01*
X559987D01*
X549987Y1778987D01*
X539987Y1788987D01*
X529987D01*
Y1778987D01*
X539987Y1768987D01*
X529987Y1758987D01*
Y1748987D01*
X525685Y1787105D02*
X535685D01*
X545685Y1797105D01*
X555685Y1787105D01*
X565685D01*
Y1797105D01*
X555685Y1807105D01*
X565685Y1817105D01*
Y1827105D01*
X555685D01*
X545685Y1817105D01*
X535685Y1827105D01*
X525685D01*
Y1817105D01*
X535685Y1807105D01*
X525685Y1797105D01*
Y1787105D01*
X592953Y1849094D02*
X602953D01*
X612953Y1859094D01*
X622953Y1849094D01*
X632953D01*
Y1859094D01*
X622953Y1869094D01*
X632953Y1879094D01*
Y1889094D01*
X622953D01*
X612953Y1879094D01*
X602953Y1889094D01*
X592953D01*
Y1879094D01*
X602953Y1869094D01*
X592953Y1859094D01*
Y1849094D01*
X592952Y1815266D02*
X602952D01*
X612952Y1825266D01*
X622952Y1815266D01*
X632952D01*
Y1825266D01*
X622952Y1835266D01*
X632952Y1845266D01*
Y1855266D01*
X622952D01*
X612952Y1845266D01*
X602952Y1855266D01*
X592952D01*
Y1845266D01*
X602952Y1835266D01*
X592952Y1825266D01*
Y1815266D01*
X485899Y1808656D02*
X495899D01*
X505899Y1818656D01*
X515899Y1808656D01*
X525899D01*
Y1818656D01*
X515899Y1828656D01*
X525899Y1838656D01*
Y1848656D01*
X515899D01*
X505899Y1838656D01*
X495899Y1848656D01*
X485899D01*
Y1838656D01*
X495899Y1828656D01*
X485899Y1818656D01*
Y1808656D01*
X498701Y1866811D02*
X508701D01*
X518701Y1876811D01*
X528701Y1866811D01*
X538701D01*
Y1876811D01*
X528701Y1886811D01*
X538701Y1896811D01*
Y1906811D01*
X528701D01*
X518701Y1896811D01*
X508701Y1906811D01*
X498701D01*
Y1896811D01*
X508701Y1886811D01*
X498701Y1876811D01*
Y1866811D01*
X392599Y1725465D02*
X402599D01*
X412599Y1735465D01*
X422599Y1725465D01*
X432599D01*
Y1735465D01*
X422599Y1745465D01*
X432599Y1755465D01*
Y1765465D01*
X422599D01*
X412599Y1755465D01*
X402599Y1765465D01*
X392599D01*
Y1755465D01*
X402599Y1745465D01*
X392599Y1735465D01*
Y1725465D01*
X645355Y2056581D02*
X655355D01*
X665355Y2066581D01*
X675355Y2056581D01*
X685355D01*
Y2066581D01*
X675355Y2076581D01*
X685355Y2086581D01*
Y2096581D01*
X675355D01*
X665355Y2086581D01*
X655355Y2096581D01*
X645355D01*
Y2086581D01*
X655355Y2076581D01*
X645355Y2066581D01*
Y2056581D01*
X686504Y371961D02*
X696504D01*
X706504Y381961D01*
X716504Y371961D01*
X726504D01*
Y381961D01*
X716504Y391961D01*
X726504Y401961D01*
Y411961D01*
X716504D01*
X706504Y401961D01*
X696504Y411961D01*
X686504D01*
Y401961D01*
X696504Y391961D01*
X686504Y381961D01*
Y371961D01*
X601751Y373382D02*
X611751D01*
X621751Y383382D01*
X631751Y373382D01*
X641751D01*
Y383382D01*
X631751Y393382D01*
X641751Y403382D01*
Y413382D01*
X631751D01*
X621751Y403382D01*
X611751Y413382D01*
X601751D01*
Y403382D01*
X611751Y393382D01*
X601751Y383382D01*
Y373382D01*
X653000Y384000D02*
X663000D01*
X673000Y394000D01*
X683000Y384000D01*
X693000D01*
Y394000D01*
X683000Y404000D01*
X693000Y414000D01*
Y424000D01*
X683000D01*
X673000Y414000D01*
X663000Y424000D01*
X653000D01*
Y414000D01*
X663000Y404000D01*
X653000Y394000D01*
Y384000D01*
X496217Y871994D02*
X506217D01*
X516217Y881994D01*
X526217Y871994D01*
X536217D01*
Y881994D01*
X526217Y891994D01*
X536217Y901994D01*
Y911994D01*
X526217D01*
X516217Y901994D01*
X506217Y911994D01*
X496217D01*
Y901994D01*
X506217Y891994D01*
X496217Y881994D01*
Y871994D01*
X428819Y1704409D02*
X438819D01*
X448819Y1714409D01*
X458819Y1704409D01*
X468819D01*
Y1714409D01*
X458819Y1724409D01*
X468819Y1734409D01*
Y1744409D01*
X458819D01*
X448819Y1734409D01*
X438819Y1744409D01*
X428819D01*
Y1734409D01*
X438819Y1724409D01*
X428819Y1714409D01*
Y1704409D01*
X554207Y1844925D02*
X564207D01*
X574207Y1854925D01*
X584207Y1844925D01*
X594207D01*
Y1854925D01*
X584207Y1864925D01*
X594207Y1874925D01*
Y1884925D01*
X584207D01*
X574207Y1874925D01*
X564207Y1884925D01*
X554207D01*
Y1874925D01*
X564207Y1864925D01*
X554207Y1854925D01*
Y1844925D01*
X801662Y1704409D02*
X811662D01*
X821662Y1714409D01*
X831662Y1704409D01*
X841662D01*
Y1714409D01*
X831662Y1724409D01*
X841662Y1734409D01*
Y1744409D01*
X831662D01*
X821662Y1734409D01*
X811662Y1744409D01*
X801662D01*
Y1734409D01*
X811662Y1724409D01*
X801662Y1714409D01*
Y1704409D01*
X446541Y1293858D02*
X456541D01*
X466541Y1303858D01*
X476541Y1293858D01*
X486541D01*
Y1303858D01*
X476541Y1313858D01*
X486541Y1323858D01*
Y1333858D01*
X476541D01*
X466541Y1323858D01*
X456541Y1333858D01*
X446541D01*
Y1323858D01*
X456541Y1313858D01*
X446541Y1303858D01*
Y1293858D01*
X886056Y202737D02*
X896056D01*
X906056Y212737D01*
X916056Y202737D01*
X926056D01*
Y212737D01*
X916056Y222737D01*
X926056Y232737D01*
Y242737D01*
X916056D01*
X906056Y232737D01*
X896056Y242737D01*
X886056D01*
Y232737D01*
X896056Y222737D01*
X886056Y212737D01*
Y202737D01*
X407355Y201318D02*
X417355D01*
X427355Y211318D01*
X437355Y201318D01*
X447355D01*
Y211318D01*
X437355Y221318D01*
X447355Y231318D01*
Y241318D01*
X437355D01*
X427355Y231318D01*
X417355Y241318D01*
X407355D01*
Y231318D01*
X417355Y221318D01*
X407355Y211318D01*
Y201318D01*
X743442Y202737D02*
X753442D01*
X763442Y212737D01*
X773442Y202737D01*
X783442D01*
Y212737D01*
X773442Y222737D01*
X783442Y232737D01*
Y242737D01*
X773442D01*
X763442Y232737D01*
X753442Y242737D01*
X743442D01*
Y232737D01*
X753442Y222737D01*
X743442Y212737D01*
Y202737D01*
X677264D02*
X687264D01*
X697264Y212737D01*
X707264Y202737D01*
X717264D01*
Y212737D01*
X707264Y222737D01*
X717264Y232737D01*
Y242737D01*
X707264D01*
X697264Y232737D01*
X687264Y242737D01*
X677264D01*
Y232737D01*
X687264Y222737D01*
X677264Y212737D01*
Y202737D01*
X607058D02*
X617058D01*
X627058Y212737D01*
X637058Y202737D01*
X647058D01*
Y212737D01*
X637058Y222737D01*
X647058Y232737D01*
Y242737D01*
X637058D01*
X627058Y232737D01*
X617058Y242737D01*
X607058D01*
Y232737D01*
X617058Y222737D01*
X607058Y212737D01*
Y202737D01*
X543717D02*
X553717D01*
X563717Y212737D01*
X573717Y202737D01*
X583717D01*
Y212737D01*
X573717Y222737D01*
X583717Y232737D01*
Y242737D01*
X573717D01*
X563717Y232737D01*
X553717Y242737D01*
X543717D01*
Y232737D01*
X553717Y222737D01*
X543717Y212737D01*
Y202737D01*
X689832Y889216D02*
X699832D01*
X709832Y899216D01*
X719832Y889216D01*
X729832D01*
Y899216D01*
X719832Y909216D01*
X729832Y919216D01*
Y929216D01*
X719832D01*
X709832Y919216D01*
X699832Y929216D01*
X689832D01*
Y919216D01*
X699832Y909216D01*
X689832Y899216D01*
Y889216D01*
X468437Y983940D02*
X478437D01*
X488437Y993940D01*
X498437Y983940D01*
X508437D01*
Y993940D01*
X498437Y1003940D01*
X508437Y1013940D01*
Y1023940D01*
X498437D01*
X488437Y1013940D01*
X478437Y1023940D01*
X468437D01*
Y1013940D01*
X478437Y1003940D01*
X468437Y993940D01*
Y983940D01*
X683035Y1161259D02*
X693035D01*
X703035Y1171259D01*
X713035Y1161259D01*
X723035D01*
Y1171259D01*
X713035Y1181259D01*
X723035Y1191259D01*
Y1201259D01*
X713035D01*
X703035Y1191259D01*
X693035Y1201259D01*
X683035D01*
Y1191259D01*
X693035Y1181259D01*
X683035Y1171259D01*
Y1161259D01*
X894367Y702009D02*
X904367D01*
X914367Y712009D01*
X924367Y702009D01*
X934367D01*
Y712009D01*
X924367Y722009D01*
X934367Y732009D01*
Y742009D01*
X924367D01*
X914367Y732009D01*
X904367Y742009D01*
X894367D01*
Y732009D01*
X904367Y722009D01*
X894367Y712009D01*
Y702009D01*
X454877Y543201D02*
X464877D01*
X474877Y553201D01*
X484877Y543201D01*
X494877D01*
Y553201D01*
X484877Y563201D01*
X494877Y573201D01*
Y583201D01*
X484877D01*
X474877Y573201D01*
X464877Y583201D01*
X454877D01*
Y573201D01*
X464877Y563201D01*
X454877Y553201D01*
Y543201D01*
X455180Y607974D02*
X465180D01*
X475180Y617974D01*
X485180Y607974D01*
X495180D01*
Y617974D01*
X485180Y627974D01*
X495180Y637974D01*
Y647974D01*
X485180D01*
X475180Y637974D01*
X465180Y647974D01*
X455180D01*
Y637974D01*
X465180Y627974D01*
X455180Y617974D01*
Y607974D01*
X554803Y590587D02*
X564803D01*
X574803Y600587D01*
X584803Y590587D01*
X594803D01*
Y600587D01*
X584803Y610587D01*
X594803Y620587D01*
Y630587D01*
X584803D01*
X574803Y620587D01*
X564803Y630587D01*
X554803D01*
Y620587D01*
X564803Y610587D01*
X554803Y600587D01*
Y590587D01*
X761308Y585381D02*
X771308D01*
X781308Y595381D01*
X791308Y585381D01*
X801308D01*
Y595381D01*
X791308Y605381D01*
X801308Y615381D01*
Y625381D01*
X791308D01*
X781308Y615381D01*
X771308Y625381D01*
X761308D01*
Y615381D01*
X771308Y605381D01*
X761308Y595381D01*
Y585381D01*
X826890Y919967D02*
X836890D01*
X846890Y929967D01*
X856890Y919967D01*
X866890D01*
Y929967D01*
X856890Y939967D01*
X866890Y949967D01*
Y959967D01*
X856890D01*
X846890Y949967D01*
X836890Y959967D01*
X826890D01*
Y949967D01*
X836890Y939967D01*
X826890Y929967D01*
Y919967D01*
X753619D02*
X763619D01*
X773619Y929967D01*
X783619Y919967D01*
X793619D01*
Y929967D01*
X783619Y939967D01*
X793619Y949967D01*
Y959967D01*
X783619D01*
X773619Y949967D01*
X763619Y959967D01*
X753619D01*
Y949967D01*
X763619Y939967D01*
X753619Y929967D01*
Y919967D01*
X725705Y1120862D02*
X735705D01*
X745705Y1130862D01*
X755705Y1120862D01*
X765705D01*
Y1130862D01*
X755705Y1140862D01*
X765705Y1150862D01*
Y1160862D01*
X755705D01*
X745705Y1150862D01*
X735705Y1160862D01*
X725705D01*
Y1150862D01*
X735705Y1140862D01*
X725705Y1130862D01*
Y1120862D01*
X867893Y1101505D02*
X877893D01*
X887893Y1111505D01*
X897893Y1101505D01*
X907893D01*
Y1111505D01*
X897893Y1121505D01*
X907893Y1131505D01*
Y1141505D01*
X897893D01*
X887893Y1131505D01*
X877893Y1141505D01*
X867893D01*
Y1131505D01*
X877893Y1121505D01*
X867893Y1111505D01*
Y1101505D01*
X599729Y1318214D02*
X609729D01*
X619729Y1328214D01*
X629729Y1318214D01*
X639729D01*
Y1328214D01*
X629729Y1338214D01*
X639729Y1348214D01*
Y1358214D01*
X629729D01*
X619729Y1348214D01*
X609729Y1358214D01*
X599729D01*
Y1348214D01*
X609729Y1338214D01*
X599729Y1328214D01*
Y1318214D01*
X685168Y1384321D02*
X695168D01*
X705168Y1394321D01*
X715168Y1384321D01*
X725168D01*
Y1394321D01*
X715168Y1404321D01*
X725168Y1414321D01*
Y1424321D01*
X715168D01*
X705168Y1414321D01*
X695168Y1424321D01*
X685168D01*
Y1414321D01*
X695168Y1404321D01*
X685168Y1394321D01*
Y1384321D01*
X562677Y925173D02*
X572677D01*
X582677Y935173D01*
X592677Y925173D01*
X602677D01*
Y935173D01*
X592677Y945173D01*
X602677Y955173D01*
Y965173D01*
X592677D01*
X582677Y955173D01*
X572677Y965173D01*
X562677D01*
Y955173D01*
X572677Y945173D01*
X562677Y935173D01*
Y925173D01*
X514839Y824075D02*
X524839D01*
X534839Y834075D01*
X544839Y824075D01*
X554839D01*
Y834075D01*
X544839Y844075D01*
X554839Y854075D01*
Y864075D01*
X544839D01*
X534839Y854075D01*
X524839Y864075D01*
X514839D01*
Y854075D01*
X524839Y844075D01*
X514839Y834075D01*
Y824075D01*
X342598Y1980000D02*
X352598D01*
X362598Y1990000D01*
X372598Y1980000D01*
X382598D01*
Y1990000D01*
X372598Y2000000D01*
X382598Y2010000D01*
Y2020000D01*
X372598D01*
X362598Y2010000D01*
X352598Y2020000D01*
X342598D01*
Y2010000D01*
X352598Y2000000D01*
X342598Y1990000D01*
Y1980000D01*
X664451Y756971D02*
X674451D01*
X684451Y766971D01*
X694451Y756971D01*
X704451D01*
Y766971D01*
X694451Y776971D01*
X704451Y786971D01*
Y796971D01*
X694451D01*
X684451Y786971D01*
X674451Y796971D01*
X664451D01*
Y786971D01*
X674451Y776971D01*
X664451Y766971D01*
Y756971D01*
X617795D02*
X627795D01*
X637795Y766971D01*
X647795Y756971D01*
X657795D01*
Y766971D01*
X647795Y776971D01*
X657795Y786971D01*
Y796971D01*
X647795D01*
X637795Y786971D01*
X627795Y796971D01*
X617795D01*
Y786971D01*
X627795Y776971D01*
X617795Y766971D01*
Y756971D01*
X725811Y593838D02*
X735811D01*
X745811Y603838D01*
X755811Y593838D01*
X765811D01*
Y603838D01*
X755811Y613838D01*
X765811Y623838D01*
Y633838D01*
X755811D01*
X745811Y623838D01*
X735811Y633838D01*
X725811D01*
Y623838D01*
X735811Y613838D01*
X725811Y603838D01*
Y593838D01*
X562677Y1330173D02*
X572677D01*
X582677Y1340173D01*
X592677Y1330173D01*
X602677D01*
Y1340173D01*
X592677Y1350173D01*
X602677Y1360173D01*
Y1370173D01*
X592677D01*
X582677Y1360173D01*
X572677Y1370173D01*
X562677D01*
Y1360173D01*
X572677Y1350173D01*
X562677Y1340173D01*
Y1330173D01*
X645204Y1487429D02*
X655204D01*
X665204Y1497429D01*
X675204Y1487429D01*
X685204D01*
Y1497429D01*
X675204Y1507429D01*
X685204Y1517429D01*
Y1527429D01*
X675204D01*
X665204Y1517429D01*
X655204Y1527429D01*
X645204D01*
Y1517429D01*
X655204Y1507429D01*
X645204Y1497429D01*
Y1487429D01*
X720705Y1571088D02*
X730705D01*
X740705Y1581088D01*
X750705Y1571088D01*
X760705D01*
Y1581088D01*
X750705Y1591088D01*
X760705Y1601088D01*
Y1611088D01*
X750705D01*
X740705Y1601088D01*
X730705Y1611088D01*
X720705D01*
Y1601088D01*
X730705Y1591088D01*
X720705Y1581088D01*
Y1571088D01*
X817902Y1133662D02*
X827902D01*
X837902Y1143662D01*
X847902Y1133662D01*
X857902D01*
Y1143662D01*
X847902Y1153662D01*
X857902Y1163662D01*
Y1173662D01*
X847902D01*
X837902Y1163662D01*
X827902Y1173662D01*
X817902D01*
Y1163662D01*
X827902Y1153662D01*
X817902Y1143662D01*
Y1133662D01*
X879588Y1268846D02*
X889588D01*
X899588Y1278846D01*
X909588Y1268846D01*
X919588D01*
Y1278846D01*
X909588Y1288846D01*
X919588Y1298846D01*
Y1308846D01*
X909588D01*
X899588Y1298846D01*
X889588Y1308846D01*
X879588D01*
Y1298846D01*
X889588Y1288846D01*
X879588Y1278846D01*
Y1268846D01*
X317520Y545886D02*
X327520D01*
X337520Y555886D01*
X347520Y545886D01*
X357520D01*
Y555886D01*
X347520Y565886D01*
X357520Y575886D01*
Y585886D01*
X347520D01*
X337520Y575886D01*
X327520Y585886D01*
X317520D01*
Y575886D01*
X327520Y565886D01*
X317520Y555886D01*
Y545886D01*
Y609823D02*
X327520D01*
X337520Y619823D01*
X347520Y609823D01*
X357520D01*
Y619823D01*
X347520Y629823D01*
X357520Y639823D01*
Y649823D01*
X347520D01*
X337520Y639823D01*
X327520Y649823D01*
X317520D01*
Y639823D01*
X327520Y629823D01*
X317520Y619823D01*
Y609823D01*
X644134Y1586299D02*
X654134D01*
X664134Y1596299D01*
X674134Y1586299D01*
X684134D01*
Y1596299D01*
X674134Y1606299D01*
X684134Y1616299D01*
Y1626299D01*
X674134D01*
X664134Y1616299D01*
X654134Y1626299D01*
X644134D01*
Y1616299D01*
X654134Y1606299D01*
X644134Y1596299D01*
Y1586299D01*
X715792Y1681929D02*
X725792D01*
X735792Y1691929D01*
X745792Y1681929D01*
X755792D01*
Y1691929D01*
X745792Y1701929D01*
X755792Y1711929D01*
Y1721929D01*
X745792D01*
X735792Y1711929D01*
X725792Y1721929D01*
X715792D01*
Y1711929D01*
X725792Y1701929D01*
X715792Y1691929D01*
Y1681929D01*
X752329Y1271585D02*
X762329D01*
X772329Y1281585D01*
X782329Y1271585D01*
X792329D01*
Y1281585D01*
X782329Y1291585D01*
X792329Y1301585D01*
Y1311585D01*
X782329D01*
X772329Y1301585D01*
X762329Y1311585D01*
X752329D01*
Y1301585D01*
X762329Y1291585D01*
X752329Y1281585D01*
Y1271585D01*
X868977Y1349710D02*
X878977D01*
X888977Y1359710D01*
X898977Y1349710D01*
X908977D01*
Y1359710D01*
X898977Y1369710D01*
X908977Y1379710D01*
Y1389710D01*
X898977D01*
X888977Y1379710D01*
X878977Y1389710D01*
X868977D01*
Y1379710D01*
X878977Y1369710D01*
X868977Y1359710D01*
Y1349710D01*
X817902Y1611299D02*
X827902D01*
X837902Y1621299D01*
X847902Y1611299D01*
X857902D01*
Y1621299D01*
X847902Y1631299D01*
X857902Y1641299D01*
Y1651299D01*
X847902D01*
X837902Y1641299D01*
X827902Y1651299D01*
X817902D01*
Y1641299D01*
X827902Y1631299D01*
X817902Y1621299D01*
Y1611299D01*
X715792Y1712760D02*
X725792D01*
X735792Y1722760D01*
X745792Y1712760D01*
X755792D01*
Y1722760D01*
X745792Y1732760D01*
X755792Y1742760D01*
Y1752760D01*
X745792D01*
X735792Y1742760D01*
X725792Y1752760D01*
X715792D01*
Y1742760D01*
X725792Y1732760D01*
X715792Y1722760D01*
Y1712760D01*
X236756Y2001654D02*
X246756D01*
X256756Y2011654D01*
X266756Y2001654D01*
X276756D01*
Y2011654D01*
X266756Y2021654D01*
X276756Y2031654D01*
Y2041654D01*
X266756D01*
X256756Y2031654D01*
X246756Y2041654D01*
X236756D01*
Y2031654D01*
X246756Y2021654D01*
X236756Y2011654D01*
Y2001654D01*
X1036756Y1999685D02*
X1046756D01*
X1056756Y2009685D01*
X1066756Y1999685D01*
X1076756D01*
Y2009685D01*
X1066756Y2019685D01*
X1076756Y2029685D01*
Y2039685D01*
X1066756D01*
X1056756Y2029685D01*
X1046756Y2039685D01*
X1036756D01*
Y2029685D01*
X1046756Y2019685D01*
X1036756Y2009685D01*
Y1999685D01*
X875420Y1950473D02*
X885420D01*
X895420Y1960473D01*
X905420Y1950473D01*
X915420D01*
Y1960473D01*
X905420Y1970473D01*
X915420Y1980473D01*
Y1990473D01*
X905420D01*
X895420Y1980473D01*
X885420Y1990473D01*
X875420D01*
Y1980473D01*
X885420Y1970473D01*
X875420Y1960473D01*
Y1950473D01*
X801662Y1748618D02*
X811662D01*
X821662Y1758618D01*
X831662Y1748618D01*
X841662D01*
Y1758618D01*
X831662Y1768618D01*
X841662Y1778618D01*
Y1788618D01*
X831662D01*
X821662Y1778618D01*
X811662Y1788618D01*
X801662D01*
Y1778618D01*
X811662Y1768618D01*
X801662Y1758618D01*
Y1748618D01*
X402244Y1669961D02*
X412244D01*
X422244Y1679961D01*
X432244Y1669961D01*
X442244D01*
Y1679961D01*
X432244Y1689961D01*
X442244Y1699961D01*
Y1709961D01*
X432244D01*
X422244Y1699961D01*
X412244Y1709961D01*
X402244D01*
Y1699961D01*
X412244Y1689961D01*
X402244Y1679961D01*
Y1669961D01*
X792992Y1950473D02*
X802992D01*
X812992Y1960473D01*
X822992Y1950473D01*
X832992D01*
Y1960473D01*
X822992Y1970473D01*
X832992Y1980473D01*
Y1990473D01*
X822992D01*
X812992Y1980473D01*
X802992Y1990473D01*
X792992D01*
Y1980473D01*
X802992Y1970473D01*
X792992Y1960473D01*
Y1950473D01*
D107*
X855827Y410630D02*
G03*
X855827Y410630I-20000J0D01*
G01*
X515669D02*
G03*
X515669Y410630I-20000J0D01*
G01*
%TF.MD5,67545e1f5b48d4d302fd14becb5cf66d*%
M02*
