%TF.GenerationSoftware,Altium Limited,Altium Designer,20.0.10 (225)*%
G04 Layer_Color=255*
%FSLAX26Y26*%
%MOIN*%
%TF.FileFunction,Pads,Bot*%
%TF.Part,Single*%
G01*
G75*
%TA.AperFunction,ComponentPad*%
%ADD45O,0.039370X0.062992*%
%ADD46O,0.039370X0.082677*%
%ADD47C,0.025591*%
%ADD48C,0.090000*%
%ADD49C,0.140000*%
%ADD50R,0.059370X0.059370*%
%ADD51C,0.059370*%
D45*
X835827Y246063D02*
D03*
X495669D02*
D03*
D46*
X835827Y410630D02*
D03*
X495669D02*
D03*
D47*
X779528Y389764D02*
D03*
X551968D02*
D03*
D48*
X1031756Y2095173D02*
D03*
X281756D02*
D03*
D49*
X306756Y295173D02*
D03*
X1006756D02*
D03*
D50*
X1056756Y445173D02*
D03*
D51*
Y545173D02*
D03*
Y645173D02*
D03*
Y745173D02*
D03*
Y845173D02*
D03*
Y945173D02*
D03*
Y1045173D02*
D03*
Y1145173D02*
D03*
Y1245173D02*
D03*
Y1345173D02*
D03*
Y1445173D02*
D03*
Y1545173D02*
D03*
Y1645173D02*
D03*
Y1745173D02*
D03*
Y1845173D02*
D03*
Y1945173D02*
D03*
X256756Y845173D02*
D03*
Y945173D02*
D03*
Y1045173D02*
D03*
Y1145173D02*
D03*
Y1245173D02*
D03*
Y1345173D02*
D03*
Y1445173D02*
D03*
Y1545173D02*
D03*
Y1645173D02*
D03*
Y1745173D02*
D03*
Y1845173D02*
D03*
Y1945173D02*
D03*
%TF.MD5,c27ebc92b10c4ecc5c72c777ff267f55*%
M02*
