%TF.GenerationSoftware,Altium Limited,Altium Designer,20.0.10 (225)*%
G04 Layer_Physical_Order=1*
G04 Layer_Color=255*
%FSLAX26Y26*%
%MOIN*%
%TF.FileFunction,Copper,L1,Top,Signal*%
%TF.Part,Single*%
G01*
G75*
%TA.AperFunction,SMDPad,CuDef*%
%ADD10R,0.030000X0.032000*%
%ADD11R,0.023622X0.021654*%
%ADD12R,0.023622X0.019685*%
%ADD13C,0.039370*%
%ADD14R,0.029528X0.031496*%
%ADD15R,0.031496X0.039370*%
%ADD16R,0.019685X0.023622*%
%ADD17R,0.025591X0.019685*%
%ADD18R,0.027559X0.019685*%
%ADD19R,0.021654X0.023622*%
%ADD20R,0.033465X0.055118*%
%ADD21R,0.019685X0.025591*%
%TA.AperFunction,ConnectorPad*%
%ADD22R,0.023622X0.057087*%
%ADD23R,0.011811X0.057087*%
%TA.AperFunction,SMDPad,CuDef*%
G04:AMPARAMS|DCode=24|XSize=23.622mil|YSize=9.842mil|CornerRadius=1.968mil|HoleSize=0mil|Usage=FLASHONLY|Rotation=90.000|XOffset=0mil|YOffset=0mil|HoleType=Round|Shape=RoundedRectangle|*
%AMROUNDEDRECTD24*
21,1,0.023622,0.005906,0,0,90.0*
21,1,0.019685,0.009842,0,0,90.0*
1,1,0.003937,0.002953,0.009842*
1,1,0.003937,0.002953,-0.009842*
1,1,0.003937,-0.002953,-0.009842*
1,1,0.003937,-0.002953,0.009842*
%
%ADD24ROUNDEDRECTD24*%
%ADD25R,0.035433X0.031496*%
%ADD26R,0.024000X0.022000*%
%ADD27R,0.010236X0.031890*%
%ADD28R,0.031890X0.010236*%
%ADD29R,0.105512X0.105512*%
%ADD30R,0.022000X0.024000*%
%TA.AperFunction,ConnectorPad*%
%ADD31R,0.023622X0.011811*%
%TA.AperFunction,SMDPad,CuDef*%
%ADD32R,0.011811X0.011811*%
%TA.AperFunction,ConnectorPad*%
%ADD33R,0.011811X0.023622*%
%TA.AperFunction,SMDPad,CuDef*%
%ADD34R,0.045276X0.041339*%
%ADD35R,0.039370X0.070866*%
%ADD36R,0.019685X0.027559*%
%ADD37R,0.070866X0.047244*%
%ADD38R,0.061024X0.023622*%
%ADD39R,0.094488X0.029921*%
%TA.AperFunction,Conductor*%
%ADD40C,0.008000*%
%ADD41C,0.019685*%
%ADD42C,0.005906*%
%ADD43C,0.006000*%
%ADD44C,0.011811*%
%TA.AperFunction,ComponentPad*%
%ADD45O,0.039370X0.062992*%
%ADD46O,0.039370X0.082677*%
%ADD47C,0.025591*%
%ADD48C,0.090000*%
%ADD49C,0.140000*%
%ADD50R,0.059370X0.059370*%
%ADD51C,0.059370*%
%TA.AperFunction,ViaPad*%
%ADD52C,0.023622*%
G36*
X1102362Y200362D02*
X1093000Y191000D01*
X1089211Y194789D01*
X431416D01*
X430923Y199789D01*
X435865Y200772D01*
X443079Y205593D01*
X447900Y212808D01*
X448598Y216318D01*
X406111D01*
X406809Y212808D01*
X411630Y205593D01*
X418844Y200772D01*
X423786Y199789D01*
X423294Y194789D01*
X206372D01*
X206056Y407462D01*
X211052Y410354D01*
X292535D01*
Y469409D01*
X210965D01*
X209858Y469410D01*
X205961Y472071D01*
X205728Y628727D01*
X210725Y630827D01*
X292535D01*
Y689882D01*
X210638D01*
X209858Y689882D01*
X205635Y691757D01*
X203601Y2063391D01*
X207134Y2066929D01*
X239264D01*
X245450Y2058867D01*
X256084Y2050707D01*
X263440Y2047660D01*
X261981Y2042852D01*
X261756Y2042897D01*
Y2026654D01*
X278000D01*
X277301Y2030164D01*
X272481Y2037379D01*
X269875Y2039119D01*
X269746Y2040366D01*
X274312Y2044809D01*
X281756Y2043829D01*
X295045Y2045578D01*
X307428Y2050707D01*
X318062Y2058867D01*
X324248Y2066929D01*
X381642D01*
X385827Y2064961D01*
Y2029685D01*
X381732D01*
Y2018938D01*
X376732Y2016788D01*
X371109Y2020545D01*
X367598Y2021244D01*
Y2000000D01*
Y1978756D01*
X371109Y1979455D01*
X377657Y1983830D01*
X381732Y1986063D01*
X396575D01*
Y2007874D01*
X401575D01*
Y2012874D01*
X421417D01*
Y2029685D01*
X417323D01*
Y2040180D01*
X432181D01*
Y2033464D01*
X454017D01*
X454338Y2032983D01*
X472054Y2015267D01*
X472054Y2015267D01*
X474984Y2013309D01*
X478440Y2012622D01*
X498813D01*
X500726Y2008003D01*
X472228Y1979504D01*
X461224D01*
X461224Y1979504D01*
X457767Y1978817D01*
X454837Y1976859D01*
X440631Y1962653D01*
X438673Y1959723D01*
X437986Y1956267D01*
Y1949965D01*
X418537Y1930516D01*
X413929Y1932979D01*
X414914Y1937930D01*
X413539Y1944842D01*
X409623Y1950703D01*
X403763Y1954618D01*
X396851Y1955993D01*
X389938Y1954618D01*
X384078Y1950703D01*
X380162Y1944842D01*
X378787Y1937930D01*
X380162Y1931017D01*
X384078Y1925157D01*
X387819Y1922657D01*
Y1916568D01*
X379255Y1908003D01*
X374178Y1909998D01*
X373185Y1914993D01*
X369269Y1920853D01*
X363409Y1924769D01*
X356496Y1926144D01*
X349584Y1924769D01*
X343723Y1920853D01*
X339808Y1914993D01*
X338433Y1908080D01*
X339808Y1901168D01*
X341135Y1899181D01*
X338299Y1896345D01*
X336341Y1893415D01*
X335654Y1889959D01*
Y1458464D01*
X336341Y1455008D01*
X338299Y1452078D01*
X375984Y1414393D01*
Y1385433D01*
X479748D01*
Y1336569D01*
X475812Y1334465D01*
X474748Y1334464D01*
X471541Y1335102D01*
Y1313858D01*
X466541D01*
Y1308858D01*
X445297D01*
X445995Y1305348D01*
X448412Y1301731D01*
X444528Y1298544D01*
X315782Y1427290D01*
Y1689961D01*
X315095Y1693417D01*
X313137Y1696347D01*
X313137Y1696347D01*
X285419Y1724064D01*
X287844Y1727225D01*
X291430Y1735882D01*
X292654Y1745173D01*
X291430Y1754464D01*
X287844Y1763122D01*
X282139Y1770557D01*
X274705Y1776262D01*
X266047Y1779848D01*
X256756Y1781071D01*
X247465Y1779848D01*
X238807Y1776262D01*
X231373Y1770557D01*
X225668Y1763122D01*
X222082Y1754464D01*
X220858Y1745173D01*
X222082Y1735882D01*
X225668Y1727225D01*
X231373Y1719790D01*
X238807Y1714085D01*
X247465Y1710499D01*
X256756Y1709276D01*
X266047Y1710499D01*
X271274Y1712664D01*
X297719Y1686220D01*
Y1663048D01*
X292719Y1662053D01*
X291421Y1665187D01*
X285060Y1673477D01*
X276770Y1679838D01*
X267116Y1683837D01*
X261756Y1684542D01*
Y1645173D01*
Y1605804D01*
X267116Y1606510D01*
X276770Y1610509D01*
X285060Y1616870D01*
X291421Y1625160D01*
X292719Y1628294D01*
X297719Y1627299D01*
Y1423549D01*
X298406Y1420092D01*
X300364Y1417162D01*
X446986Y1270541D01*
X445072Y1265921D01*
X433245D01*
X281969Y1417197D01*
X282139Y1419790D01*
X287844Y1427225D01*
X291430Y1435882D01*
X292654Y1445173D01*
X291430Y1454464D01*
X287844Y1463122D01*
X282139Y1470557D01*
X274705Y1476262D01*
X266047Y1479848D01*
X256756Y1481071D01*
X247465Y1479848D01*
X238807Y1476262D01*
X231373Y1470557D01*
X225668Y1463122D01*
X222082Y1454464D01*
X220858Y1445173D01*
X222082Y1435882D01*
X225668Y1427225D01*
X231373Y1419790D01*
X238807Y1414085D01*
X247465Y1410499D01*
X256756Y1409276D01*
X263462Y1410159D01*
X420473Y1253148D01*
Y1234425D01*
X448004D01*
X449870Y1230058D01*
X446978Y1226551D01*
X420473D01*
Y1195055D01*
X459378D01*
X459842Y1195055D01*
Y1195055D01*
X464378D01*
Y1195055D01*
X490907D01*
X552646Y1133316D01*
X555592Y1131348D01*
X559067Y1130656D01*
X624738D01*
X663780Y1091614D01*
X661709Y1086614D01*
X656728D01*
Y1086614D01*
X651728Y1086614D01*
X613421D01*
Y1035433D01*
X642777D01*
X645165Y1032277D01*
X643130Y1027559D01*
X613421D01*
Y1003022D01*
X598120Y987721D01*
X593501Y989635D01*
Y1030354D01*
X597595D01*
Y1056024D01*
X532320D01*
Y1030354D01*
X536414D01*
Y977365D01*
X581231D01*
X583145Y972746D01*
X571324Y960925D01*
X567843Y955716D01*
X567755Y955273D01*
X441059D01*
X437194Y954504D01*
X433917Y952315D01*
X420221Y938619D01*
X418031Y935342D01*
X417263Y931477D01*
Y930985D01*
X409646D01*
Y897520D01*
X417263D01*
Y888819D01*
X398642D01*
Y845008D01*
X440453D01*
Y888819D01*
X437462D01*
Y897520D01*
X445079D01*
Y897520D01*
X449016D01*
Y897520D01*
X457701D01*
Y888819D01*
X453642D01*
Y845008D01*
X465516D01*
Y737764D01*
X446661D01*
Y706268D01*
X481031D01*
X482094Y706268D01*
Y706268D01*
X486032D01*
Y706268D01*
X521465D01*
Y712984D01*
X566385D01*
Y691307D01*
X602448D01*
Y688788D01*
X604968D01*
Y652725D01*
X607685D01*
Y592697D01*
X607126D01*
Y570886D01*
X602126D01*
Y565886D01*
X581299D01*
Y549075D01*
X585394D01*
Y513799D01*
X593046D01*
Y491063D01*
X593737Y487588D01*
X594730Y486102D01*
X592689Y481102D01*
X583379D01*
Y500591D01*
X582157Y506735D01*
X578677Y511944D01*
X548834Y541787D01*
X543625Y545267D01*
X537480Y546490D01*
X537480Y546490D01*
X495956D01*
X493283Y551490D01*
X495422Y554691D01*
X496120Y558201D01*
X453633D01*
X454331Y554691D01*
X456470Y551490D01*
X453797Y546490D01*
X448646D01*
X444268Y547992D01*
Y564803D01*
X403756D01*
Y574803D01*
X444268D01*
Y587362D01*
Y604173D01*
X403756D01*
X363244D01*
Y573989D01*
X358244Y573496D01*
X358065Y574396D01*
X353245Y581611D01*
X346030Y586431D01*
X342520Y587130D01*
Y565886D01*
Y544642D01*
X346030Y545340D01*
X353245Y550161D01*
X358065Y557376D01*
X358244Y558275D01*
X363244Y557783D01*
Y547992D01*
X367339D01*
Y512717D01*
X367339D01*
Y508779D01*
X367339D01*
Y473347D01*
X440173D01*
Y475007D01*
X468594D01*
X468595Y475007D01*
X474739Y476229D01*
X479948Y479709D01*
X491479Y491240D01*
X491480Y491241D01*
X494960Y496450D01*
X496182Y502594D01*
Y514377D01*
X530829D01*
X551266Y493940D01*
Y485197D01*
X542795D01*
Y446654D01*
X532795D01*
Y485197D01*
X515984D01*
Y459765D01*
X511500Y457553D01*
X510640Y458213D01*
X503419Y461205D01*
X500669Y461567D01*
Y410630D01*
Y359693D01*
X503419Y360055D01*
X510640Y363047D01*
X516841Y367805D01*
X521599Y374006D01*
X524590Y381227D01*
X525611Y388976D01*
Y408110D01*
X536766D01*
X538236Y403953D01*
X538395Y403110D01*
X534353Y397060D01*
X532901Y389764D01*
X534353Y382467D01*
X538486Y376281D01*
X544672Y372148D01*
X551968Y370697D01*
X559265Y372148D01*
X560046Y372670D01*
X564455Y370312D01*
Y345861D01*
X564455Y345861D01*
X565678Y339716D01*
X569158Y334507D01*
X580689Y322976D01*
X580689Y322976D01*
X585899Y319495D01*
X592043Y318273D01*
X738465D01*
X738465Y318273D01*
X744610Y319495D01*
X749819Y322976D01*
X761350Y334507D01*
X761350Y334507D01*
X764831Y339716D01*
X766053Y345861D01*
Y370972D01*
X770463Y373329D01*
X772231Y372148D01*
X779528Y370697D01*
X786824Y372148D01*
X793010Y376281D01*
X797143Y382467D01*
X798595Y389764D01*
X797143Y397060D01*
X793101Y403110D01*
X793260Y403953D01*
X794731Y408110D01*
X805886D01*
Y388976D01*
X806906Y381227D01*
X809897Y374006D01*
X814655Y367805D01*
X820856Y363047D01*
X828077Y360055D01*
X830827Y359693D01*
Y410630D01*
Y461567D01*
X828077Y461205D01*
X820856Y458213D01*
X819996Y457553D01*
X815512Y459765D01*
Y485197D01*
X798701D01*
Y446654D01*
X788701D01*
Y489735D01*
X788667Y489816D01*
X822370Y523520D01*
X833473D01*
Y566827D01*
X827876D01*
Y702331D01*
Y722016D01*
Y786901D01*
X831635Y790198D01*
X834457Y789827D01*
X841138Y790706D01*
X847363Y793285D01*
X852708Y797387D01*
X856810Y802732D01*
X859389Y808957D01*
X860268Y815638D01*
X859389Y822318D01*
X856810Y828544D01*
X852708Y833889D01*
X847363Y837991D01*
X841138Y840570D01*
X834457Y841449D01*
X831635Y841078D01*
X827876Y844375D01*
Y920851D01*
X832876Y923100D01*
X838380Y919422D01*
X841890Y918724D01*
Y939967D01*
Y961211D01*
X838380Y960513D01*
X832876Y956835D01*
X827876Y959083D01*
Y1133040D01*
X828588Y1133939D01*
X832876Y1136598D01*
X837902Y1135598D01*
X844815Y1136973D01*
X850675Y1140889D01*
X854591Y1146749D01*
X855966Y1153662D01*
X854669Y1160181D01*
X854773Y1161358D01*
X856816Y1165181D01*
X858418D01*
Y1187181D01*
X868418D01*
Y1165181D01*
X884418D01*
Y1169276D01*
X913324D01*
Y1197782D01*
X913728Y1197941D01*
X918728Y1194542D01*
Y974170D01*
X919415Y970713D01*
X921373Y967783D01*
X1025827Y863330D01*
X1025668Y863122D01*
X1022082Y854464D01*
X1020858Y845173D01*
X1022082Y835882D01*
X1025668Y827225D01*
X1031373Y819790D01*
X1038807Y814085D01*
X1047465Y810499D01*
X1056756Y809276D01*
X1066047Y810499D01*
X1074705Y814085D01*
X1082139Y819790D01*
X1087844Y827225D01*
X1091430Y835882D01*
X1092654Y845173D01*
X1091430Y854464D01*
X1087844Y863122D01*
X1082139Y870557D01*
X1074705Y876261D01*
X1066047Y879848D01*
X1056756Y881071D01*
X1047465Y879848D01*
X1038807Y876261D01*
X1038600Y876102D01*
X936791Y977911D01*
Y1045832D01*
X941411Y1047746D01*
X1025827Y963330D01*
X1025668Y963122D01*
X1022082Y954464D01*
X1020858Y945173D01*
X1022082Y935882D01*
X1025668Y927225D01*
X1031373Y919790D01*
X1038807Y914085D01*
X1047465Y910499D01*
X1056756Y909276D01*
X1066047Y910499D01*
X1074705Y914085D01*
X1082139Y919790D01*
X1087844Y927225D01*
X1091430Y935882D01*
X1092654Y945173D01*
X1091430Y954464D01*
X1087844Y963122D01*
X1082139Y970557D01*
X1074705Y976261D01*
X1066047Y979848D01*
X1056756Y981071D01*
X1047465Y979848D01*
X1038807Y976261D01*
X1038600Y976102D01*
X949976Y1064726D01*
Y1132516D01*
X953717Y1134075D01*
X954976Y1134180D01*
X1025827Y1063330D01*
X1025668Y1063122D01*
X1022082Y1054464D01*
X1020858Y1045173D01*
X1022082Y1035882D01*
X1025668Y1027225D01*
X1031373Y1019790D01*
X1038807Y1014085D01*
X1047465Y1010499D01*
X1056756Y1009276D01*
X1066047Y1010499D01*
X1074705Y1014085D01*
X1082139Y1019790D01*
X1087844Y1027225D01*
X1091430Y1035882D01*
X1092654Y1045173D01*
X1091430Y1054464D01*
X1087844Y1063122D01*
X1082139Y1070557D01*
X1074705Y1076262D01*
X1066047Y1079848D01*
X1056756Y1081071D01*
X1047465Y1079848D01*
X1038807Y1076262D01*
X1038600Y1076102D01*
X970099Y1144603D01*
Y1994448D01*
X973431Y1997091D01*
X974902Y1997545D01*
X975220Y1997374D01*
Y1417677D01*
X975908Y1414221D01*
X977866Y1411291D01*
X1025827Y1363330D01*
X1025668Y1363122D01*
X1022082Y1354464D01*
X1020858Y1345173D01*
X1022082Y1335882D01*
X1025668Y1327225D01*
X1031373Y1319790D01*
X1038807Y1314085D01*
X1047465Y1310499D01*
X1056756Y1309276D01*
X1066047Y1310499D01*
X1074705Y1314085D01*
X1082139Y1319790D01*
X1087844Y1327225D01*
X1091430Y1335882D01*
X1092654Y1345173D01*
X1091430Y1354464D01*
X1087844Y1363122D01*
X1082139Y1370557D01*
X1074705Y1376262D01*
X1066047Y1379848D01*
X1056756Y1381071D01*
X1047465Y1379848D01*
X1038807Y1376262D01*
X1038600Y1376102D01*
X993284Y1421418D01*
Y2004374D01*
X992742Y2007100D01*
X994423Y2008779D01*
X996865Y2010047D01*
X1002779Y2004133D01*
Y1790118D01*
X1003467Y1786662D01*
X1005425Y1783732D01*
X1025827Y1763330D01*
X1025668Y1763122D01*
X1022082Y1754464D01*
X1020858Y1745173D01*
X1022082Y1735882D01*
X1025668Y1727225D01*
X1031373Y1719790D01*
X1038807Y1714085D01*
X1047465Y1710499D01*
X1056756Y1709276D01*
X1066047Y1710499D01*
X1074705Y1714085D01*
X1082139Y1719790D01*
X1087844Y1727225D01*
X1091430Y1735882D01*
X1092654Y1745173D01*
X1091430Y1754464D01*
X1087844Y1763122D01*
X1082139Y1770557D01*
X1074705Y1776262D01*
X1066047Y1779848D01*
X1056756Y1781071D01*
X1047465Y1779848D01*
X1038807Y1776262D01*
X1038600Y1776102D01*
X1020843Y1793859D01*
Y1825180D01*
X1025334Y1827036D01*
X1025843Y1826996D01*
X1031373Y1819790D01*
X1038807Y1814085D01*
X1047465Y1810499D01*
X1056756Y1809276D01*
X1066047Y1810499D01*
X1074705Y1814085D01*
X1082139Y1819790D01*
X1087844Y1827225D01*
X1091430Y1835882D01*
X1092654Y1845173D01*
X1091430Y1854464D01*
X1087844Y1863122D01*
X1082139Y1870557D01*
X1074705Y1876262D01*
X1066047Y1879848D01*
X1056756Y1881071D01*
X1047465Y1879848D01*
X1038807Y1876262D01*
X1031373Y1870557D01*
X1025843Y1863350D01*
X1025334Y1863311D01*
X1020843Y1865166D01*
Y1918573D01*
X1025843Y1920271D01*
X1028452Y1916870D01*
X1036742Y1910509D01*
X1046396Y1906510D01*
X1051756Y1905804D01*
Y1945173D01*
Y1984542D01*
X1046396Y1983837D01*
X1036742Y1979838D01*
X1028452Y1973477D01*
X1025843Y1970076D01*
X1020843Y1971773D01*
Y2007874D01*
X1020155Y2011330D01*
X1018197Y2014261D01*
X978827Y2053631D01*
X975897Y2055588D01*
X972441Y2056276D01*
X840355D01*
X834322Y2062310D01*
X836235Y2066929D01*
X989264D01*
X995450Y2058867D01*
X1006084Y2050707D01*
X1018467Y2045578D01*
X1031756Y2043829D01*
X1045045Y2045578D01*
X1057428Y2050707D01*
X1068062Y2058867D01*
X1074248Y2066929D01*
X1102362D01*
Y200362D01*
D02*
G37*
G36*
X576772Y2029528D02*
X598268D01*
Y2025433D01*
X609173D01*
Y2047244D01*
X619173D01*
Y2025433D01*
X630079D01*
Y2029528D01*
X651575D01*
X651575Y2029527D01*
X653544D01*
Y2029528D01*
X656575Y2029528D01*
X674134D01*
X677165Y2029528D01*
Y2029527D01*
X679134D01*
Y2029528D01*
X699725D01*
X702756Y2029528D01*
Y2029527D01*
X704725D01*
Y2029528D01*
X726331D01*
X727932Y2024584D01*
X724016Y2018724D01*
X722672Y2011969D01*
X709725D01*
Y1996063D01*
X699725D01*
Y2011969D01*
X670355D01*
Y1996063D01*
X660355D01*
Y2011969D01*
X630984D01*
Y1996063D01*
X620984D01*
Y2011969D01*
X605394D01*
X604173Y2011969D01*
X600394Y2014915D01*
Y2019685D01*
X576772D01*
Y1999095D01*
X576772Y1996063D01*
X576772Y1991063D01*
Y1973504D01*
X576772Y1970473D01*
X576772Y1965472D01*
Y1957747D01*
X573070Y1954694D01*
X568898Y1956720D01*
Y1958662D01*
X568898D01*
X568898Y1961693D01*
Y1982283D01*
X568898Y1982283D01*
Y1984252D01*
X568898D01*
X568898Y1987284D01*
Y2007874D01*
X568898D01*
Y2009843D01*
X568898D01*
Y2033464D01*
X568898D01*
Y2035433D01*
X568898D01*
Y2053961D01*
X576772D01*
Y2029528D01*
D02*
G37*
G36*
X760928Y2003536D02*
X761811Y2003196D01*
Y1984252D01*
X761811D01*
Y1982283D01*
X761811D01*
Y1958662D01*
X761811D01*
Y1956693D01*
X761811D01*
Y1936102D01*
X761811Y1933071D01*
X761811Y1928071D01*
Y1908389D01*
X757633Y1905496D01*
X754169Y1908960D01*
Y1920276D01*
X753937Y1921439D01*
Y1937992D01*
X733347D01*
X730315Y1937992D01*
X725315Y1937992D01*
X706851D01*
Y1942087D01*
X695945D01*
Y1920276D01*
X685945D01*
Y1942087D01*
X675040D01*
Y1937992D01*
X653544D01*
Y1937992D01*
X651575D01*
Y1937992D01*
X627953D01*
Y1937992D01*
X625984D01*
Y1937992D01*
X602363D01*
Y1937992D01*
X600394D01*
Y1937992D01*
X593484D01*
X590959Y1942992D01*
X592352Y1944882D01*
X600394D01*
Y1951621D01*
X604173Y1954567D01*
X620984D01*
Y1970473D01*
X630984D01*
Y1954567D01*
X660355D01*
Y1970473D01*
X670355D01*
Y1954567D01*
X699725D01*
Y1970473D01*
X704725D01*
Y1975473D01*
X726536D01*
Y1993958D01*
X731536Y1996630D01*
X733792Y1995122D01*
X740705Y1993747D01*
X747617Y1995122D01*
X753478Y1999038D01*
X756811Y2004027D01*
X760928Y2003536D01*
D02*
G37*
G36*
X918728Y1916535D02*
Y1434227D01*
X918697Y1434164D01*
X917604Y1434050D01*
X916991Y1434174D01*
X912604Y1438555D01*
Y1477155D01*
X865360D01*
Y1465600D01*
X848340D01*
X847780Y1468416D01*
X846040Y1471020D01*
X843435Y1472760D01*
X840363Y1473371D01*
X834457D01*
X831385Y1472760D01*
X830507Y1472174D01*
X829306Y1473972D01*
X825347Y1476617D01*
X823655Y1476954D01*
X822009Y1482379D01*
X836724Y1497094D01*
X864969D01*
Y1564023D01*
X863676D01*
X859221Y1565340D01*
X859221Y1569024D01*
Y1586088D01*
X834457D01*
X809693D01*
Y1565340D01*
X815238D01*
X819693Y1564023D01*
X819693Y1560340D01*
Y1514125D01*
X799946Y1494378D01*
X796071Y1497574D01*
Y1564023D01*
X794903D01*
Y1569434D01*
X801977D01*
Y1612741D01*
X795887D01*
Y1643793D01*
X796606Y1644344D01*
X800707Y1649690D01*
X803286Y1655915D01*
X804165Y1662596D01*
X803286Y1669276D01*
X800707Y1675501D01*
X796606Y1680847D01*
X794411Y1682531D01*
Y1779485D01*
X793188Y1785629D01*
X789708Y1790838D01*
X789708Y1790838D01*
X738130Y1842416D01*
Y1878142D01*
X728578D01*
Y1893989D01*
X733578Y1895506D01*
X733611Y1895457D01*
X748083Y1880984D01*
X746063Y1875984D01*
X746063D01*
Y1844488D01*
X778465D01*
X783465Y1844488D01*
X788465Y1844488D01*
X820866D01*
Y1842520D01*
X852362D01*
Y1874921D01*
X852362Y1879921D01*
X852362Y1884921D01*
Y1917323D01*
X835928D01*
X825444Y1927807D01*
X821538Y1930417D01*
X819360Y1930850D01*
X819853Y1935850D01*
X899412D01*
X918728Y1916535D01*
D02*
G37*
G36*
X693224Y1838236D02*
X700696D01*
X705168Y1836614D01*
X706390Y1830470D01*
X709871Y1825261D01*
X762298Y1772834D01*
Y1736937D01*
X757298Y1736445D01*
X756338Y1741270D01*
X751517Y1748485D01*
X744303Y1753305D01*
X740792Y1754003D01*
Y1732760D01*
X730792D01*
Y1754003D01*
X727282Y1753305D01*
X720067Y1748485D01*
X716798Y1743591D01*
X711798Y1745108D01*
Y1756729D01*
X686844D01*
X686236Y1759783D01*
X684268Y1762729D01*
X674434Y1772562D01*
Y1838236D01*
X683224D01*
Y1860236D01*
X693224D01*
Y1838236D01*
D02*
G37*
G36*
X439787Y1844874D02*
Y1739682D01*
X436046Y1737182D01*
X432130Y1731322D01*
X430755Y1724409D01*
X432130Y1717497D01*
X436046Y1711637D01*
X441906Y1707721D01*
X448819Y1706346D01*
X455731Y1707721D01*
X461592Y1711637D01*
X461736Y1711852D01*
X466736Y1710336D01*
Y1699544D01*
X483736D01*
Y1720544D01*
X493736D01*
Y1699544D01*
X505559D01*
Y1682775D01*
X522559D01*
Y1703775D01*
X527559D01*
Y1708775D01*
X549559D01*
Y1724775D01*
X545465D01*
Y1747883D01*
X549330Y1751055D01*
X549987Y1750924D01*
X556900Y1752299D01*
X557782Y1752888D01*
X562192Y1750531D01*
Y1674052D01*
X575756D01*
Y1640166D01*
X602019D01*
X602874Y1638841D01*
X604069Y1636260D01*
X601998Y1631260D01*
X587677D01*
Y1606299D01*
X582677D01*
Y1601299D01*
X525433D01*
Y1581339D01*
X527532D01*
X529528Y1577165D01*
X529528Y1576339D01*
Y1536260D01*
X529528Y1535433D01*
X527532Y1531260D01*
X525433D01*
Y1511299D01*
X582677D01*
Y1501299D01*
X525433D01*
Y1486260D01*
X525433Y1481339D01*
X525433Y1476339D01*
Y1461299D01*
X582677D01*
Y1451299D01*
X525433D01*
Y1431339D01*
X527532D01*
X529528Y1427165D01*
X529528Y1426339D01*
Y1385433D01*
X566621D01*
Y1358032D01*
X565989Y1357086D01*
X564614Y1350173D01*
X565989Y1343261D01*
X569904Y1337400D01*
X575765Y1333485D01*
X582677Y1332110D01*
X589590Y1333485D01*
X592894Y1335692D01*
X598421Y1333532D01*
X599183Y1329703D01*
X604004Y1322489D01*
X611218Y1317668D01*
X614729Y1316970D01*
Y1338214D01*
Y1359457D01*
X611218Y1358759D01*
X604962Y1354579D01*
X601205Y1355384D01*
X599533Y1356247D01*
X599366Y1357086D01*
X598734Y1358032D01*
Y1385433D01*
X635827D01*
Y1390421D01*
X647091D01*
X647092Y1390421D01*
X653237Y1391643D01*
X658446Y1395124D01*
X683554Y1420232D01*
X687438Y1417045D01*
X684622Y1412831D01*
X683924Y1409321D01*
X700168D01*
Y1425564D01*
X696658Y1424866D01*
X692444Y1422051D01*
X689256Y1425934D01*
X714389Y1451067D01*
X714389Y1451067D01*
X717870Y1456276D01*
X719092Y1462421D01*
Y1546767D01*
X746502Y1574177D01*
X747617Y1574399D01*
X748563Y1575031D01*
X760638D01*
Y1569434D01*
X762790D01*
Y1564023D01*
X750796D01*
Y1497094D01*
X761313D01*
Y1489220D01*
X762536Y1483076D01*
X765328Y1478897D01*
Y1456485D01*
X765327Y1456485D01*
X766244Y1451877D01*
X767373Y1450187D01*
Y1445658D01*
X767984Y1442586D01*
X769725Y1439981D01*
X772329Y1438241D01*
X775402Y1437630D01*
X781307D01*
X784379Y1438241D01*
X786984Y1439981D01*
X789411D01*
X792015Y1438241D01*
X795087Y1437630D01*
X800993D01*
X804065Y1438241D01*
X804942Y1438827D01*
X806143Y1437029D01*
X810102Y1434384D01*
X812724Y1433862D01*
Y1455501D01*
X822724D01*
Y1433862D01*
X825347Y1434384D01*
X829306Y1437029D01*
X830507Y1438828D01*
X831385Y1438241D01*
X834457Y1437630D01*
X840363D01*
X843435Y1438241D01*
X846040Y1439981D01*
X847780Y1442586D01*
X848340Y1445401D01*
X865360D01*
Y1435068D01*
X865359Y1433848D01*
X862413Y1430068D01*
X861265D01*
Y1409320D01*
X888981D01*
Y1399320D01*
X861265D01*
Y1378572D01*
X863404D01*
X866573Y1374710D01*
X913683D01*
X914576Y1375708D01*
X918309Y1375271D01*
X918728Y1374413D01*
Y1301089D01*
X913728Y1299572D01*
X912361Y1301619D01*
X906500Y1305534D01*
X899588Y1306909D01*
X892675Y1305534D01*
X886815Y1301619D01*
X882899Y1295758D01*
X881524Y1288846D01*
X882899Y1281933D01*
X883855Y1277732D01*
X883855D01*
X883855Y1277732D01*
Y1250716D01*
X879621Y1247491D01*
X875981Y1248538D01*
Y1277732D01*
X858253D01*
Y1328371D01*
X859063D01*
Y1371678D01*
X853959D01*
Y1380584D01*
X852736Y1386728D01*
X849256Y1391938D01*
X848047Y1392746D01*
X848391Y1394478D01*
Y1414163D01*
X847780Y1417236D01*
X846040Y1419840D01*
X843435Y1421580D01*
X840363Y1422191D01*
X834457D01*
X831385Y1421580D01*
X830507Y1420994D01*
X829306Y1422792D01*
X825347Y1425437D01*
X822724Y1425959D01*
Y1404321D01*
X812724D01*
Y1425959D01*
X810102Y1425437D01*
X806143Y1422792D01*
X804942Y1420995D01*
X804065Y1421580D01*
X800993Y1422191D01*
X795087D01*
X792015Y1421580D01*
X791137Y1420994D01*
X789936Y1422792D01*
X785977Y1425437D01*
X783354Y1425959D01*
Y1404321D01*
Y1382682D01*
X784370Y1382885D01*
X785672Y1382605D01*
X786857Y1380773D01*
X784137Y1375773D01*
X760481D01*
Y1355025D01*
X785245D01*
X810008D01*
Y1371552D01*
X817725D01*
Y1328371D01*
X822338D01*
Y1283399D01*
X800466Y1261527D01*
X796985Y1256318D01*
X795763Y1250173D01*
X795763Y1250173D01*
Y1153662D01*
Y1090362D01*
X790763Y1088291D01*
X773269Y1105785D01*
X770339Y1107743D01*
X766883Y1108430D01*
X738187D01*
X686667Y1159950D01*
X689854Y1163834D01*
X694525Y1160713D01*
X698035Y1160015D01*
Y1176259D01*
X681792D01*
X682490Y1172748D01*
X685611Y1168078D01*
X681727Y1164890D01*
X663186Y1183432D01*
X660255Y1185389D01*
X656799Y1186077D01*
X592279D01*
X576350Y1202006D01*
Y1263648D01*
X575663Y1267104D01*
X573705Y1270034D01*
X573704Y1270034D01*
X516217Y1327522D01*
Y1560531D01*
X515529Y1563988D01*
X513572Y1566918D01*
X482284Y1598206D01*
Y1627165D01*
X438166D01*
Y1645669D01*
X437478Y1649126D01*
X435520Y1652056D01*
X420413Y1667163D01*
X421661Y1670391D01*
X422666Y1671981D01*
X429157Y1673272D01*
X435017Y1677188D01*
X438933Y1683048D01*
X440308Y1689961D01*
X438933Y1696873D01*
X435017Y1702734D01*
X429157Y1706649D01*
X422244Y1708024D01*
X417831Y1707146D01*
X402808Y1722170D01*
X403140Y1725051D01*
X408090Y1728298D01*
X412599Y1727401D01*
X419511Y1728776D01*
X425372Y1732692D01*
X429287Y1738552D01*
X430662Y1745465D01*
X429287Y1752377D01*
X425372Y1758238D01*
X421679Y1760705D01*
Y1833837D01*
X434787Y1846945D01*
X439787Y1844874D01*
D02*
G37*
G36*
X656274Y1898116D02*
Y1768801D01*
X656966Y1765326D01*
X658934Y1762381D01*
X661779Y1759535D01*
X660617Y1756729D01*
X660617D01*
Y1680071D01*
X653855D01*
Y1658071D01*
Y1636071D01*
X669855D01*
Y1640166D01*
X698760D01*
Y1674052D01*
X711798D01*
Y1689581D01*
X716798Y1691098D01*
X720067Y1686204D01*
X727282Y1681384D01*
X730792Y1680686D01*
Y1701929D01*
X740792D01*
Y1680686D01*
X744303Y1681384D01*
X751517Y1686204D01*
X756338Y1693419D01*
X757298Y1698244D01*
X762298Y1697752D01*
Y1682531D01*
X760103Y1680847D01*
X756001Y1675501D01*
X753422Y1669276D01*
X752543Y1662596D01*
X753422Y1655915D01*
X756001Y1649690D01*
X760103Y1644344D01*
X763774Y1641527D01*
Y1612741D01*
X760638D01*
Y1607144D01*
X748563D01*
X747617Y1607776D01*
X740705Y1609151D01*
X733792Y1607776D01*
X727932Y1603861D01*
X724016Y1598000D01*
X723794Y1596884D01*
X691682Y1564772D01*
X688201Y1559563D01*
X686979Y1553418D01*
X686979Y1553418D01*
Y1523099D01*
X681979Y1521582D01*
X680929Y1523154D01*
X673714Y1527974D01*
X670204Y1528673D01*
Y1507429D01*
X660204D01*
Y1528673D01*
X656694Y1527974D01*
X649479Y1523154D01*
X647511Y1520208D01*
X640720Y1518888D01*
X639921Y1519427D01*
Y1531260D01*
X637823D01*
X635827Y1535433D01*
X635827Y1536260D01*
Y1576339D01*
X635827Y1577165D01*
X637823Y1581339D01*
X639921D01*
Y1594277D01*
X644921Y1595794D01*
X648409Y1590574D01*
X655624Y1585754D01*
X659134Y1585055D01*
Y1606299D01*
Y1627543D01*
X655624Y1626845D01*
X648409Y1622024D01*
X644921Y1616804D01*
X639921Y1618321D01*
Y1631071D01*
X639922Y1631260D01*
X640376Y1636071D01*
X643855D01*
Y1658071D01*
Y1680071D01*
X630662D01*
Y1658071D01*
X620662D01*
Y1680071D01*
X613372D01*
Y1731564D01*
X616427Y1732172D01*
X619373Y1734140D01*
X647613Y1762380D01*
X649581Y1765326D01*
X650272Y1768801D01*
Y1895060D01*
X655273Y1898500D01*
X656274Y1898116D01*
D02*
G37*
G36*
X795763Y1029859D02*
Y955085D01*
X790763Y953568D01*
X789344Y955692D01*
X782129Y960513D01*
X778619Y961211D01*
Y939967D01*
Y918724D01*
X782129Y919422D01*
X789344Y924242D01*
X790763Y926366D01*
X795763Y924850D01*
Y731048D01*
X764023D01*
Y770048D01*
Y811780D01*
X727960D01*
Y814299D01*
X725440D01*
Y850362D01*
X664393D01*
Y859311D01*
X673811D01*
Y888216D01*
X677905D01*
Y904216D01*
X655905D01*
X633905D01*
Y888216D01*
X638000D01*
Y859311D01*
X646330D01*
Y850362D01*
X604968D01*
Y814299D01*
X602448D01*
Y811780D01*
X569084D01*
Y848207D01*
X568393Y851682D01*
X566424Y854628D01*
X533414Y887638D01*
X534280Y891994D01*
X532905Y898907D01*
X530709Y902194D01*
X533382Y907194D01*
X603233D01*
X606689Y907881D01*
X609620Y909839D01*
X628905Y929125D01*
X633905Y927054D01*
Y914216D01*
X650905D01*
Y930216D01*
X642080D01*
X639408Y935216D01*
X640026Y936142D01*
X707765D01*
X708258Y931142D01*
X706675Y930827D01*
X701322Y929762D01*
X694107Y924941D01*
X689287Y917727D01*
X688589Y914216D01*
X731076D01*
X730378Y917727D01*
X725557Y924941D01*
X718342Y929762D01*
X712990Y930827D01*
X711407Y931142D01*
X711899Y936142D01*
X727285D01*
X730741Y936829D01*
X733672Y938787D01*
X754415Y959530D01*
X756372Y962460D01*
X757060Y965916D01*
X757060Y965917D01*
Y977362D01*
X776572D01*
Y1017739D01*
X790763Y1031930D01*
X795763Y1029859D01*
D02*
G37*
%LPC*%
G36*
X251756Y2042897D02*
X248246Y2042199D01*
X241031Y2037379D01*
X236210Y2030164D01*
X235512Y2026654D01*
X251756D01*
Y2042897D01*
D02*
G37*
G36*
X1061756Y2040929D02*
Y2024685D01*
X1078000D01*
X1077302Y2028195D01*
X1072481Y2035410D01*
X1065266Y2040230D01*
X1061756Y2040929D01*
D02*
G37*
G36*
X1051756D02*
X1048246Y2040230D01*
X1041031Y2035410D01*
X1036210Y2028195D01*
X1035512Y2024685D01*
X1051756D01*
Y2040929D01*
D02*
G37*
G36*
X357598Y2021244D02*
X354088Y2020545D01*
X346873Y2015725D01*
X342053Y2008510D01*
X341355Y2005000D01*
X357598D01*
Y2021244D01*
D02*
G37*
G36*
X278000Y2016654D02*
X261756D01*
Y2000410D01*
X265266Y2001108D01*
X272481Y2005929D01*
X277301Y2013143D01*
X278000Y2016654D01*
D02*
G37*
G36*
X251756D02*
X235512D01*
X236210Y2013143D01*
X241031Y2005929D01*
X248246Y2001108D01*
X251756Y2000410D01*
Y2016654D01*
D02*
G37*
G36*
X1078000Y2014685D02*
X1061756D01*
Y1998441D01*
X1065266Y1999139D01*
X1072481Y2003960D01*
X1077302Y2011175D01*
X1078000Y2014685D01*
D02*
G37*
G36*
X1051756D02*
X1035512D01*
X1036210Y2011175D01*
X1041031Y2003960D01*
X1048246Y1999139D01*
X1051756Y1998441D01*
Y2014685D01*
D02*
G37*
G36*
X421417Y2002874D02*
X406575D01*
Y1986063D01*
X421417D01*
Y2002874D01*
D02*
G37*
G36*
X357598Y1995000D02*
X341355D01*
X342053Y1991490D01*
X346873Y1984275D01*
X354088Y1979455D01*
X357598Y1978756D01*
Y1995000D01*
D02*
G37*
G36*
X1061756Y1984543D02*
Y1950173D01*
X1096125D01*
X1095419Y1955533D01*
X1091421Y1965187D01*
X1085060Y1973477D01*
X1076770Y1979838D01*
X1067116Y1983837D01*
X1061756Y1984543D01*
D02*
G37*
G36*
X256756Y1981071D02*
X247465Y1979848D01*
X238807Y1976262D01*
X231373Y1970557D01*
X225668Y1963122D01*
X222082Y1954464D01*
X220858Y1945173D01*
X222082Y1935882D01*
X225668Y1927225D01*
X231373Y1919790D01*
X238807Y1914085D01*
X247465Y1910499D01*
X256756Y1909276D01*
X266047Y1910499D01*
X274705Y1914085D01*
X282139Y1919790D01*
X287844Y1927225D01*
X291430Y1935882D01*
X292654Y1945173D01*
X291430Y1954464D01*
X287844Y1963122D01*
X282139Y1970557D01*
X274705Y1976262D01*
X266047Y1979848D01*
X256756Y1981071D01*
D02*
G37*
G36*
X1096125Y1940173D02*
X1061756D01*
Y1905804D01*
X1067116Y1906510D01*
X1076770Y1910509D01*
X1085060Y1916870D01*
X1091421Y1925160D01*
X1095419Y1934813D01*
X1096125Y1940173D01*
D02*
G37*
G36*
X256756Y1881071D02*
X247465Y1879848D01*
X238807Y1876262D01*
X231373Y1870557D01*
X225668Y1863122D01*
X222082Y1854464D01*
X220858Y1845173D01*
X222082Y1835882D01*
X225668Y1827225D01*
X231373Y1819790D01*
X238807Y1814085D01*
X247465Y1810499D01*
X256756Y1809276D01*
X266047Y1810499D01*
X274705Y1814085D01*
X282139Y1819790D01*
X287844Y1827225D01*
X291430Y1835882D01*
X292654Y1845173D01*
X291430Y1854464D01*
X287844Y1863122D01*
X282139Y1870557D01*
X274705Y1876262D01*
X266047Y1879848D01*
X256756Y1881071D01*
D02*
G37*
G36*
X251756Y1684542D02*
X246396Y1683837D01*
X236742Y1679838D01*
X228452Y1673477D01*
X222091Y1665187D01*
X218093Y1655533D01*
X217387Y1650173D01*
X251756D01*
Y1684542D01*
D02*
G37*
G36*
X1056756Y1681071D02*
X1047465Y1679848D01*
X1038807Y1676262D01*
X1031373Y1670557D01*
X1025668Y1663122D01*
X1022082Y1654464D01*
X1020858Y1645173D01*
X1022082Y1635882D01*
X1025668Y1627225D01*
X1031373Y1619790D01*
X1038807Y1614085D01*
X1047465Y1610499D01*
X1056756Y1609276D01*
X1066047Y1610499D01*
X1074705Y1614085D01*
X1082139Y1619790D01*
X1087844Y1627225D01*
X1091430Y1635882D01*
X1092654Y1645173D01*
X1091430Y1654464D01*
X1087844Y1663122D01*
X1082139Y1670557D01*
X1074705Y1676262D01*
X1066047Y1679848D01*
X1056756Y1681071D01*
D02*
G37*
G36*
X251756Y1640173D02*
X217387D01*
X218093Y1634813D01*
X222091Y1625160D01*
X228452Y1616870D01*
X236742Y1610509D01*
X246396Y1606510D01*
X251756Y1605804D01*
Y1640173D01*
D02*
G37*
G36*
X1056756Y1581071D02*
X1047465Y1579848D01*
X1038807Y1576262D01*
X1031373Y1570557D01*
X1025668Y1563122D01*
X1022082Y1554464D01*
X1020858Y1545173D01*
X1022082Y1535882D01*
X1025668Y1527225D01*
X1031373Y1519790D01*
X1038807Y1514085D01*
X1047465Y1510499D01*
X1056756Y1509276D01*
X1066047Y1510499D01*
X1074705Y1514085D01*
X1082139Y1519790D01*
X1087844Y1527225D01*
X1091430Y1535882D01*
X1092654Y1545173D01*
X1091430Y1554464D01*
X1087844Y1563122D01*
X1082139Y1570557D01*
X1074705Y1576262D01*
X1066047Y1579848D01*
X1056756Y1581071D01*
D02*
G37*
G36*
X256756D02*
X247465Y1579848D01*
X238807Y1576262D01*
X231373Y1570557D01*
X225668Y1563122D01*
X222082Y1554464D01*
X220858Y1545173D01*
X222082Y1535882D01*
X225668Y1527225D01*
X231373Y1519790D01*
X238807Y1514085D01*
X247465Y1510499D01*
X256756Y1509276D01*
X266047Y1510499D01*
X274705Y1514085D01*
X282139Y1519790D01*
X287844Y1527225D01*
X291430Y1535882D01*
X292654Y1545173D01*
X291430Y1554464D01*
X287844Y1563122D01*
X282139Y1570557D01*
X274705Y1576262D01*
X266047Y1579848D01*
X256756Y1581071D01*
D02*
G37*
G36*
X1056756Y1481071D02*
X1047465Y1479848D01*
X1038807Y1476262D01*
X1031373Y1470557D01*
X1025668Y1463122D01*
X1022082Y1454464D01*
X1020858Y1445173D01*
X1022082Y1435882D01*
X1025668Y1427225D01*
X1031373Y1419790D01*
X1038807Y1414085D01*
X1047465Y1410499D01*
X1056756Y1409276D01*
X1066047Y1410499D01*
X1074705Y1414085D01*
X1082139Y1419790D01*
X1087844Y1427225D01*
X1091430Y1435882D01*
X1092654Y1445173D01*
X1091430Y1454464D01*
X1087844Y1463122D01*
X1082139Y1470557D01*
X1074705Y1476262D01*
X1066047Y1479848D01*
X1056756Y1481071D01*
D02*
G37*
G36*
X461541Y1335102D02*
X458031Y1334404D01*
X450816Y1329583D01*
X445995Y1322368D01*
X445297Y1318858D01*
X461541D01*
Y1335102D01*
D02*
G37*
G36*
X261756Y1284542D02*
Y1250173D01*
X296125D01*
X295420Y1255533D01*
X291421Y1265187D01*
X285060Y1273477D01*
X276770Y1279838D01*
X267116Y1283837D01*
X261756Y1284542D01*
D02*
G37*
G36*
X251756D02*
X246396Y1283837D01*
X236742Y1279838D01*
X228452Y1273477D01*
X222091Y1265187D01*
X218093Y1255533D01*
X217387Y1250173D01*
X251756D01*
Y1284542D01*
D02*
G37*
G36*
X1056756Y1281071D02*
X1047465Y1279848D01*
X1038807Y1276262D01*
X1031373Y1270557D01*
X1025668Y1263122D01*
X1022082Y1254464D01*
X1020858Y1245173D01*
X1022082Y1235882D01*
X1025668Y1227225D01*
X1031373Y1219790D01*
X1038807Y1214085D01*
X1047465Y1210499D01*
X1056756Y1209276D01*
X1066047Y1210499D01*
X1074705Y1214085D01*
X1082139Y1219790D01*
X1087844Y1227225D01*
X1091430Y1235882D01*
X1092654Y1245173D01*
X1091430Y1254464D01*
X1087844Y1263122D01*
X1082139Y1270557D01*
X1074705Y1276262D01*
X1066047Y1279848D01*
X1056756Y1281071D01*
D02*
G37*
G36*
X296125Y1240173D02*
X261756D01*
Y1205804D01*
X267116Y1206510D01*
X276770Y1210509D01*
X285060Y1216870D01*
X291421Y1225160D01*
X295420Y1234813D01*
X296125Y1240173D01*
D02*
G37*
G36*
X251756D02*
X217387D01*
X218093Y1234813D01*
X222091Y1225160D01*
X228452Y1216870D01*
X236742Y1210509D01*
X246396Y1206510D01*
X251756Y1205804D01*
Y1240173D01*
D02*
G37*
G36*
X261756Y1184542D02*
Y1150173D01*
X296125D01*
X295420Y1155533D01*
X291421Y1165187D01*
X285060Y1173477D01*
X276770Y1179838D01*
X267116Y1183837D01*
X261756Y1184542D01*
D02*
G37*
G36*
X251756D02*
X246396Y1183837D01*
X236742Y1179838D01*
X228452Y1173477D01*
X222091Y1165187D01*
X218093Y1155533D01*
X217387Y1150173D01*
X251756D01*
Y1184542D01*
D02*
G37*
G36*
X892893Y1142749D02*
Y1126505D01*
X909136D01*
X908438Y1130016D01*
X903618Y1137230D01*
X896403Y1142051D01*
X892893Y1142749D01*
D02*
G37*
G36*
X882893D02*
X879383Y1142051D01*
X872168Y1137230D01*
X867347Y1130016D01*
X866649Y1126505D01*
X882893D01*
Y1142749D01*
D02*
G37*
G36*
X1056756Y1181071D02*
X1047465Y1179848D01*
X1038807Y1176262D01*
X1031373Y1170557D01*
X1025668Y1163122D01*
X1022082Y1154464D01*
X1020858Y1145173D01*
X1022082Y1135882D01*
X1025668Y1127225D01*
X1031373Y1119790D01*
X1038807Y1114085D01*
X1047465Y1110499D01*
X1056756Y1109276D01*
X1066047Y1110499D01*
X1074705Y1114085D01*
X1082139Y1119790D01*
X1087844Y1127225D01*
X1091430Y1135882D01*
X1092654Y1145173D01*
X1091430Y1154464D01*
X1087844Y1163122D01*
X1082139Y1170557D01*
X1074705Y1176262D01*
X1066047Y1179848D01*
X1056756Y1181071D01*
D02*
G37*
G36*
X296125Y1140173D02*
X261756D01*
Y1105804D01*
X267116Y1106510D01*
X276770Y1110509D01*
X285060Y1116870D01*
X291421Y1125160D01*
X295420Y1134813D01*
X296125Y1140173D01*
D02*
G37*
G36*
X251756D02*
X217387D01*
X218093Y1134813D01*
X222091Y1125160D01*
X228452Y1116870D01*
X236742Y1110509D01*
X246396Y1106510D01*
X251756Y1105804D01*
Y1140173D01*
D02*
G37*
G36*
X909136Y1116505D02*
X892893D01*
Y1100262D01*
X896403Y1100960D01*
X903618Y1105781D01*
X908438Y1112995D01*
X909136Y1116505D01*
D02*
G37*
G36*
X882893D02*
X866649D01*
X867347Y1112995D01*
X872168Y1105781D01*
X879383Y1100960D01*
X882893Y1100262D01*
Y1116505D01*
D02*
G37*
G36*
X912556Y1091693D02*
X884918D01*
Y1066024D01*
X912556D01*
Y1091693D01*
D02*
G37*
G36*
X874918D02*
X847280D01*
Y1066024D01*
X874918D01*
Y1091693D01*
D02*
G37*
G36*
X597595D02*
X569957D01*
Y1066024D01*
X597595D01*
Y1091693D01*
D02*
G37*
G36*
X559957D02*
X532320D01*
Y1066024D01*
X559957D01*
Y1091693D01*
D02*
G37*
G36*
X465709D02*
X438071D01*
Y1066024D01*
X465709D01*
Y1091693D01*
D02*
G37*
G36*
X428071D02*
X400433D01*
Y1066024D01*
X428071D01*
Y1091693D01*
D02*
G37*
G36*
X261756Y1084542D02*
Y1050173D01*
X296125D01*
X295420Y1055533D01*
X291421Y1065187D01*
X285060Y1073477D01*
X276770Y1079838D01*
X267116Y1083837D01*
X261756Y1084542D01*
D02*
G37*
G36*
X251756D02*
X246396Y1083837D01*
X236742Y1079838D01*
X228452Y1073477D01*
X222091Y1065187D01*
X218093Y1055533D01*
X217387Y1050173D01*
X251756D01*
Y1084542D01*
D02*
G37*
G36*
X493437Y1025184D02*
Y1008940D01*
X509681D01*
X508983Y1012450D01*
X504162Y1019665D01*
X496947Y1024486D01*
X493437Y1025184D01*
D02*
G37*
G36*
X296125Y1040173D02*
X261756D01*
Y1005804D01*
X267116Y1006510D01*
X276770Y1010509D01*
X285060Y1016870D01*
X291421Y1025160D01*
X295420Y1034813D01*
X296125Y1040173D01*
D02*
G37*
G36*
X251756D02*
X217387D01*
X218093Y1034813D01*
X222091Y1025160D01*
X228452Y1016870D01*
X236742Y1010509D01*
X246396Y1006510D01*
X251756Y1005804D01*
Y1040173D01*
D02*
G37*
G36*
X509681Y998940D02*
X493437D01*
Y982696D01*
X496947Y983395D01*
X504162Y988215D01*
X508983Y995430D01*
X509681Y998940D01*
D02*
G37*
G36*
X256756Y1381071D02*
X247465Y1379848D01*
X238807Y1376262D01*
X231373Y1370557D01*
X225668Y1363122D01*
X222082Y1354464D01*
X220858Y1345173D01*
X222082Y1335882D01*
X225668Y1327225D01*
X231373Y1319790D01*
X238807Y1314085D01*
X247465Y1310499D01*
X256756Y1309276D01*
X266047Y1310499D01*
X274705Y1314085D01*
X274874Y1314215D01*
X306620Y1282468D01*
X306620Y1282468D01*
X371124Y1217964D01*
Y1054832D01*
X371815Y1051357D01*
X373784Y1048411D01*
X404524Y1017671D01*
Y977362D01*
X461611D01*
Y996649D01*
X462146Y1001428D01*
X462146Y1001428D01*
Y1001428D01*
X466611Y1001868D01*
X466739Y1001224D01*
X467892Y995430D01*
X472712Y988215D01*
X479927Y983395D01*
X483437Y982696D01*
Y1003940D01*
Y1025184D01*
X479927Y1024486D01*
X472712Y1019665D01*
X467892Y1012450D01*
X466739Y1006656D01*
X466611Y1006013D01*
X462146Y1006452D01*
Y1006452D01*
X462146Y1006452D01*
X461611Y1011231D01*
Y1030354D01*
X465709D01*
Y1056024D01*
X400433D01*
Y1053977D01*
X395814Y1052063D01*
X389284Y1058593D01*
Y1221725D01*
X388593Y1225200D01*
X386625Y1228146D01*
X319461Y1295309D01*
X319461Y1295309D01*
X287715Y1327056D01*
X287844Y1327225D01*
X291430Y1335882D01*
X292654Y1345173D01*
X291430Y1354464D01*
X287844Y1363122D01*
X282139Y1370557D01*
X274705Y1376262D01*
X266047Y1379848D01*
X256756Y1381071D01*
D02*
G37*
G36*
X912556Y1056024D02*
X847280D01*
Y1030354D01*
X851375D01*
Y977365D01*
X908461D01*
Y1030354D01*
X912556D01*
Y1056024D01*
D02*
G37*
G36*
X261756Y984542D02*
Y950173D01*
X296125D01*
X295420Y955533D01*
X291421Y965187D01*
X285060Y973477D01*
X276770Y979838D01*
X267116Y983837D01*
X261756Y984542D01*
D02*
G37*
G36*
X251756D02*
X246396Y983837D01*
X236742Y979838D01*
X228452Y973477D01*
X222091Y965187D01*
X218093Y955533D01*
X217387Y950173D01*
X251756D01*
Y984542D01*
D02*
G37*
G36*
X851890Y961211D02*
Y944967D01*
X868134D01*
X867436Y948477D01*
X862615Y955692D01*
X855401Y960513D01*
X851890Y961211D01*
D02*
G37*
G36*
X868134Y934967D02*
X851890D01*
Y918724D01*
X855401Y919422D01*
X862615Y924242D01*
X867436Y931457D01*
X868134Y934967D01*
D02*
G37*
G36*
X296125Y940173D02*
X261756D01*
Y905804D01*
X267116Y906510D01*
X276770Y910509D01*
X285060Y916870D01*
X291421Y925160D01*
X295420Y934813D01*
X296125Y940173D01*
D02*
G37*
G36*
X251756D02*
X217387D01*
X218093Y934813D01*
X222091Y925160D01*
X228452Y916870D01*
X236742Y910509D01*
X246396Y906510D01*
X251756Y905804D01*
Y940173D01*
D02*
G37*
G36*
X261756Y884542D02*
Y850173D01*
X296125D01*
X295420Y855533D01*
X291421Y865187D01*
X285060Y873477D01*
X276770Y879838D01*
X267116Y883837D01*
X261756Y884542D01*
D02*
G37*
G36*
X251756D02*
X246396Y883837D01*
X236742Y879838D01*
X228452Y873477D01*
X222091Y865187D01*
X218093Y855533D01*
X217387Y850173D01*
X251756D01*
Y884542D01*
D02*
G37*
G36*
X296125Y840173D02*
X261756D01*
Y805804D01*
X267116Y806510D01*
X276770Y810509D01*
X285060Y816870D01*
X291421Y825160D01*
X295420Y834813D01*
X296125Y840173D01*
D02*
G37*
G36*
X251756D02*
X217387D01*
X218093Y834813D01*
X222091Y825160D01*
X228452Y816870D01*
X236742Y810509D01*
X246396Y806510D01*
X251756Y805804D01*
Y840173D01*
D02*
G37*
G36*
X1061756Y784542D02*
Y750173D01*
X1096125D01*
X1095419Y755533D01*
X1091421Y765187D01*
X1085060Y773477D01*
X1076770Y779838D01*
X1067116Y783837D01*
X1061756Y784542D01*
D02*
G37*
G36*
X1051756D02*
X1046396Y783837D01*
X1036742Y779838D01*
X1028452Y773477D01*
X1022091Y765187D01*
X1018092Y755533D01*
X1017387Y750173D01*
X1051756D01*
Y784542D01*
D02*
G37*
G36*
X919367Y751292D02*
Y727009D01*
X943650D01*
X943288Y729759D01*
X940297Y736980D01*
X935538Y743181D01*
X929337Y747939D01*
X922116Y750930D01*
X919367Y751292D01*
D02*
G37*
G36*
X909367D02*
X906617Y750930D01*
X899396Y747939D01*
X893195Y743181D01*
X888437Y736980D01*
X885446Y729759D01*
X885084Y727009D01*
X909367D01*
Y751292D01*
D02*
G37*
G36*
X1096125Y740173D02*
X1061756D01*
Y705804D01*
X1067116Y706510D01*
X1076770Y710509D01*
X1085060Y716870D01*
X1091421Y725160D01*
X1095419Y734813D01*
X1096125Y740173D01*
D02*
G37*
G36*
X1051756D02*
X1017387D01*
X1018092Y734813D01*
X1022091Y725160D01*
X1028452Y716870D01*
X1036742Y710509D01*
X1046396Y706510D01*
X1051756Y705804D01*
Y740173D01*
D02*
G37*
G36*
X943650Y717009D02*
X919367D01*
Y692726D01*
X922116Y693088D01*
X929337Y696080D01*
X935538Y700838D01*
X940297Y707039D01*
X943288Y714260D01*
X943650Y717009D01*
D02*
G37*
G36*
X909367D02*
X885084D01*
X885446Y714260D01*
X888437Y707039D01*
X893195Y700838D01*
X899396Y696080D01*
X906617Y693088D01*
X909367Y692726D01*
Y717009D01*
D02*
G37*
G36*
X1061756Y684542D02*
Y650173D01*
X1096125D01*
X1095419Y655533D01*
X1091421Y665187D01*
X1085060Y673477D01*
X1076770Y679838D01*
X1067116Y683837D01*
X1061756Y684542D01*
D02*
G37*
G36*
X1051756D02*
X1046396Y683837D01*
X1036742Y679838D01*
X1028452Y673477D01*
X1022091Y665187D01*
X1018092Y655533D01*
X1017387Y650173D01*
X1051756D01*
Y684542D01*
D02*
G37*
G36*
X332520Y651067D02*
X329010Y650369D01*
X321795Y645548D01*
X316974Y638333D01*
X316276Y634823D01*
X332520D01*
Y651067D01*
D02*
G37*
G36*
X480180Y649218D02*
Y632974D01*
X496424D01*
X495726Y636484D01*
X490905Y643699D01*
X483690Y648520D01*
X480180Y649218D01*
D02*
G37*
G36*
X470180D02*
X466670Y648520D01*
X459455Y643699D01*
X454635Y636484D01*
X453937Y632974D01*
X470180D01*
Y649218D01*
D02*
G37*
G36*
X579803Y631830D02*
Y615587D01*
X596047D01*
X595349Y619097D01*
X590528Y626312D01*
X583313Y631132D01*
X579803Y631830D01*
D02*
G37*
G36*
X569803D02*
X566293Y631132D01*
X559078Y626312D01*
X554258Y619097D01*
X553559Y615587D01*
X569803D01*
Y631830D01*
D02*
G37*
G36*
X408756Y630984D02*
Y614173D01*
X444268D01*
Y630984D01*
X408756D01*
D02*
G37*
G36*
X342520Y651067D02*
Y629823D01*
Y608580D01*
X346030Y609278D01*
X353245Y614098D01*
X358065Y621313D01*
X358244Y622213D01*
X363244Y621721D01*
Y614173D01*
X398756D01*
Y630984D01*
X364625D01*
X363244Y630984D01*
X359111Y633077D01*
X358065Y638333D01*
X353245Y645548D01*
X346030Y650369D01*
X342520Y651067D01*
D02*
G37*
G36*
X332520Y624823D02*
X316276D01*
X316974Y621313D01*
X321795Y614098D01*
X329010Y609278D01*
X332520Y608580D01*
Y624823D01*
D02*
G37*
G36*
X496424Y622974D02*
X480180D01*
Y606731D01*
X483690Y607429D01*
X490905Y612249D01*
X495726Y619464D01*
X496424Y622974D01*
D02*
G37*
G36*
X470180D02*
X453937D01*
X454635Y619464D01*
X459455Y612249D01*
X466670Y607429D01*
X470180Y606731D01*
Y622974D01*
D02*
G37*
G36*
X1096125Y640173D02*
X1061756D01*
Y605804D01*
X1067116Y606510D01*
X1076770Y610509D01*
X1085060Y616870D01*
X1091421Y625160D01*
X1095419Y634813D01*
X1096125Y640173D01*
D02*
G37*
G36*
X1051756D02*
X1017387D01*
X1018092Y634813D01*
X1022091Y625160D01*
X1028452Y616870D01*
X1036742Y610509D01*
X1046396Y606510D01*
X1051756Y605804D01*
Y640173D01*
D02*
G37*
G36*
X569803Y605587D02*
X553559D01*
X554258Y602077D01*
X559078Y594862D01*
X566293Y590041D01*
X569803Y589343D01*
Y605587D01*
D02*
G37*
G36*
X596047D02*
X579803D01*
Y586928D01*
X581299Y585700D01*
Y575886D01*
X597126D01*
Y592697D01*
X595095D01*
X592422Y597697D01*
X595349Y602077D01*
X596047Y605587D01*
D02*
G37*
G36*
X332520Y587130D02*
X329010Y586431D01*
X321795Y581611D01*
X316974Y574396D01*
X316276Y570886D01*
X332520D01*
Y587130D01*
D02*
G37*
G36*
X479877Y584445D02*
Y568201D01*
X496120D01*
X495422Y571711D01*
X490601Y578926D01*
X483387Y583746D01*
X479877Y584445D01*
D02*
G37*
G36*
X469877D02*
X466366Y583746D01*
X459152Y578926D01*
X454331Y571711D01*
X453633Y568201D01*
X469877D01*
Y584445D01*
D02*
G37*
G36*
X1061756Y584542D02*
Y550173D01*
X1096125D01*
X1095419Y555533D01*
X1091421Y565187D01*
X1085060Y573477D01*
X1076770Y579838D01*
X1067116Y583837D01*
X1061756Y584542D01*
D02*
G37*
G36*
X890717Y570921D02*
X870953D01*
Y550173D01*
X890717D01*
Y570921D01*
D02*
G37*
G36*
X860953D02*
X841189D01*
Y550173D01*
X860953D01*
Y570921D01*
D02*
G37*
G36*
X1051756Y584542D02*
X1046396Y583837D01*
X1036742Y579838D01*
X1028452Y573477D01*
X1022091Y565187D01*
X1018092Y555533D01*
X1017387Y550173D01*
X1051756D01*
Y584542D01*
D02*
G37*
G36*
X332520Y560886D02*
X316276D01*
X316974Y557376D01*
X321795Y550161D01*
X329010Y545340D01*
X332520Y544642D01*
Y560886D01*
D02*
G37*
G36*
X890717Y540173D02*
X870953D01*
Y519425D01*
X890717D01*
Y540173D01*
D02*
G37*
G36*
X860953D02*
X841189D01*
Y519425D01*
X860953D01*
Y540173D01*
D02*
G37*
G36*
X1096125D02*
X1061756D01*
Y505804D01*
X1067116Y506510D01*
X1076770Y510509D01*
X1085060Y516870D01*
X1091421Y525160D01*
X1095419Y534813D01*
X1096125Y540173D01*
D02*
G37*
G36*
X1051756D02*
X1017387D01*
X1018092Y534813D01*
X1022091Y525160D01*
X1028452Y516870D01*
X1036742Y510509D01*
X1046396Y506510D01*
X1051756Y505804D01*
Y540173D01*
D02*
G37*
G36*
X1096441Y484858D02*
X1061756D01*
Y450173D01*
X1096441D01*
Y484858D01*
D02*
G37*
G36*
X1051756D02*
X1017071D01*
Y450173D01*
X1051756D01*
Y484858D01*
D02*
G37*
G36*
X840827Y461567D02*
Y415630D01*
X865768D01*
Y432284D01*
X864748Y440033D01*
X861757Y447254D01*
X856998Y453455D01*
X850797Y458213D01*
X843576Y461205D01*
X840827Y461567D01*
D02*
G37*
G36*
X490669D02*
X487920Y461205D01*
X480699Y458213D01*
X474498Y453455D01*
X469740Y447254D01*
X466748Y440033D01*
X465728Y432284D01*
Y415630D01*
X490669D01*
Y461567D01*
D02*
G37*
G36*
X1096441Y440173D02*
X1061756D01*
Y405488D01*
X1096441D01*
Y440173D01*
D02*
G37*
G36*
X1051756D02*
X1017071D01*
Y405488D01*
X1051756D01*
Y440173D01*
D02*
G37*
G36*
X865768Y405630D02*
X840827D01*
Y359693D01*
X843576Y360055D01*
X850797Y363047D01*
X856998Y367805D01*
X861757Y374006D01*
X864748Y381227D01*
X865768Y388976D01*
Y405630D01*
D02*
G37*
G36*
X490669D02*
X465728D01*
Y388976D01*
X466748Y381227D01*
X469740Y374006D01*
X474498Y367805D01*
X480699Y363047D01*
X487920Y360055D01*
X490669Y359693D01*
Y405630D01*
D02*
G37*
G36*
X840827Y287157D02*
Y251063D01*
X865768D01*
Y257874D01*
X864748Y265623D01*
X861757Y272845D01*
X856998Y279046D01*
X850797Y283804D01*
X843576Y286795D01*
X840827Y287157D01*
D02*
G37*
G36*
X830827D02*
X828077Y286795D01*
X820856Y283804D01*
X814655Y279046D01*
X809897Y272845D01*
X806906Y265623D01*
X805886Y257874D01*
Y251063D01*
X830827D01*
Y287157D01*
D02*
G37*
G36*
X500669D02*
Y251063D01*
X525611D01*
Y257874D01*
X524590Y265623D01*
X521599Y272845D01*
X516841Y279046D01*
X510640Y283804D01*
X503419Y286795D01*
X500669Y287157D01*
D02*
G37*
G36*
X490669D02*
X487920Y286795D01*
X480699Y283804D01*
X474498Y279046D01*
X469740Y272845D01*
X466748Y265623D01*
X465728Y257874D01*
Y251063D01*
X490669D01*
Y287157D01*
D02*
G37*
G36*
X911056Y243981D02*
Y227737D01*
X927299D01*
X926601Y231247D01*
X921781Y238462D01*
X914566Y243282D01*
X911056Y243981D01*
D02*
G37*
G36*
X901056D02*
X897546Y243282D01*
X890331Y238462D01*
X885510Y231247D01*
X884812Y227737D01*
X901056D01*
Y243981D01*
D02*
G37*
G36*
X768442D02*
Y227737D01*
X784686D01*
X783988Y231247D01*
X779167Y238462D01*
X771953Y243282D01*
X768442Y243981D01*
D02*
G37*
G36*
X758442D02*
X754932Y243282D01*
X747717Y238462D01*
X742897Y231247D01*
X742199Y227737D01*
X758442D01*
Y243981D01*
D02*
G37*
G36*
X702264D02*
Y227737D01*
X718508D01*
X717809Y231247D01*
X712989Y238462D01*
X705774Y243282D01*
X702264Y243981D01*
D02*
G37*
G36*
X692264D02*
X688754Y243282D01*
X681539Y238462D01*
X676718Y231247D01*
X676020Y227737D01*
X692264D01*
Y243981D01*
D02*
G37*
G36*
X632058D02*
Y227737D01*
X648302D01*
X647604Y231247D01*
X642783Y238462D01*
X635568Y243282D01*
X632058Y243981D01*
D02*
G37*
G36*
X622058D02*
X618548Y243282D01*
X611333Y238462D01*
X606513Y231247D01*
X605814Y227737D01*
X622058D01*
Y243981D01*
D02*
G37*
G36*
X568717D02*
Y227737D01*
X584960D01*
X584262Y231247D01*
X579442Y238462D01*
X572227Y243282D01*
X568717Y243981D01*
D02*
G37*
G36*
X558717D02*
X555207Y243282D01*
X547992Y238462D01*
X543171Y231247D01*
X542473Y227737D01*
X558717D01*
Y243981D01*
D02*
G37*
G36*
X432355Y242561D02*
Y226318D01*
X448598D01*
X447900Y229828D01*
X443079Y237043D01*
X435865Y241863D01*
X432355Y242561D01*
D02*
G37*
G36*
X422355D02*
X418844Y241863D01*
X411630Y237043D01*
X406809Y229828D01*
X406111Y226318D01*
X422355D01*
Y242561D01*
D02*
G37*
G36*
X1006756Y371446D02*
X991876Y369981D01*
X977568Y365640D01*
X964381Y358592D01*
X952823Y349106D01*
X943337Y337548D01*
X936289Y324362D01*
X931949Y310053D01*
X930483Y295173D01*
X931949Y280293D01*
X936289Y265985D01*
X943337Y252798D01*
X952823Y241240D01*
X964381Y231755D01*
X977568Y224706D01*
X991876Y220366D01*
X1006756Y218900D01*
X1021636Y220366D01*
X1035944Y224706D01*
X1049131Y231755D01*
X1060689Y241240D01*
X1070175Y252798D01*
X1077223Y265985D01*
X1081563Y280293D01*
X1083029Y295173D01*
X1081563Y310053D01*
X1077223Y324362D01*
X1070175Y337548D01*
X1060689Y349106D01*
X1049131Y358592D01*
X1035944Y365640D01*
X1021636Y369981D01*
X1006756Y371446D01*
D02*
G37*
G36*
X306756D02*
X291876Y369981D01*
X277568Y365640D01*
X264381Y358592D01*
X252823Y349106D01*
X243338Y337548D01*
X236289Y324362D01*
X231949Y310053D01*
X230483Y295173D01*
X231949Y280293D01*
X236289Y265985D01*
X243338Y252798D01*
X252823Y241240D01*
X264381Y231755D01*
X277568Y224706D01*
X291876Y220366D01*
X306756Y218900D01*
X321636Y220366D01*
X335944Y224706D01*
X349131Y231755D01*
X360689Y241240D01*
X370175Y252798D01*
X377223Y265985D01*
X381563Y280293D01*
X383029Y295173D01*
X381563Y310053D01*
X377223Y324362D01*
X370175Y337548D01*
X360689Y349106D01*
X349131Y358592D01*
X335944Y365640D01*
X321636Y369981D01*
X306756Y371446D01*
D02*
G37*
G36*
X865768Y241063D02*
X840827D01*
Y204969D01*
X843576Y205331D01*
X850797Y208322D01*
X856998Y213080D01*
X861757Y219281D01*
X864748Y226503D01*
X865768Y234252D01*
Y241063D01*
D02*
G37*
G36*
X830827D02*
X805886D01*
Y234252D01*
X806906Y226503D01*
X809897Y219281D01*
X814655Y213080D01*
X820856Y208322D01*
X828077Y205331D01*
X830827Y204969D01*
Y241063D01*
D02*
G37*
G36*
X525611D02*
X500669D01*
Y204969D01*
X503419Y205331D01*
X510640Y208322D01*
X516841Y213080D01*
X521599Y219281D01*
X524590Y226503D01*
X525611Y234252D01*
Y241063D01*
D02*
G37*
G36*
X490669D02*
X465728D01*
Y234252D01*
X466748Y226503D01*
X469740Y219281D01*
X474498Y213080D01*
X480699Y208322D01*
X487920Y205331D01*
X490669Y204969D01*
Y241063D01*
D02*
G37*
G36*
X927299Y217737D02*
X911056D01*
Y201493D01*
X914566Y202191D01*
X921781Y207012D01*
X926601Y214227D01*
X927299Y217737D01*
D02*
G37*
G36*
X901056D02*
X884812D01*
X885510Y214227D01*
X890331Y207012D01*
X897546Y202191D01*
X901056Y201493D01*
Y217737D01*
D02*
G37*
G36*
X784686D02*
X768442D01*
Y201493D01*
X771953Y202191D01*
X779167Y207012D01*
X783988Y214227D01*
X784686Y217737D01*
D02*
G37*
G36*
X758442D02*
X742199D01*
X742897Y214227D01*
X747717Y207012D01*
X754932Y202191D01*
X758442Y201493D01*
Y217737D01*
D02*
G37*
G36*
X718508D02*
X702264D01*
Y201493D01*
X705774Y202191D01*
X712989Y207012D01*
X717809Y214227D01*
X718508Y217737D01*
D02*
G37*
G36*
X692264D02*
X676020D01*
X676718Y214227D01*
X681539Y207012D01*
X688754Y202191D01*
X692264Y201493D01*
Y217737D01*
D02*
G37*
G36*
X648302D02*
X632058D01*
Y201493D01*
X635568Y202191D01*
X642783Y207012D01*
X647604Y214227D01*
X648302Y217737D01*
D02*
G37*
G36*
X622058D02*
X605814D01*
X606513Y214227D01*
X611333Y207012D01*
X618548Y202191D01*
X622058Y201493D01*
Y217737D01*
D02*
G37*
G36*
X584960D02*
X568717D01*
Y201493D01*
X572227Y202191D01*
X579442Y207012D01*
X584262Y214227D01*
X584960Y217737D01*
D02*
G37*
G36*
X558717D02*
X542473D01*
X543171Y214227D01*
X547992Y207012D01*
X555207Y202191D01*
X558717Y201493D01*
Y217737D01*
D02*
G37*
G36*
X726536Y1965473D02*
X709725D01*
Y1954567D01*
X726536D01*
Y1965473D01*
D02*
G37*
G36*
X826662Y1789862D02*
Y1773618D01*
X842905D01*
X842207Y1777128D01*
X837387Y1784343D01*
X830172Y1789164D01*
X826662Y1789862D01*
D02*
G37*
G36*
X816662D02*
X813152Y1789164D01*
X805937Y1784343D01*
X801116Y1777128D01*
X800418Y1773618D01*
X816662D01*
Y1789862D01*
D02*
G37*
G36*
X842905Y1763618D02*
X800418D01*
X801116Y1760108D01*
X805937Y1752893D01*
X811315Y1749300D01*
Y1743728D01*
X805937Y1740134D01*
X801116Y1732920D01*
X800418Y1729409D01*
X842905D01*
X842207Y1732920D01*
X837387Y1740134D01*
X832008Y1743728D01*
Y1749300D01*
X837387Y1752893D01*
X842207Y1760108D01*
X842905Y1763618D01*
D02*
G37*
G36*
Y1719409D02*
X826662D01*
Y1703166D01*
X830172Y1703864D01*
X837387Y1708685D01*
X842207Y1715899D01*
X842905Y1719409D01*
D02*
G37*
G36*
X816662D02*
X800418D01*
X801116Y1715899D01*
X805937Y1708685D01*
X813152Y1703864D01*
X816662Y1703166D01*
Y1719409D01*
D02*
G37*
G36*
X842902Y1652543D02*
Y1636299D01*
X859146D01*
X858448Y1639809D01*
X853627Y1647024D01*
X846412Y1651845D01*
X842902Y1652543D01*
D02*
G37*
G36*
X832902D02*
X829392Y1651845D01*
X822177Y1647024D01*
X817357Y1639809D01*
X816658Y1636299D01*
X832902D01*
Y1652543D01*
D02*
G37*
G36*
X859146Y1626299D02*
X816658D01*
X817357Y1622789D01*
X818388Y1621245D01*
X816031Y1616836D01*
X809693D01*
Y1596088D01*
X834457D01*
X859221D01*
Y1616835D01*
X859221D01*
X857109Y1620786D01*
X858448Y1622789D01*
X859146Y1626299D01*
D02*
G37*
G36*
X549559Y1698775D02*
X532559D01*
Y1682775D01*
X549559D01*
Y1698775D01*
D02*
G37*
G36*
X577677Y1631260D02*
X525433D01*
Y1611299D01*
X577677D01*
Y1631260D01*
D02*
G37*
G36*
X710168Y1425564D02*
Y1409321D01*
X726412D01*
X725713Y1412831D01*
X720893Y1420046D01*
X713678Y1424866D01*
X710168Y1425564D01*
D02*
G37*
G36*
X773354Y1425959D02*
X770732Y1425437D01*
X766773Y1422792D01*
X764127Y1418833D01*
X763198Y1414163D01*
Y1409321D01*
X773354D01*
Y1425959D01*
D02*
G37*
G36*
X726412Y1399321D02*
X710168D01*
Y1383077D01*
X713678Y1383775D01*
X720893Y1388596D01*
X725713Y1395811D01*
X726412Y1399321D01*
D02*
G37*
G36*
X700168D02*
X683924D01*
X684622Y1395811D01*
X689443Y1388596D01*
X696658Y1383775D01*
X700168Y1383077D01*
Y1399321D01*
D02*
G37*
G36*
X773354D02*
X763198D01*
Y1394478D01*
X764127Y1389808D01*
X766773Y1385849D01*
X770732Y1383204D01*
X773354Y1382682D01*
Y1399321D01*
D02*
G37*
G36*
X910221Y1364710D02*
X893977D01*
Y1348466D01*
X897487Y1349164D01*
X904702Y1353985D01*
X909523Y1361199D01*
X910221Y1364710D01*
D02*
G37*
G36*
X883977D02*
X867733D01*
X868432Y1361199D01*
X873252Y1353985D01*
X880467Y1349164D01*
X883977Y1348466D01*
Y1364710D01*
D02*
G37*
G36*
X624729Y1359457D02*
Y1343214D01*
X640972D01*
X640274Y1346724D01*
X635453Y1353938D01*
X628239Y1358759D01*
X624729Y1359457D01*
D02*
G37*
G36*
X810008Y1345025D02*
X790245D01*
Y1324277D01*
X810008D01*
Y1345025D01*
D02*
G37*
G36*
X780245D02*
X760481D01*
Y1324277D01*
X780245D01*
Y1345025D01*
D02*
G37*
G36*
X640972Y1333214D02*
X624729D01*
Y1316970D01*
X628239Y1317668D01*
X635453Y1322489D01*
X640274Y1329703D01*
X640972Y1333214D01*
D02*
G37*
G36*
X777329Y1312828D02*
Y1296585D01*
X793573D01*
X792875Y1300095D01*
X788054Y1307310D01*
X780839Y1312130D01*
X777329Y1312828D01*
D02*
G37*
G36*
X767329D02*
X763819Y1312130D01*
X756604Y1307310D01*
X751784Y1300095D01*
X751086Y1296585D01*
X767329D01*
Y1312828D01*
D02*
G37*
G36*
X793573Y1286585D02*
X777329D01*
Y1270341D01*
X780839Y1271039D01*
X788054Y1275860D01*
X792875Y1283074D01*
X793573Y1286585D01*
D02*
G37*
G36*
X767329D02*
X751086D01*
X751784Y1283074D01*
X756604Y1275860D01*
X763819Y1271039D01*
X767329Y1270341D01*
Y1286585D01*
D02*
G37*
G36*
X708035Y1202502D02*
Y1186259D01*
X724279D01*
X723581Y1189769D01*
X718760Y1196984D01*
X711546Y1201804D01*
X708035Y1202502D01*
D02*
G37*
G36*
X698035D02*
X694525Y1201804D01*
X687311Y1196984D01*
X682490Y1189769D01*
X681792Y1186259D01*
X698035D01*
Y1202502D01*
D02*
G37*
G36*
X724279Y1176259D02*
X708035D01*
Y1160015D01*
X711546Y1160713D01*
X718760Y1165534D01*
X723581Y1172748D01*
X724279Y1176259D01*
D02*
G37*
G36*
X750705Y1162106D02*
Y1145862D01*
X766948D01*
X766250Y1149372D01*
X761430Y1156587D01*
X754215Y1161408D01*
X750705Y1162106D01*
D02*
G37*
G36*
X740705D02*
X737194Y1161408D01*
X729980Y1156587D01*
X725159Y1149372D01*
X724461Y1145862D01*
X740705D01*
Y1162106D01*
D02*
G37*
G36*
X766948Y1135862D02*
X750705D01*
Y1119619D01*
X754215Y1120317D01*
X761430Y1125137D01*
X766250Y1132352D01*
X766948Y1135862D01*
D02*
G37*
G36*
X740705D02*
X724461D01*
X725159Y1132352D01*
X729980Y1125137D01*
X737194Y1120317D01*
X740705Y1119619D01*
Y1135862D01*
D02*
G37*
G36*
X669134Y1627543D02*
Y1611299D01*
X685378D01*
X684679Y1614809D01*
X679859Y1622024D01*
X672644Y1626845D01*
X669134Y1627543D01*
D02*
G37*
G36*
X685378Y1601299D02*
X669134D01*
Y1585055D01*
X672644Y1585754D01*
X679859Y1590574D01*
X684679Y1597789D01*
X685378Y1601299D01*
D02*
G37*
G36*
X768619Y961211D02*
X765109Y960513D01*
X757894Y955692D01*
X753073Y948477D01*
X752375Y944967D01*
X768619D01*
Y961211D01*
D02*
G37*
G36*
Y934967D02*
X752375D01*
X753073Y931457D01*
X757894Y924242D01*
X765109Y919422D01*
X768619Y918724D01*
Y934967D01*
D02*
G37*
G36*
X677905Y930216D02*
X660905D01*
Y914216D01*
X677905D01*
Y930216D01*
D02*
G37*
G36*
X731076Y904216D02*
X714832D01*
Y887973D01*
X718342Y888671D01*
X725557Y893492D01*
X730378Y900706D01*
X731076Y904216D01*
D02*
G37*
G36*
X704832D02*
X688589D01*
X689287Y900706D01*
X694107Y893492D01*
X701322Y888671D01*
X704832Y887973D01*
Y904216D01*
D02*
G37*
%LPD*%
D10*
X419547Y866913D02*
D03*
X474547D02*
D03*
D11*
X427362Y914253D02*
D03*
X466732D02*
D03*
D12*
X464378Y722016D02*
D03*
X503748D02*
D03*
D13*
X834457Y815638D02*
D03*
X914367Y722009D02*
D03*
X778354Y1662596D02*
D03*
D14*
X865953Y545173D02*
D03*
X812804D02*
D03*
X834457Y1591088D02*
D03*
X781308D02*
D03*
X785245Y1350025D02*
D03*
X838394D02*
D03*
D15*
X635075Y1001968D02*
D03*
X678382D02*
D03*
X635075Y1061024D02*
D03*
X678382D02*
D03*
D16*
X401575Y2047244D02*
D03*
Y2007874D02*
D03*
D17*
X488284Y2049212D02*
D03*
X450882D02*
D03*
X802165Y1860236D02*
D03*
X764764D02*
D03*
D18*
X523622Y761386D02*
D03*
Y800756D02*
D03*
X440158Y1210803D02*
D03*
Y1250173D02*
D03*
X484063Y1210803D02*
D03*
Y1250173D02*
D03*
X527968Y1210803D02*
D03*
Y1250173D02*
D03*
D19*
X748028Y533465D02*
D03*
Y572835D02*
D03*
X602126Y531516D02*
D03*
Y570886D02*
D03*
D20*
X842331Y1530559D02*
D03*
X773433D02*
D03*
D21*
X836614Y1898622D02*
D03*
Y1861220D02*
D03*
D22*
X793701Y446654D02*
D03*
X762205D02*
D03*
X569291D02*
D03*
X537795D02*
D03*
D23*
X655905D02*
D03*
X636221D02*
D03*
X616535D02*
D03*
X596850D02*
D03*
X734646D02*
D03*
X714961D02*
D03*
X695276D02*
D03*
X675591D02*
D03*
D24*
X778354Y1455501D02*
D03*
X798040D02*
D03*
X817724D02*
D03*
X837410D02*
D03*
Y1404321D02*
D03*
X817724D02*
D03*
X798040D02*
D03*
X778354D02*
D03*
D25*
X888981Y1455501D02*
D03*
Y1404320D02*
D03*
D26*
X655905Y909216D02*
D03*
Y876216D02*
D03*
X488736Y1753544D02*
D03*
Y1720544D02*
D03*
X527559Y1703775D02*
D03*
Y1736775D02*
D03*
D27*
X615991Y674575D02*
D03*
X635676D02*
D03*
X655361D02*
D03*
X675046D02*
D03*
X694731D02*
D03*
X714416D02*
D03*
Y828512D02*
D03*
X694731D02*
D03*
X675046D02*
D03*
X655361D02*
D03*
X635676D02*
D03*
X615991D02*
D03*
D28*
X742172Y702331D02*
D03*
Y722016D02*
D03*
Y741701D02*
D03*
Y761386D02*
D03*
Y781071D02*
D03*
Y800756D02*
D03*
X588235D02*
D03*
Y781071D02*
D03*
Y761386D02*
D03*
Y741701D02*
D03*
Y722016D02*
D03*
Y702331D02*
D03*
D29*
X665204Y751543D02*
D03*
D30*
X778705Y645173D02*
D03*
X745705D02*
D03*
X721224Y1860236D02*
D03*
X688224D02*
D03*
X896418Y1187181D02*
D03*
X863418D02*
D03*
X592662Y1658071D02*
D03*
X625662D02*
D03*
X648855D02*
D03*
X681855D02*
D03*
D31*
X704725Y1970473D02*
D03*
X665355D02*
D03*
X625984D02*
D03*
X704725Y1996063D02*
D03*
X665355D02*
D03*
X625984D02*
D03*
X779528Y1919291D02*
D03*
Y1944882D02*
D03*
Y1970473D02*
D03*
Y1996063D02*
D03*
Y2021654D02*
D03*
X551181Y1919291D02*
D03*
Y1944882D02*
D03*
Y1970473D02*
D03*
Y1996063D02*
D03*
Y2021654D02*
D03*
X779528Y2047244D02*
D03*
Y2165354D02*
D03*
X551181Y2047244D02*
D03*
Y2165354D02*
D03*
D32*
X588583Y2007874D02*
D03*
Y1982284D02*
D03*
Y1956693D02*
D03*
D33*
X742126Y1920276D02*
D03*
X716536D02*
D03*
X690945D02*
D03*
X665355D02*
D03*
X639764D02*
D03*
X614173D02*
D03*
X588583D02*
D03*
X742126Y2047244D02*
D03*
X716536D02*
D03*
X690945D02*
D03*
X665355D02*
D03*
X639764D02*
D03*
X614173D02*
D03*
X588583D02*
D03*
D34*
X879918Y1061024D02*
D03*
Y1003940D02*
D03*
X748031Y1061024D02*
D03*
X748028Y1003937D02*
D03*
X433068D02*
D03*
X433071Y1061024D02*
D03*
X564957Y1003940D02*
D03*
Y1061024D02*
D03*
D35*
X686207Y1715390D02*
D03*
X587782D02*
D03*
D36*
X899603Y1222614D02*
D03*
X860233D02*
D03*
X860233Y1258047D02*
D03*
X899603D02*
D03*
D37*
X251197Y439882D02*
D03*
Y660354D02*
D03*
D38*
X403756Y609173D02*
D03*
Y569803D02*
D03*
Y530433D02*
D03*
Y491063D02*
D03*
D39*
X582677Y1606299D02*
D03*
Y1556299D02*
D03*
Y1506299D02*
D03*
Y1456299D02*
D03*
Y1406299D02*
D03*
X429134Y1606299D02*
D03*
Y1556299D02*
D03*
Y1506299D02*
D03*
Y1456299D02*
D03*
Y1406299D02*
D03*
D40*
X635558Y419719D02*
Y445991D01*
X633590Y417751D02*
X635558Y419719D01*
X633590Y398723D02*
Y417751D01*
X625000Y390133D02*
X633590Y398723D01*
X654000Y444748D02*
X655905Y446654D01*
X654000Y415712D02*
Y444748D01*
X649464Y411176D02*
X654000Y415712D01*
X649464Y375841D02*
Y411176D01*
X621751Y393382D02*
X625000Y390133D01*
X635558Y445991D02*
X636221Y446654D01*
X674295Y405295D02*
Y445358D01*
X675591Y446654D01*
X614173Y2001969D02*
X620079Y1996063D01*
X614173Y2001969D02*
Y2047244D01*
X620079Y1996063D02*
X625984D01*
X665355Y1970473D02*
Y1996063D01*
X625984D02*
X665355D01*
X704725Y1972378D02*
Y1996063D01*
X702819Y1970473D02*
X704725Y1972378D01*
X665355Y1996063D02*
X704725D01*
X696270Y402195D02*
X706504Y391961D01*
X696270Y402195D02*
Y445659D01*
X695276Y446654D02*
X696270Y445659D01*
X673000Y404000D02*
X674295Y405295D01*
X625984Y1970473D02*
Y1996063D01*
X427362Y874728D02*
Y914253D01*
X419547Y866913D02*
X427362Y874728D01*
Y931477D02*
X441059Y945173D01*
X427362Y914253D02*
Y931477D01*
X441059Y945173D02*
X582677D01*
X837410Y1455501D02*
X888981D01*
X888981Y1455501D01*
D41*
X703035Y1462421D02*
Y1553418D01*
X647092Y1406477D02*
X703035Y1462421D01*
Y1553418D02*
X740705Y1591088D01*
X749997Y400599D02*
X760236Y410839D01*
X749997Y345861D02*
Y400599D01*
X738465Y334329D02*
X749997Y345861D01*
X592043Y334329D02*
X738465D01*
X760236Y444685D02*
X764173Y448622D01*
X760236Y410839D02*
Y444685D01*
X580512Y345861D02*
Y401587D01*
Y345861D02*
X592043Y334329D01*
X571260Y410839D02*
Y444685D01*
Y410839D02*
X580512Y401587D01*
X773433Y1530559D02*
X777370Y1526622D01*
Y1489220D02*
Y1526622D01*
X582677Y1406299D02*
X582856Y1406477D01*
X647092D01*
X582677Y945173D02*
Y949571D01*
X635075Y1001968D01*
X481504Y530433D02*
X537480D01*
X403756D02*
X481504D01*
X403756Y491063D02*
X468595D01*
X480126Y502594D01*
Y529055D01*
X481504Y530433D01*
X537480D02*
X567323Y500591D01*
X745705Y613944D02*
Y645173D01*
Y613944D02*
X745811Y613838D01*
X582677Y1350173D02*
Y1406299D01*
X837902Y1350517D02*
Y1380584D01*
X778847Y1588627D02*
X781307Y1591088D01*
X740705D02*
X781307D01*
X811819Y1153662D02*
Y1250173D01*
Y722016D02*
Y1153662D01*
X837902D01*
X811819Y702331D02*
Y722016D01*
Y535676D02*
Y702331D01*
X764173Y448622D02*
Y488030D01*
X811819Y535676D01*
X838394Y1276748D02*
Y1350025D01*
X811819Y1250173D02*
X838394Y1276748D01*
X567323Y448622D02*
X571260Y444685D01*
X403756Y569803D02*
X405724Y571772D01*
X567323Y448622D02*
Y500591D01*
X688224Y1828276D02*
X735792Y1780708D01*
Y1748032D02*
Y1780708D01*
X778354Y1662596D02*
Y1779485D01*
X721224Y1836614D02*
X778354Y1779485D01*
X688224Y1828276D02*
Y1860236D01*
X721224Y1836614D02*
Y1860236D01*
X779831Y1592564D02*
X781308Y1591088D01*
X779831Y1592564D02*
Y1661119D01*
X778354Y1662596D02*
X779831Y1661119D01*
X776386Y1530559D02*
X778847Y1533020D01*
Y1588627D01*
D42*
X391929Y1842717D02*
X545276Y1996063D01*
X447018Y1956267D02*
X461224Y1970473D01*
X475969D01*
X391929Y1720275D02*
Y1842717D01*
X368307Y1867513D02*
X447018Y1946224D01*
Y1956267D01*
X448819Y1724409D02*
Y1848425D01*
X521362Y1920968D01*
Y1920968D02*
X545276Y1944882D01*
X521362Y1920968D02*
Y1920968D01*
X396851Y1912826D02*
Y1937930D01*
X356496Y1872472D02*
X396851Y1912826D01*
X356496Y1901770D02*
Y1908080D01*
X344685Y1889959D02*
X356496Y1901770D01*
X344685Y1458464D02*
Y1889959D01*
Y1458464D02*
X396851Y1406299D01*
X356496Y1496653D02*
Y1872472D01*
X368307Y1534842D02*
Y1867513D01*
X716536Y2047244D02*
Y2064698D01*
X719995Y2068157D01*
X815701D01*
X836614Y2047244D01*
X972441D01*
X1011811Y2007874D01*
X740705Y2011811D02*
Y2045823D01*
X742126Y2047244D01*
X520915Y1744823D02*
X523749Y1741988D01*
X520915Y1811632D02*
X574207Y1864925D01*
X523749Y1741988D02*
X527975D01*
X520915Y1744823D02*
Y1811632D01*
X612953Y1869094D02*
Y1919056D01*
X614173Y1920276D01*
X481504Y1760776D02*
X488736Y1753544D01*
X475969Y1970473D02*
X527150Y2021654D01*
X356496Y1496653D02*
X396851Y1456299D01*
X368307Y1534842D02*
X396851Y1506299D01*
X380118Y1694685D02*
Y1857371D01*
X409747Y1887000D01*
X391929Y1720275D02*
X422244Y1689961D01*
X380118Y1694685D02*
X429134Y1645669D01*
X527150Y2021654D02*
X551181D01*
X396851Y1456299D02*
X429134D01*
X396851Y1406299D02*
X429134D01*
X766883Y1099398D02*
X787402Y1078880D01*
X656799Y1177045D02*
X734446Y1099398D01*
X787402Y1041342D02*
Y1078880D01*
X734446Y1099398D02*
X766883D01*
X567318Y1198264D02*
Y1263648D01*
X507185Y1323781D02*
X567318Y1263648D01*
X588538Y1177045D02*
X656799D01*
X567318Y1198264D02*
X588538Y1177045D01*
X749997Y1003937D02*
X787402Y1041342D01*
X748028Y1003937D02*
X749997D01*
X748028Y965916D02*
Y1003937D01*
X727285Y945173D02*
X748028Y965916D01*
X632181Y945173D02*
X727285D01*
X603233Y916225D02*
X632181Y945173D01*
X461417Y1606299D02*
X507185Y1560531D01*
Y1323781D02*
Y1560531D01*
X468705Y916225D02*
X603233D01*
X429134Y1606299D02*
X461417D01*
X429134D02*
Y1645669D01*
X466732Y874728D02*
X474547Y866913D01*
X466346Y722016D02*
X474547Y730217D01*
X466732Y874728D02*
Y914253D01*
X468705Y916225D01*
X474547Y730217D02*
Y866913D01*
X464378Y722016D02*
X466346D01*
X586614Y2049213D02*
Y2058380D01*
X582002Y2062992D02*
X586614Y2058380D01*
X505016Y2062992D02*
X582002D01*
X491236Y2049212D02*
X505016Y2062992D01*
X488284Y2049212D02*
X491236D01*
X518701Y1885622D02*
Y1886811D01*
X481504Y1848425D02*
X518701Y1885622D01*
X481504Y1760776D02*
Y1848425D01*
X518701Y1886811D02*
X551181Y1919291D01*
X436221Y1250173D02*
X440158D01*
X266986Y1419408D02*
X436221Y1250173D01*
X266986Y1419408D02*
Y1434943D01*
X256756Y1445173D02*
X266986Y1434943D01*
X460724Y2039370D02*
X478440Y2021654D01*
X460724Y2039370D02*
Y2042322D01*
X478440Y2021654D02*
X506595D01*
X453834Y2049212D02*
X460724Y2042322D01*
X403543Y2049212D02*
X453834D01*
X545276Y1996063D02*
X551181D01*
X574207Y1864925D02*
Y1866797D01*
X506595Y2021654D02*
X532185Y2047244D01*
X551181D01*
X586614Y2049213D02*
X588583Y2047244D01*
X488780Y1322526D02*
Y1478937D01*
Y1322526D02*
X527968Y1283338D01*
Y1250173D02*
Y1283338D01*
X429134Y1506299D02*
X461417D01*
X488780Y1478937D01*
X503748Y722016D02*
X588235D01*
X588583Y1881172D02*
Y1920276D01*
X574207Y1866797D02*
X588583Y1881172D01*
X401575Y2047244D02*
X403543Y2049212D01*
X306751Y1423549D02*
Y1689961D01*
X256756Y1739955D02*
X306751Y1689961D01*
X256756Y1739955D02*
Y1745173D01*
X306751Y1423549D02*
X480126Y1250173D01*
X396851Y1506299D02*
X429134D01*
X837410Y1380584D02*
Y1404321D01*
X849221Y1272503D02*
X853834Y1267890D01*
X854327D01*
X837410Y1351008D02*
Y1380584D01*
X854327Y1267890D02*
X860233Y1261984D01*
Y1258047D02*
Y1261984D01*
X849221Y1272503D02*
Y1339198D01*
X899603Y1258047D02*
Y1288831D01*
X899588Y1288846D02*
X899603Y1288831D01*
X742172Y722016D02*
X811819D01*
X742172Y702331D02*
X811819D01*
X838394Y1350025D02*
X849221Y1339198D01*
X899603Y1222614D02*
Y1258047D01*
Y1222614D02*
X899603Y1222614D01*
X896418Y1187181D02*
X898011Y1188774D01*
Y1221022D01*
X899603Y1222614D01*
X588235Y761386D02*
X588235Y761386D01*
X523622Y761386D02*
X588235D01*
X635676Y674575D02*
Y722016D01*
X665204Y751543D01*
X714416Y645173D02*
X745705D01*
X699344D02*
X714416D01*
Y674575D01*
X694731Y649786D02*
Y674575D01*
Y649786D02*
X699344Y645173D01*
X655361Y828512D02*
Y875672D01*
X655905Y876216D01*
X480126Y1250173D02*
X484063D01*
X545276Y1944882D02*
X551181D01*
X689912Y1725488D02*
Y1733362D01*
X961067Y1140862D02*
X1056756Y1045173D01*
X940945Y1060985D02*
X1056756Y945173D01*
X927760Y974170D02*
X1056756Y845173D01*
X837902Y1350517D02*
X838394Y1350025D01*
X837410Y1351008D02*
X837902Y1350517D01*
X802653Y1380584D02*
X832798D01*
X798040Y1385196D02*
Y1404321D01*
Y1385196D02*
X802653Y1380584D01*
X927760Y974170D02*
Y1920276D01*
X779528Y1944882D02*
X903153D01*
X927760Y1920276D01*
X940945Y1060985D02*
Y1982878D01*
X961067Y1140862D02*
Y1996063D01*
X945319Y2011811D02*
X961067Y1996063D01*
X984252Y1417677D02*
Y2004374D01*
X961067Y2027559D02*
X984252Y2004374D01*
Y1417677D02*
X1056756Y1345173D01*
X779528Y1996063D02*
X927760D01*
X940945Y1982878D01*
X816929Y2011811D02*
X945319D01*
X827258Y2027559D02*
X961067D01*
X779528Y2021654D02*
X807087D01*
X816929Y2011811D01*
X807573Y2047244D02*
X827258Y2027559D01*
X779528Y2047244D02*
X807573D01*
X779528Y1970473D02*
X812992D01*
X1011811Y1790118D02*
Y2007874D01*
Y1790118D02*
X1056756Y1745173D01*
D43*
X468491Y1945744D02*
Y1948509D01*
X409747Y1887000D02*
X468491Y1945744D01*
X412599Y1745465D02*
Y1837598D01*
X505527Y1930527D01*
Y1930724D02*
X545276Y1970473D01*
X505527Y1930527D02*
Y1930724D01*
X690945Y2047244D02*
Y2053150D01*
X697907Y2060112D01*
Y2076542D01*
X698408Y2077043D01*
X639764Y2047244D02*
Y2072236D01*
X635000Y2077000D02*
X639764Y2072236D01*
X549987Y1768987D02*
X612952Y1831952D01*
X545685Y1807105D02*
X607674Y1869094D01*
X612952Y1831952D02*
Y1835266D01*
X607674Y1869094D02*
X612953D01*
X505899Y1828656D02*
X573772Y1896529D01*
X665355Y2047244D02*
Y2076581D01*
X560004Y789582D02*
Y848207D01*
X516217Y891994D02*
X560004Y848207D01*
X313041Y1288889D02*
X380204Y1221725D01*
Y1054832D02*
Y1221725D01*
X313041Y1288889D02*
X313041D01*
X256756Y1345173D02*
X313041Y1288889D01*
X431099Y1003937D02*
X433068D01*
X380204Y1054832D02*
X431099Y1003937D01*
X573772Y1896529D02*
Y1941882D01*
X588583Y1956693D01*
X734646Y446654D02*
Y519098D01*
X748028Y532480D02*
Y533465D01*
X734646Y519098D02*
X748028Y532480D01*
X545276Y1970473D02*
X551181D01*
X583874Y1163547D02*
X644371D01*
X553842Y1193579D02*
X583874Y1163547D01*
X696100Y1032433D02*
X697819D01*
X703035Y1037650D02*
Y1088046D01*
X644371Y1163547D02*
X714941Y1092978D01*
X697819Y1032433D02*
X703035Y1037650D01*
X696852Y1001968D02*
X714941Y1020057D01*
X678382Y1001968D02*
X696852D01*
X639440Y1151642D02*
X703035Y1088046D01*
X659884Y1031494D02*
X695161D01*
X696100Y1032433D01*
X714941Y1020057D02*
Y1092978D01*
X545685Y1230488D02*
X553842Y1222331D01*
Y1193579D02*
Y1222331D01*
X463780Y1230488D02*
X545685D01*
X440158Y1210803D02*
X444095D01*
X463780Y1230488D01*
X559067Y1139736D02*
X628499D01*
X488000Y1210803D02*
X559067Y1139736D01*
X570946Y1151642D02*
X639440D01*
X674434Y1064971D02*
X678382Y1061024D01*
X628499Y1139736D02*
X674434Y1093801D01*
Y1064971D02*
Y1093801D01*
X484063Y1210803D02*
X488000D01*
X527968Y1194619D02*
X570946Y1151642D01*
X527968Y1194619D02*
Y1210803D01*
X635075Y1057086D02*
Y1061024D01*
Y1057086D02*
X653728Y1038433D01*
Y1037650D02*
Y1038433D01*
Y1037650D02*
X659884Y1031494D01*
X587200Y782106D02*
X588235Y781071D01*
X567480Y782106D02*
X587200D01*
X560004Y789582D02*
X567480Y782106D01*
X534402Y843638D02*
X534839Y844075D01*
X527559Y800756D02*
X534402Y807599D01*
Y843638D01*
X523622Y800756D02*
X527559D01*
X665355Y1768801D02*
Y1920276D01*
Y1768801D02*
X677847Y1756309D01*
Y1741722D02*
X686207Y1733362D01*
X677847Y1741722D02*
Y1756309D01*
X639764Y1920276D02*
X641192Y1918847D01*
Y1768801D02*
Y1918847D01*
X587782Y1723875D02*
X604467Y1740561D01*
X612952D01*
X641192Y1768801D01*
X587782Y1662951D02*
Y1723875D01*
X686207Y1715390D02*
Y1725488D01*
X587782Y1662951D02*
X592662Y1658071D01*
X686207Y1662424D02*
Y1715390D01*
X681855Y1658071D02*
X686207Y1662424D01*
X602126Y491063D02*
Y531516D01*
X613630Y449559D02*
X616535Y446654D01*
X613630Y449559D02*
Y479559D01*
X602126Y491063D02*
X613630Y479559D01*
D44*
X748028Y572835D02*
Y573819D01*
X779590Y605381D01*
X781308D01*
X778705Y610114D02*
Y645173D01*
Y610114D02*
X781308Y607511D01*
Y605381D02*
Y607511D01*
X861826Y1188774D02*
X863418Y1187181D01*
X861826Y1188774D02*
Y1221022D01*
X860233Y1222614D02*
X861826Y1221022D01*
X537795Y429921D02*
Y446654D01*
X531890Y424016D02*
X537795Y429921D01*
X508400Y424016D02*
X531890D01*
X495669Y411285D02*
X508400Y424016D01*
X495669Y410630D02*
Y411285D01*
X793701Y429921D02*
Y446654D01*
Y429921D02*
X799606Y424016D01*
X823096D01*
X835827Y411285D01*
Y410630D02*
Y411285D01*
X778354Y1404321D02*
X779338Y1403336D01*
Y1355931D02*
Y1403336D01*
Y1355931D02*
X785245Y1350025D01*
X817724Y1429911D02*
Y1455501D01*
Y1404321D02*
Y1429911D01*
X790387D02*
X817724D01*
X778354Y1404321D02*
X779338Y1405305D01*
Y1418862D01*
X790387Y1429911D01*
X777370Y1456485D02*
Y1489220D01*
Y1456485D02*
X778354Y1455501D01*
X799024Y1456485D02*
Y1476425D01*
X842331Y1519732D01*
Y1530559D01*
X798040Y1455501D02*
X799024Y1456485D01*
X655361Y467004D02*
Y674575D01*
X675046Y467004D02*
Y674575D01*
X816929Y1919291D02*
X836614Y1899606D01*
X779528Y1919291D02*
X816929D01*
X688224Y1860236D02*
X690945Y1862957D01*
Y1920276D01*
X716536Y1864925D02*
X721224Y1860236D01*
X716536Y1864925D02*
Y1920276D01*
X836614Y1860236D02*
X836614Y1860236D01*
X803150Y1860236D02*
X836614D01*
X763780D02*
Y1882319D01*
X742126Y1903972D02*
X763780Y1882319D01*
X742126Y1903972D02*
Y1920276D01*
D45*
X835827Y246063D02*
D03*
X495669D02*
D03*
D46*
X835827Y410630D02*
D03*
X495669D02*
D03*
D47*
X779528Y389764D02*
D03*
X551968D02*
D03*
D48*
X1031756Y2095173D02*
D03*
X281756D02*
D03*
D49*
X306756Y295173D02*
D03*
X1006756D02*
D03*
D50*
X1056756Y445173D02*
D03*
D51*
Y545173D02*
D03*
Y645173D02*
D03*
Y745173D02*
D03*
Y845173D02*
D03*
Y945173D02*
D03*
Y1045173D02*
D03*
Y1145173D02*
D03*
Y1245173D02*
D03*
Y1345173D02*
D03*
Y1445173D02*
D03*
Y1545173D02*
D03*
Y1645173D02*
D03*
Y1745173D02*
D03*
Y1845173D02*
D03*
Y1945173D02*
D03*
X256756Y845173D02*
D03*
Y945173D02*
D03*
Y1045173D02*
D03*
Y1145173D02*
D03*
Y1245173D02*
D03*
Y1345173D02*
D03*
Y1445173D02*
D03*
Y1545173D02*
D03*
Y1645173D02*
D03*
Y1745173D02*
D03*
Y1845173D02*
D03*
Y1945173D02*
D03*
D52*
X649464Y375841D02*
D03*
X468491Y1948509D02*
D03*
X356496Y1908080D02*
D03*
X396851Y1937930D02*
D03*
X635000Y2077000D02*
D03*
X698408Y2077043D02*
D03*
X740705Y2011811D02*
D03*
X549987Y1768987D02*
D03*
X545685Y1807105D02*
D03*
X612953Y1869094D02*
D03*
X612952Y1835266D02*
D03*
X505899Y1828656D02*
D03*
X518701Y1886811D02*
D03*
X412599Y1745465D02*
D03*
X665355Y2076581D02*
D03*
X706504Y391961D02*
D03*
X621751Y393382D02*
D03*
X673000Y404000D02*
D03*
X516217Y891994D02*
D03*
X448819Y1724409D02*
D03*
X574207Y1864925D02*
D03*
X821662Y1724409D02*
D03*
X466541Y1313858D02*
D03*
X906056Y222737D02*
D03*
X427355Y221318D02*
D03*
X763442Y222737D02*
D03*
X697264D02*
D03*
X627058D02*
D03*
X563717D02*
D03*
X709832Y909216D02*
D03*
X488437Y1003940D02*
D03*
X703035Y1181259D02*
D03*
X914367Y722009D02*
D03*
X474877Y563201D02*
D03*
X475180Y627974D02*
D03*
X574803Y610587D02*
D03*
X781308Y605381D02*
D03*
X846890Y939967D02*
D03*
X773619D02*
D03*
X745705Y1140862D02*
D03*
X887893Y1121505D02*
D03*
X619729Y1338214D02*
D03*
X705168Y1404321D02*
D03*
X582677Y945173D02*
D03*
X534839Y844075D02*
D03*
X362598Y2000000D02*
D03*
X684451Y776971D02*
D03*
X637795D02*
D03*
X745811Y613838D02*
D03*
X582677Y1350173D02*
D03*
X665204Y1507429D02*
D03*
X740705Y1591088D02*
D03*
X837902Y1153662D02*
D03*
X899588Y1288846D02*
D03*
X337520Y565886D02*
D03*
Y629823D02*
D03*
X664134Y1606299D02*
D03*
X735792Y1701929D02*
D03*
X772329Y1291585D02*
D03*
X888977Y1369710D02*
D03*
X837902Y1631299D02*
D03*
X735792Y1732760D02*
D03*
X256756Y2021654D02*
D03*
X1056756Y2019685D02*
D03*
X895420Y1970473D02*
D03*
X821662Y1768618D02*
D03*
X422244Y1689961D02*
D03*
X812992Y1970473D02*
D03*
%TF.MD5,0f714b41d17672f8a997c6592cfc4493*%
M02*
